<?xml version="1.0" encoding="utf-8"?>
<!-- Generator: Adobe Illustrator 16.0.0, SVG Export Plug-In . SVG Version: 6.00 Build 0)  -->
<!DOCTYPE svg PUBLIC "-//W3C//DTD SVG 1.1//EN" "http://www.w3.org/Graphics/SVG/1.1/DTD/svg11.dtd">
<svg version="1.1" id="dataset6_cochlea" class="dataset6" xmlns="http://www.w3.org/2000/svg" viewBox="0 0 3168 1408">
<path id="Outer_phalangeal_cell_-_body" class="anatomy_id_6" fill="#FFFFFF" stroke="#CCCCCC" d="M1744.196,384.852c0,0-6.083,72.381,3.532,118.286
	c10.975,51.072,24.619,76.896,48.672,120.604c17.901,30.939,50.666,52.438,66.581,71.078c21.266,24.912,26.356,28.418,35.292,41.678
	c21.798,32.432-7.778-26.168-13.884-37.66c-14.14-26.818-18.376-64.41-18.376-64.41C1823.498,599.169,1751.279,472,1759.785,408.5
	C1762.988,384.625,1744.196,384.852,1744.196,384.852z"/>
<path id="Outer_hair_cell_-_body" class="anatomy_id_6" fill="#FFFFFF" stroke="#CCCCCC" stroke-width="3" stroke-miterlimit="10" d="M1435.099,293.239
	c-16.131,4.311-42.938,49.268-59.159,70.949c-16.244,21.775-30.033,77.168-50.823,110.506
	c-20.804,33.266-79.085,9.336-82.979-35.898c-3.907-45.23,38.822-76.965,71.302-105.883c32.467-28.791,48.024-64.377,48.024-64.377
	S1451.126,289.087,1435.099,293.239L1435.099,293.239z M1310.459,254.001c-16.034,4.223-42.936,49.268-59.176,70.951
	c-16.229,21.691-30.038,77.098-50.705,110.43c-20.903,33.361-79.184,9.465-82.964-35.824
	c-3.991-45.354,38.691-77.053,71.157-105.951c32.474-28.811,50.273-69.855,50.273-69.855S1326.48,249.782,1310.459,254.001
	L1310.459,254.001z M1559.473,335.425c-16.13,4.18-42.835,49.156-59.076,70.972c-16.451,21.646-30.023,76.889-50.912,110.282
	c-20.705,33.47-78.985,9.429-82.858-35.825c-3.902-45.337,38.808-76.941,71.15-105.865c32.495-28.783,54.837-75.26,54.837-75.26
	S1575.592,331.171,1559.473,335.425L1559.473,335.425z"/>
<path id="Outer_hair_cell_-_stereocilia" class="anatomy_id_6" fill="#FFFFFF" stroke="#CCCCCC" d="M1255.03,232.168c0,0,8.425-49.285,12.592-55.118
	s6.333,2.5,4.833,10.333s-10,46.307-10,46.307L1255.03,232.168z M1281.122,238.744c-0.333-3.472-2-43.694-6.421-51.194
	s0,51.194,0,51.194S1281.455,242.216,1281.122,238.744z M1293.455,244.473c-0.128-1.338-2.833-16.59-5.833-25.59
	s-3.833-12.333-7.5-12.833s10.131,38.423,10.131,38.423S1293.583,245.811,1293.455,244.473z M1381.828,274.131
	c0,0,8.5-38.473,10-46.307s-0.667-16.167-4.833-10.333s-12.592,55.118-12.592,55.118L1381.828,274.131z M1400.495,279.186
	c-0.333-3.472-2-43.694-6.421-51.194s0,51.194,0,51.194S1400.828,282.658,1400.495,279.186z M1412.828,284.914
	c-0.128-1.338-2.833-16.59-5.833-25.59s-3.833-12.333-7.5-12.833s10.131,38.423,10.131,38.423S1412.956,286.253,1412.828,284.914z
	 M1509.642,309.118c0,0,8.5-38.473,10-46.307s-0.666-16.167-4.834-10.333c-4.166,5.833-12.592,55.118-12.592,55.118
	L1509.642,309.118z M1528.308,314.172c-0.332-3.472-2-43.694-6.42-51.194c-4.422-7.5,0,51.194,0,51.194
	S1528.642,317.645,1528.308,314.172z M1540.642,319.901c-0.129-1.338-2.834-16.59-5.834-25.59s-3.832-12.333-7.5-12.833
	c-3.666-0.5,10.132,38.423,10.132,38.423S1540.769,321.239,1540.642,319.901z"/>
<path id="Inner_hair_cell_-_body" class="anatomy_id_6" fill="#FFFFFF" stroke="#CCCCCC" stroke-width="3" stroke-miterlimit="10" d="M1758,384.852
	l84.209,10.841c0,0-5.434,3.878-5.434,33.508c0,29.614,42.43,34.29,91.856,52.631c49.406,18.34,83.475,56.445,86.123,80.395
	c2.824,25.395-11.287,50.789-43.756,67.709c-32.489,16.951-59.298,5.644-88.971-12.685c-24.133-14.924-55.056-66.292-88.957-111.436
	c-44.014-58.638-30.932-112.438-30.932-112.438L1758,384.852z"/>
<path id="Inner_hair_cell_-_stereocilia" class="anatomy_id_6" fill="#FFFFFF" stroke="#CCCCCC" d="M1783.645,389.745c0,0-2.25-53.417,0-54.917s6.25-2.083,6.084,9.25
	s1.889,48.083,1.889,48.083L1783.645,389.745z M1800.479,392.161c0,0-3.608-33.654-3.655-38.167s-1.095-3.833-3.761-2.083
	s1.825,39.302,1.825,39.302L1800.479,392.161z M1809.729,387.078c-1.43-7.086-8-29.417-11.084-29.652
	c-3.082-0.235,5.266,35.717,5.266,35.717S1811.156,394.164,1809.729,387.078z"/>
<path id="Inner_pillar_cells_-_body" class="anatomy_id_6" fill="#FFFFFF" stroke="#CCCCCC" stroke-width="3" stroke-miterlimit="10" d="
	M1743.649,380.967c0,0-9.797,87.936,0.144,135.395c9.678,47.355,38.839,106.691,64.024,131.735
	c25.053,25.068,116.293,122.121,116.293,141.744c0,21.764-281.989-2.154-281.989-2.154s-11.204-33.088,12.571-42.879
	c23.657-9.719,87.428,23.258,88.928-54.908c1.279-77.952-29.44-172.875-69.856-206.356
	c-40.435-33.486-25.596-111.769-25.596-117.321c0-5.533-16.461-9.861,41.563,5.083L1743.649,380.967z"/>
<path id="Outer_pillar_cells_-_body" class="anatomy_id_6" fill="#FFFFFF" stroke="#CCCCCC" stroke-width="3" stroke-miterlimit="10" d="
	M1566.197,334.022c0,0-50.543,107.727-84.692,149.817c-30.375,37.56-79.013,109.222-104.075,134.267
	c-25.058,25.068-74.067,74.02-71.984,116.277c1.07,21.732,329.018,52.761,329.018,52.761s12.056-37.522-11.729-47.316
	c-23.781-9.723-200.611-4.349-180.146-79.743c14.808-55.131,73.181-111.268,107.161-151.267
	c43.646-51.188,98.246-137.584,98.246-143.139c0-5.533-13.534-11.065-41.824-17.589L1566.197,334.022z"/>
<path id="Hensen_cells_-_body" class="anatomy_id_6" fill="#FFFFFF" stroke="#CCCCCC" stroke-width="3" stroke-miterlimit="10" d="M1017.194,243.691
	c15.189,16.931,11.654,70.51,10.606,104.743c0,0-1.553,61.567,11.406,114.05c3.494,14.229,18.729,32.372,9.633,44.754
	c-26.168,35.606-30.584,49.603-30.584,49.603c-8.48,15.181-20.426,26.448-38.831,50.779
	c-13.603,18.056,21.527-168.902-16.575-239.073l-20.834-62.44C942.017,283.532,1013.413,239.469,1017.194,243.691z M928.011,303.185
	c-18.809,12.844-74.146,43.135-47.042,71.613l38.015,88.544c27.137,28.467,45.206,108.604,52.622,125.544
	c7.407,16.933,8.244-126.854,6.929-149.4l-8.091-51.02C959.598,361.681,944.893,291.603,928.011,303.185z M801.208,478.703
	l-28.675,78.592c-8.327,24.115-59.705,173.968-37.079,173.968c22.616,0,163.142,4.182,148.018-19.928L859.669,516.21
	c-2.011-22.574-17.718-73.906-28.393-90.847C828.254,420.557,807.261,456.11,801.208,478.703z M836.139,424.596l20.81,62.427
	c9.532,22.597,18.333,232.755,40.943,232.755c22.617,0,65.307,8.816,65.307-13.776c0,0-5.112-42.544,10.453-91.923
	c4.633-14.638-10.35-44.246-13.865-58.478c-12.939-52.482-43.19-93.976-43.19-93.976c-25.408-49.028-29.271-76.173-44.468-93.078
	C868.349,364.313,836.139,402,836.139,424.596z M1024.605,248.987l7.062,96.273c0,22.595,7.005,159.097,26.117,147.055
	c26.846-16.916,12.377-135.057,37.777-165.047l40.232-53.95c25.422-29.996,59.739-54.909,40.247-66.643
	C1158.495,196.118,1024.605,226.389,1024.605,248.987z"/>
<path id="Deiter_x2019_s_cells_-_body" class="anatomy_id_6" fill="#FFFFFF" stroke="#CCCCCC" stroke-width="3" stroke-miterlimit="10" d="
	M1108.621,593.24c-6.419,16.906-40.354,107.324-46,120c-5.641,12.697-74.3,25.551-85.597,11.435
	c-11.302-14.088-14.105-76.179,4.236-98.741c18.341-22.563,83.289-121.32,86.111-129.762c2.852-8.476,10.438-25.303,12.708-40.914
	c8.506-57.842,22.221-95.658,34.941-113.998c12.693-18.343,46.22-61.565,51.84-72.853c5.664-11.286,34.649-30.377,29-40.247
	c-5.646-9.878-14.121-15.523-14.121-15.523s45.641,11.268,54.104,12.698c8.46,1.423-14.562,12.695-32.924,31.039l0,0
	c-80.434,80.36-93.268,120.621-93.268,120.621s-18.52,49.226-11.888,69.313c7.595,23,32.737,31.488,52.914,38.354
	C1160.744,488.086,1117.354,570.24,1108.621,593.24z M1308.813,517.311c6.962-14.158,34.937-72.604,47.646-90.964
	c12.686-18.3,59.648-83.915,65.302-95.208c5.644-11.287,25.418-21.173,19.785-31.037c-5.683-9.864-2.393-12.14-2.393-12.14
	s44.969,9.327,53.459,10.717c8.472,1.423-25.667,2.832-44.028,21.173l-32.821,45.179c0,0-42,55.599-61.859,94.775
	c-3.918,7.729-16.731,41.909-7.534,61.266c9.2,19.355,33.173,22.608,28.42,26.168c-16.54,12.423-58.87,82.876-70.167,97
	c-11.308,14.088-32.146,58.023-35.899,71.392c-2.856,10.179-61.632,19.963-72.92,5.839c-11.291-14.099,4.079-25.001,21.652-53.563
	C1217.454,667.906,1302.174,530.816,1308.813,517.311z M1206.425,624.715c-7.771,16.321-48.648,83.183-54.304,95.858
	c-6.094,13.675-65.031,25.757-61.5,9.667c4.5-20.5,14.5-39,24-67.5c9.199-27.599,60.677-134.042,63.5-142.5
	c2.837-8.459,14.452-36.394,21.5-50.5c3.506-6.987,16.411-52.001,42.829-94.996c26.889-43.763,53.641-67.546,56.497-73.233
	c5.635-11.273,25.406-21.174,19.757-31.038c-5.649-9.886-4.243-16.932-4.243-16.932s33.489,11.197,41.956,12.6
	c8.466,1.408-12.306,5.739-30.665,24.097l0,0c-61.808,61.735-80.675,94.936-87.646,111.604
	c-1.824,4.366-20.771,40.969-17.638,57.965c2.134,11.566,5.366,18.768,10.513,25.624c6.359,8.459,22.672,24.931,38.384,24.815
	C1269.363,510.246,1215.402,605.861,1206.425,624.715z"/>
<path id="Inner_sulcus_cells_-_body" class="anatomy_id_6" fill="#FFFFFF" stroke="#CCCCCC" stroke-width="3" stroke-miterlimit="10" d="
	M2660.115,571.965c8.685,7.889,15.565,26.198,19.187,56.192c3.616,29.983,13.033,44.188,13.033,44.188 M2701.487,505.233
	c0,0,0.312,25.951,13.354,65.4c13.032,39.448,35.688,56.693,35.688,56.693 M2729.521,451.843c0,0,19.728,49.311,32.024,80.082
	c12.315,30.782,28.407,35.112,28.407,35.112 M2748.209,386.441c0,0,12.659,18.862,21.35,30.698
	c8.696,11.84,40.121,49.012,40.121,49.012 M2054.222,552.55l52.228,79.357c31.775,63.848,24.693,124.131,47.313,124.131
	c22.624,0,59.658,9.186,59.658-13.408l-23.307-62.057c-5.658-24.009-14.795-58.205-33.187-69.819
	C2152.145,607.708,1990.694,462.268,2054.222,552.55z M2165.697,526.726c18.363,11.636,93.178,95.891,102.722,130.12l21.159,67.709
	c0,22.596-38.439,21.166-61.044,21.166c-22.618,0-32.49-111.776-66.365-139.651l-286.62-210.125
	c-20.281-51.311,146.483,33.34,168.708,46.058C2066.505,454.679,2163.59,525.39,2165.697,526.726z M2318.439,543.936
	c0,0-8.014,61.401-3.358,108.674c3.823,38.85,38.063,86.194,38.063,86.194 M2373.186,594.707c0,0-3.791,29.494,1.276,57.902
	c5.068,28.421,11.133,72.678,11.133,87.669 M2431.075,625.715c0,0,3.475,26.895,5.655,57.685
	c2.168,30.765-2.398,39.292-3.563,54.601 M2488.972,638.125c0,0-1.971,65.875-8.305,97.209 M2554.667,625.349
	c0,0-2.635,29.93-15.666,64.651c-13.032,34.716-14.66,43.106-14.66,43.106 M2622.096,707.067c0,0,2.176-37.88-2.173-61.555
	c-4.337-23.682-11.86-33.502-11.86-33.502 M2721.511,259.644c-0.44,16.537,12.397,72.771,13.485,86.963
	c1.086,14.18,16.854,33.666,10.344,45.481c-6.51,11.823-11.225,36.029-14.472,53.757c-3.263,17.734-27.591,54.146-55.827,105.443
	c-28.244,51.295-68.602,60.247-82.701,66.158c-14.101,5.912-46.063,10.338-55.82,10.338s-36.707,9.167-47.547,10.34
	c-10.852,1.185-16.816-4.128-33.086-12.409c-16.269-8.269-18.301,0-24.812,0c-6.503,0-15.626-14.168-35.144-24.806
	c-19.528-10.637-22.746-6.203-22.746-6.203s-5.039-12.701-16.543-16.537c-18.606-6.204-37.916-34.21-43.411-47.552
	c-14.479-35.156-37.102-44.225-60.562-61.576c-14.71-10.878-70.156-30.457-146.843-43.494c-76.687-13.036-59.444,4.384-55.61,8.985
	c3.834,4.601,31.492,18.405,31.492,18.405l88.139,64.354c13.805,8.373,74.387,84.418,91.801,110.492
	c17.412,26.073,31.923,86.66,38.058,103.531s106.849,7.669,133.945,7.488c27.096-0.18,110.237-5.697,110.237-5.697
	s94.866-20.519,169.439-74.965c74.587-54.446,104.679-125.204,93.406-221.742c-13.153-112.692-69.924-222.527-69.924-222.527
	S2722.179,234.677,2721.511,259.644z"/>
<path id="Claudius_cells_-_body" class="anatomy_id_6" fill="#FFFFFF" stroke="#CCCCCC" stroke-width="3" stroke-miterlimit="10" d="M303.708,758.348
	c0,0,31.292-156.348,55.816-206.957 M441.13,752.146C454,689,499.636,591,544.667,479.289 M577.331,738.907
	c18.698-80.556,152.415-360.654,152.415-360.654 M729.746,721.875c18.698-80.555,112.249-334.531,112.249-334.531
	s63.34-79.046-64.027-32.821c-67.633,24.546-166.348,112.917-254.957,128.55c-88.608,15.634-257.169,119.423-277.423,145.179
	c-53.103,67.527-104.06,128.73-104.06,128.73s10.503-9.281,26.951-11.758c8.75-1.315,18.479,3.422,30.757,3.386
	c26.511-0.08,61.872,7.502,94.251,9.107c32.379,1.605,70.777-0.229,95.013-1.433c50.302-2.497,67.85-6.496,106.234-10.748
	c26.958-2.986,62.992-7.996,133.048-4.508C733.5,746.294,729.746,721.875,729.746,721.875z"/>
<path id="Spiral_ganglia_cells_-_body" class="anatomy_id_5" fill="#FFFFFF" stroke="#CCCCCC" stroke-width="3" stroke-miterlimit="10" d="
	M2779.071,1258.933c-9.007-36.006,47.776-37.738,86.508-19.396c11.048,5.232,7.256,19.003,13.421,27.173
	c3.027,4.012,17.35,8.397,18.5,13c2.905,11.613,0.217,12.696-7.755,17.654C2862.494,1314.314,2788.125,1295.161,2779.071,1258.933z
	 M2753.839,1185.104c-6.946-27.774,26.798-28.392,59.661-21.895c13.93,2.754,27.592,6.311,38.443,11.862
	c6.08,3.11,7.188,12.563,11.057,17.138c3.035,3.591,9.34,1.983,10.52,6.707c1.916,7.662,0.854,13.771-2.382,18.467
	C2852.711,1244.132,2763.793,1224.938,2753.839,1185.104z M2658.382,1192.933c-8.905-35.606,49.39-36.839,88.05-18.118
	c7.81,3.779,7.859,13.691,11.738,20.257c13,22,14.33,7.64,18.33,22.14C2783.359,1242.076,2670.083,1239.759,2658.382,1192.933z
	 M2872.829,1246.933c-12.836-51.319,107.979-33.014,119.681,13.813C3005.347,1312.063,2884.53,1293.759,2872.829,1246.933z
	 M2856.219,1173.374c-2.406-9.622,5.392-14.166,10.781-19.164c23.355-21.658,99.393-5.069,108.898,32.978
	C2988.736,1238.503,2867.92,1220.2,2856.219,1173.374z M2749.838,1117.396c-12.836-51.32,107.979-33.015,119.681,13.813
	C2882.355,1182.525,2761.539,1164.223,2749.838,1117.396z M2646.448,1117.396c-9.627-38.49,55.925-37.815,94.239-15.317
	c12.771,7.499,5.654,21.923,12.791,31.654c11,15,36.257,21.541,16.521,18.977c-15.313-1.99-14.644,13.51-20.5,16.5
	c-8.872,4.53-16.285-6.289-30.079-7.646C2688.384,1158.505,2652.556,1141.835,2646.448,1117.396z M2687.046,1247.949
	c5.501-13.812-6.66-16.402,5.454-20.739c5.227-1.871,11.571,3.354,17.833,5c4.818,1.267,9.47-1.324,14.246-0.234
	c13.899,3.173,32.019-2.761,45.421,5.734c11.51,7.295,4.771,17.585,7.5,28.5c1.986,7.941,11.334,20.751,7.818,25.51
	c-15.737,21.304-77.583,12.25-104.831-13.5C2674.488,1272.551,2680.648,1264.007,2687.046,1247.949z M2580.172,1189.005
	c2.956-28.86,36.585-24.354,65.543-6.479c9.652,5.958,9.979,18.829,17.285,27.018c10.742,12.04,26.339,20.262,25.015,33.168
	C2682.625,1295.334,2575.244,1237.018,2580.172,1189.005z"/>
<path id="Inner_phalangeal_cell_-_body" class="anatomy_id_6" fill="#FFFFFF" stroke="#CCCCCC" d="M1998.055,525.249c0,0,8.208,5.883,15.268,21.262
	c15.534,33.854-3.67,72.438-3.67,72.438c3.62,39.404,14.904,101.23,40.48,123.076c35.824,30.578,85.459,13.078,85.459,7.836
	l-23.287-86.059c-9.535-34.217-74.855-130.182-87.189-148.104c-18.392-22.228-131.389-100.225-131.389-100.225
	c-15.459-11.842-18.158-27.921-33.408-27.603c-6.807,0.9-16,3.75-19.795,21.435c0,0-12.169,41.315,24.189,49.104
	c52.605,16.992,60.209,16.21,99.238,38.892C1985.844,510.797,1998.055,525.249,1998.055,525.249z"/>
<path id="Mesenchyme_cells_-_body" class="anatomy_id_4" fill="#FFFFFF" stroke="#CCCCCC" stroke-width="3" stroke-miterlimit="10" d="M810.456,959.421
	c-34.533-136.668-9.789-152.601-33.305-225.399 M633.9,956.018c37.413-28.258-24.82-132.282-6.119-212.834 M616,742.432
	c-86-5.723-114,7.723-220,16.704c-106,8.982-216-12.981-230-11.725s-24.472,11.725-24.472,11.725
	c-15.834,58.986-78.838,151.632-11.496,204.849c20.032,15.83,93.968,0.17,129.968,0.934s357.63-7.904,357.63-7.904
	c70.497-5.721,289.485,1.222,323.897-2.746c34.412-3.967,337.168,7.781,337.168,7.781c210.067,6.531,661.094,10.851,681.543,14.834
	c20.449,3.984,321.063,1.129,404.396,5.195c83.332,4.066,331.439,5.195,331.439,5.195l169.854,5.092
	c0,0,92.792-777.244,59.552-837.259l-8.769,0.049c0,0-31.613-1.088-42.465,7.186c-10.847,8.277-13.007,5.521-34.703,17.348
	c0,0-86.546,23.848-94.639,28.389s24.096,60.328,46.094,134.969c21.998,74.642,27.111,95.98,25.577,150.238
	c0,0-7.156,58.859-36.299,106.916c0,0-23.444,25.984-40.889,45.506c-8.921,9.982-99.043,77.582-208.344,88.732
	c-111.975,11.422-192.102,5.785-259.585,12.489c-11.472,1.142-32.538-0.422-47.929,2.685c-10.579,2.137-15.795,9.164-24.156,9.969
	c-22.499,2.168-33.213-2.408-51.381,0.385c-23.049,3.541-48.889,10.726-48.889,10.726c-9.267,0.848-36.702-11.24-51.188-8.492
	c-11.859,2.252-23.489,15.453-35.275,20.006c-27.209,10.512-54.562,14.902-82.572,17.639c-54.967,5.367-297.105-2.916-507.66-28.299
	c-210.556-25.383-149.84-40.39-182.77-37.521c-16.078,1.399-32.56,4.744-45.267,4.213c-13.318-0.558-19.955-8.575-31.697-7.782
	c-11.475,0.775-30.622,15.746-47.555,16.064c-16.932,0.317-31.646-14.014-38.059-14.037c-12.823-0.05-15.688,7.848-87.461,3.633
	c-16.276-0.955-15.735-7.336-25.815-8.613c-14.787-1.873-29.215-1.213-42.352-2.045c-17.396-1.1-32.913-2.822-47.804,3.068
	c-9.181,3.631-23.189,4.766-40.232,5.498c-45.691,1.963-103.652,0-103.652,0C705.492,743.889,702,748.153,616,742.432z
	 M1734.196,797.202c-10.649,93.532-30.857,105.533-34.089,165.481 M1590.5,945.153c1.317-22.039,5-14,9.936-44.636
	 M1680.829,818.648c11.437-5.256,4.171-18.053,5.517-24.027 M1530.96,934.458c9.062-23.346,8.354-113.148,10.966-152.055
	 M1470.933,777.04c0,0-6.817,19.018-21.091,82.57c-14.242,63.53-9.414,51.039-9.414,51.039 M1387.128,767.054
	c0,0-12.473,6.968-18.947,60.142c-6.502,53.151-6.502,53.151-6.502,53.151 M1315.101,755.905c0,0-6.969,10.518-16.043,74.059
	 M471.19,957.339c1.316-31.61,6.233-14.953,8.817-67.007 M512.69,799.131c1.316-24.814,6.233-11.738,8.817-52.603 M344.119,969.592
	c9.061-32.419,8.354-157.125,10.966-211.151 M230.438,755.905c0,0-4.64,30.015-10.681,211.348 M1277.385,918.515
	c0,0-6.115,12.435-11.104,43.142 M1382.735,930.141c0,0,0,0-10.278,34.776 M2711.257,987.729c0,0,21.291-74.953,22.569-111.275
	c1.893-52.51,19.938-150.886,5.563-230.748 M1121.82,951.655c9.087-51.857,7.236-59.64,7.236-59.64 M1111.72,861.993
	c32.942-41.068,36.345-55.053,36.345-55.053 M1066.098,844.205c0,0-37.686,39.019-37.626,108.755 M945.196,878.941
	c-14.268,53.159-6.196,29.112,2.881,75.324 M990.754,736.074c1.246,6.579-2.785,20.857-5.14,42.975 M897.318,724.939
	c-6.489,54.452-20.552,228.021-20.552,228.021 M2777.749,987.271c1.317-22.036,18.16-116.719,20.744-153.012
	c2.599-36.295,5.75-288.003,5.75-288.003 M2687.095,683.865c0,0-57.161,137.417-71.434,200.972
	c-14.242,63.531-8.992,100.313-8.992,100.313 M2589.247,723.21c-9.551,14.922-49.56,82.5-55.247,129.21
	c-6.502,53.15-5.344,133.391-5.344,133.391 M2436.756,888.461c0,0-1.997,31.548-4.256,40.192c-7,26.79,16.002,55.891,16.002,55.891
	 M2370.948,982.366c0,0,3.563-44.365,4.842-80.688c2.932-81.375,21.636-93.522,9.805-159.247 M2331.602,744.484
	c0,0-35.319,165.613-44.406,217.474 M2259.71,747.411c0,0-69.063,43.808-65.172,174.771 M2164.999,759.136
	c-14.267,53.16-62.659,48.459-44.512,123.66 M2042.587,978.188c0,0,9.839-33.349,16.328-87.8 M1933.301,801.28
	c-1.293,36.307,23.707,176.905,23.707,176.905 M1846.667,801.28c-11.19,13.463-32.19,109.914-47.753,169.553 M2488.011,788.463
	l20.29-51.568 M1704.875,861.398c0,32.049-26.835,58.028-59.938,58.028c-33.104,0-59.938-25.979-59.938-58.028
	c0-32.051,26.835-58.03,59.938-58.03C1678.041,803.368,1704.875,829.349,1704.875,861.398z M2523.213,837.135
	c0,30.63-25.646,55.46-57.283,55.46s-57.283-24.83-57.283-55.46c0-30.631,25.646-55.461,57.283-55.461
	S2523.213,806.504,2523.213,837.135z M1020.371,821.307c0,27.914-23.372,50.542-52.202,50.542
	c-28.831,0-52.203-22.628-52.203-50.542c0-27.913,23.372-50.541,52.203-50.541C996.999,770.766,1020.371,793.394,1020.371,821.307z
	 M540.915,835.3c0,27.365-23.319,49.549-52.083,49.549c-28.766,0-52.084-22.184-52.084-49.549c0-27.366,23.319-49.549,52.084-49.549
	C517.596,785.751,540.915,807.934,540.915,835.3z"/>
<path id="Neurons" class="anatomy_id_5" fill="#FFFFFF" stroke="#CCCCCC" stroke-width="3" stroke-miterlimit="10" d="M2657.429,1180.069
	c-127.661-35.63-834.881-180.646-1010.308-210.41l-147.787-24.993c-62.17-7.006-131.428-18.755-157.795-20.28
	c-33.941-1.965-160.687-18.311-204.875-31.713c-10.881-3.301-102.095-38.229-79.338-120.926
	c29.795-108.271,92.795-240.043,92.795-240.043s19.713-45.893,14-56.004c-5.939-10.514-14.293-8.563-22.534-15.523
	c-2.461-2.074-5.463-6.913-2.78-10.229c2.031-2.497,5.766-2.762,8.207-0.685c8.901,7.507,17.041,9.504,25.365,8.685
	c11.726-1.148,19.788-8.979,19.884-9.063c8.858-7.667,12.072,0.176,7.108,6.333c-4.964,6.156-12.357,6.929-17.585,14.833
	c-6.827,10.325-16.433,56.363-22.665,69.167c-17.105,35.139-26.653,51.045-48,110c-15.621,43.145-36.821,100.178-41.967,133.387
	c-9.076,58.582,56.456,87.375,67.348,90.675c30.229,9.176,108.068,28.786,160.542,35.043c-10.59-4.566-84.018-39.42-111.922-58.664
	c-50.729-34.984-57.501-75.498-9.501-153.998c19.577-32.019,37.566-68.11,55.359-99c30.42-52.81,54.851-86.969,44.255-91.941
	c-19.031-9-28.612-21.667-28.943-25.795c-1.17-14.598,11.788,1.477,31.829,13.069c10.563,5.203,29.605-1.012,29.727-1.046
	c3.02-1.082,6.348,0.485,7.436,3.506c1.088,3.014-2.7,6.967-5.702,8.063c-12.603,4.615-12.125-3.522-23.459,17.146
	c-5.032,9.176-22.344,39.832-47.567,87.965c-23.037,43.959-68.94,113.817-79.221,157.052c-6.168,25.939-0.521,42.48,12.788,55.483
	c55.14,53.868,156.903,82.989,182.938,85.073c-5.313-3.379-97.691-74.569-95.134-136.413
	c2.601-62.925,125.84-224.048,125.84-224.048c-1.802-7.303-14.127-15.868-17.675-22.555c-1.513-2.844-2.507-8.446,1.234-10.521
	c2.813-1.566,6.358-0.418,7.871,2.417c5.451,10.282,17.151,17.384,25.179,19.732c11.303,3.295,19.93,1.332,20.033,1.279
	c2.797-1.588,6.342-0.625,7.934,2.148c1.595,2.788-1.442,7.333-4.215,8.942c-11.075,6.421-30.015,3.461-30.015,3.461l-60.241,87.48
	c0,0-60.98,84.409-55.578,146.311c5.504,63.062,93.171,127.898,221.539,145.836l103.357,18.996
	c140.414,15.262,932.206,185.547,1060.121,221.238 M2680.638,1163.183c-4.78-1.795-493.618-224.424-605.73-280.495
	c-103.356-51.682-127.197-93.228-148.231-129.892l-1.34-2.34c-20.467-35.606-37.902-100.269-38.07-100.925l-0.183,0.045
	c-0.569-4.111-0.716-8.132,0.374-10.256c2.807-5.464,8.246,0.092,15.789,1.533c7.553,1.453,17.173,0.861,19.999-7.349
	c0,0-19.216-2.239-36.286-13.414c-15.675-10.278-29.93-27.1-31.974-30.554c-2.021-3.464-7.632,7.475-2.919,17.128
	c4.713,9.677,19.718,20.138,21.682,30.462c0.988,5.18,1.965,10.903,2.682,15.313l-0.408,0.111c0.102,0.33,0.478,1.682,1.066,3.816
	c0.34,2.09,0.545,3.477,0.545,3.477l0.468,0.09c5.269,18.354,19.898,66.284,37.149,96.293l1.34,2.351
	c20.765,36.209,46.636,81.243,153.104,134.512c112.659,56.346,590.847,274.656,595.618,276.451 M2653.919,1103.892
	c-4.634-1.612-447.067-168.188-530.435-219.049c-75.895-46.307-96.859-86.558-110.763-113.191l-7.428-13.584
	c-12.493-20.534-26.964-79.847-30.61-95.337c-0.44-3.683-0.375-8.497,1.749-12.758c4.122-8.232,15.459-7.619,22.329-13.799
	c6.872-6.179,5.51-8.929,4.125-16.492c0,0-20.604,10.313-38.469,13.063c-17.866,2.735-41.22,2.044-41.22,2.044
	s-0.682,11.676,5.497,13.061c6.18,1.363,28.361,1.296,31.099,8.179c1.363,3.386,2.659,6.93,3.636,9.678
	c3.861,16.444,18.467,76.291,31.926,98.403l7.055,12.914c14.49,27.793,36.365,69.762,115.021,117.736
	c84.445,51.531,509.552,212.082,528.529,218.623"/>
<path id="capillaries" class="anatomy_id_3" fill="#FFFFFF" stroke="#CCCCCC" stroke-width="3" stroke-miterlimit="10" d="M488.274,789.638
	c26.918,0,48.738,21.452,48.738,47.91c0,26.46-21.82,47.91-48.738,47.91c-26.919,0-48.741-21.45-48.741-47.91
	C439.533,811.09,461.355,789.638,488.274,789.638z M482.131,804.938c-2.801,0.612-5.686,0.978-8.389,1.882
	c-15.083,5.049-24.06,21.705-20.315,37.693c4.046,17.28,21.881,31.215,42.29,22.841c10.995-4.513,18.451-12.339,20.883-24.313
	c1.264-6.217-0.182-8.991-5.984-11.646c-2.188-1.002-4.441-1.857-6.678-2.752c-4.266-1.707-7.624-4.47-9.558-8.666
	c-1.31-2.842-2.253-5.852-3.417-8.764C489.196,806.799,486.908,805.274,482.131,804.938z M2521.798,836.162
	c0,30.673-24.442,55.537-54.592,55.537s-54.593-24.864-54.593-55.537c0-30.674,24.441-55.539,54.593-55.539
	C2497.354,780.623,2521.798,805.488,2521.798,836.162z M2500.156,831c-0.665-3.041-1.06-6.172-2.042-9.106
	c-5.481-16.372-23.561-26.115-40.916-22.051c-18.759,4.391-33.882,23.751-24.794,45.903c4.897,11.936,13.395,20.029,26.394,22.668
	c6.749,1.37,9.761-0.197,12.64-6.497c1.089-2.375,2.018-4.821,2.987-7.248c1.854-4.63,4.854-8.275,9.406-10.373
	c3.087-1.423,6.353-2.446,9.515-3.71C2498.136,838.668,2499.789,836.184,2500.156,831z M1686.059,901.046
	c-22.764,22.764-59.355,23.075-81.729,0.701c-22.375-22.375-22.063-58.968,0.701-81.73c22.764-22.764,59.355-23.077,81.731-0.701
	C1709.136,841.688,1708.822,878.282,1686.059,901.046z M1675.354,883.713c1.804-2.812,3.88-5.486,5.358-8.457
	c8.265-16.579,1.939-37.687-14.311-47.771c-17.563-10.898-43.724-7.687-53.635,16.016c-5.339,12.771-5.032,25.356,2.826,37.22
	c4.079,6.159,7.554,7.254,14.519,4.659c2.626-0.976,5.188-2.127,7.765-3.231c4.919-2.105,9.959-2.597,15.006-0.733
	c3.42,1.262,6.674,2.965,10.03,4.403C1668.003,887.998,1671.143,887.368,1675.354,883.713z M964.767,771.159
	c29.016,0,52.535,23.123,52.535,51.642c0,28.521-23.521,51.643-52.535,51.643c-29.016,0-52.538-23.121-52.538-51.643
	C912.229,794.282,935.751,771.159,964.767,771.159z M960.972,785.681c-3.161,0.691-6.416,1.103-9.466,2.123
	c-17.02,5.697-27.146,24.489-22.922,42.53c4.563,19.499,24.688,35.22,47.716,25.771c12.406-5.092,20.819-13.922,23.563-27.436
	c1.425-7.014-0.205-10.145-6.753-13.138c-2.469-1.131-5.012-2.098-7.534-3.105c-4.813-1.927-8.602-5.044-10.782-9.775
	c-1.479-3.208-2.542-6.604-3.854-9.89C968.943,787.78,966.361,786.063,960.972,785.681z"/>
<path id="Spiral_Ganglia_-_nuclei" fill="#FFFFFF" stroke="#CCCCCC" stroke-width="3" stroke-miterlimit="10" d="M2851.23,1245.942
	c-9.929-6.802-23.491-4.255-30.282,5.659c-6.809,9.938-4.267,23.482,5.659,30.281c9.927,6.801,23.477,4.275,30.283-5.662
	C2863.681,1266.311,2861.154,1252.739,2851.23,1245.942z M2825.998,1172.114c-9.928-6.802-23.491-4.254-30.282,5.66
	c-6.808,9.938-4.266,23.481,5.66,30.28c9.926,6.802,23.476,4.275,30.283-5.662
	C2838.448,1192.48,2835.922,1178.911,2825.998,1172.114z M2730.541,1179.942c-9.928-6.802-23.491-4.255-30.282,5.659
	c-6.808,9.938-4.266,23.482,5.66,30.281c9.926,6.801,23.476,4.275,30.283-5.662
	C2742.991,1200.311,2740.465,1186.739,2730.541,1179.942z M2944.988,1233.942c-9.928-6.802-23.491-4.255-30.282,5.659
	c-6.808,9.938-4.267,23.482,5.66,30.281c9.926,6.801,23.476,4.275,30.282-5.662
	C2957.438,1254.311,2954.912,1240.739,2944.988,1233.942z M2928.378,1160.384c-9.928-6.801-23.491-4.254-30.282,5.66
	c-6.808,9.938-4.266,23.482,5.66,30.281c9.926,6.801,23.477,4.274,30.283-5.662
	C2940.828,1180.751,2938.302,1167.181,2928.378,1160.384z M2821.997,1104.406c-9.928-6.801-23.491-4.254-30.282,5.66
	c-6.808,9.938-4.266,23.481,5.66,30.28c9.926,6.802,23.477,4.275,30.283-5.661
	C2834.447,1124.773,2831.921,1111.203,2821.997,1104.406z M2718.607,1104.406c-9.929-6.801-23.491-4.254-30.282,5.66
	c-6.809,9.938-4.267,23.481,5.659,30.28c9.927,6.802,23.477,4.275,30.283-5.661
	C2731.059,1124.773,2728.531,1111.203,2718.607,1104.406z M2740.541,1245.942c-9.928-6.802-23.491-4.255-30.282,5.659
	c-6.808,9.938-4.266,23.482,5.66,30.281c9.926,6.801,23.476,4.275,30.283-5.662
	C2752.991,1266.311,2750.465,1252.739,2740.541,1245.942z M2645.688,1203.415c-7.021-9.772-20.642-11.993-30.399-4.981
	c-9.783,7.029-12.001,20.632-4.979,30.4c7.021,9.773,20.621,12.009,30.402,4.979
	C2650.467,1226.802,2652.708,1213.182,2645.688,1203.415z"/>
<path id="Mesenchyme_cells_-_nuclei" fill="#FFFFFF" stroke="#CCCCCC" stroke-width="3" stroke-miterlimit="10" d="
	M1007.933,908.732c3.19-11.142-4.685-23.185-17.598-26.9c-12.941-3.711-26.004,2.311-29.187,13.439
	c-3.24,11.151,4.63,23.204,17.557,26.893C991.631,925.902,1004.732,919.871,1007.933,908.732z M862.636,891.566
	c3.19-11.144-4.686-23.187-17.598-26.9c-12.942-3.711-26.004,2.309-29.188,13.439c-3.238,11.151,4.631,23.204,17.559,26.893
	C846.334,908.736,859.435,902.705,862.636,891.566z M735.402,872.709c3.189-11.141-4.687-23.184-17.599-26.9
	c-12.941-3.711-26.004,2.312-29.188,13.439c-3.239,11.154,4.63,23.205,17.558,26.893
	C719.101,889.879,732.201,883.848,735.402,872.709z M1093.611,931.412c3.189-11.144-4.687-23.185-17.599-26.9
	c-12.941-3.711-26.005,2.312-29.188,13.439c-3.239,11.151,4.63,23.205,17.557,26.893
	C1077.311,948.582,1090.41,942.551,1093.611,931.412z M1231.583,803.434c3.19-11.143-4.687-23.186-17.598-26.899
	c-12.942-3.713-26.005,2.309-29.188,13.438c-3.239,11.152,4.63,23.203,17.559,26.892
	C1215.281,820.602,1228.382,814.572,1231.583,803.434z M1129.183,800.662c3.19-11.144-4.686-23.185-17.598-26.9
	c-12.942-3.711-26.005,2.312-29.188,13.439c-3.238,11.151,4.631,23.203,17.559,26.891
	C1112.881,817.832,1125.98,811.801,1129.183,800.662z M1207.471,943.668c3.207-11.145-4.667-23.168-17.596-26.9
	c-12.942-3.713-26.013,2.308-29.195,13.449c-3.238,11.133,4.646,23.18,17.569,26.889
	C1191.169,960.838,1204.271,954.822,1207.471,943.668z M1434.646,871.348c3.207-11.145-4.668-23.17-17.597-26.901
	c-12.941-3.711-26.013,2.309-29.193,13.451c-3.24,11.133,4.645,23.18,17.567,26.889
	C1418.345,888.518,1431.449,882.5,1434.646,871.348z M1357.64,831.945c3.207-11.146-4.667-23.17-17.596-26.902
	c-12.942-3.711-26.013,2.309-29.194,13.449c-3.24,11.135,4.645,23.182,17.568,26.889
	C1341.338,849.113,1354.441,843.098,1357.64,831.945z M1511.433,897.678c8.071-8.326,6.777-22.641-2.877-32.016
	c-9.676-9.363-24.041-10.197-32.091-1.861c-8.094,8.301-6.802,22.642,2.859,31.992
	C1488.97,905.164,1503.365,906.016,1511.433,897.678z M1777.238,945.082c8.072-8.326,6.776-22.641-2.877-32.016
	c-9.676-9.361-24.041-10.195-32.09-1.861c-8.095,8.301-6.803,22.641,2.858,31.994
	C1754.776,952.568,1769.172,953.42,1777.238,945.082z M1889.566,895.863c8.07-8.326,6.776-22.642-2.877-32.015
	c-9.677-9.362-24.041-10.196-32.092-1.862c-8.094,8.301-6.801,22.641,2.859,31.994
	C1867.104,903.35,1881.499,904.201,1889.566,895.863z M2030.582,918.945c8.071-8.326,6.777-22.642-2.878-32.017
	c-9.675-9.362-24.041-10.196-32.09-1.86c-8.095,8.301-6.802,22.641,2.858,31.991C2008.12,926.432,2022.515,927.283,2030.582,918.945
	z M2107.814,958.611c8.07-8.326,6.776-22.642-2.879-32.017c-9.676-9.36-24.041-10.196-32.09-1.86
	c-8.095,8.301-6.802,22.641,2.859,31.991C2085.352,966.098,2099.747,966.949,2107.814,958.611z M2183.762,872.252
	c8.071-8.326,6.777-22.641-2.878-32.014c-9.676-9.363-24.041-10.197-32.09-1.863c-8.094,8.301-6.801,22.641,2.858,31.994
	C2161.3,879.738,2175.694,880.592,2183.762,872.252z M2267.21,909.996c8.071-8.326,6.777-22.641-2.877-32.016
	c-9.676-9.363-24.041-10.197-32.091-1.863c-8.094,8.303-6.801,22.643,2.858,31.994
	C2244.747,917.482,2259.143,918.334,2267.21,909.996z M2349.094,941.625c8.071-8.326,6.777-22.641-2.877-32.016
	c-9.676-9.363-24.041-10.197-32.091-1.861c-8.094,8.301-6.801,22.641,2.858,31.992
	C2326.632,949.109,2341.025,949.963,2349.094,941.625z M2420.829,928.008c8.071-8.326,6.777-22.641-2.878-32.014
	c-9.676-9.363-24.041-10.197-32.09-1.863c-8.094,8.301-6.801,22.642,2.858,31.994
	C2398.366,935.494,2412.762,936.348,2420.829,928.008z M2510.523,947.736c8.071-8.326,6.777-22.642-2.877-32.017
	c-9.677-9.36-24.041-10.194-32.091-1.86c-8.094,8.301-6.802,22.641,2.859,31.994
	C2488.063,955.223,2502.457,956.074,2510.523,947.736z M2606.74,836.324c8.07-8.326,6.777-22.642-2.877-32.017
	c-9.676-9.36-24.041-10.194-32.092-1.86c-8.094,8.301-6.801,22.641,2.859,31.992C2584.278,843.811,2598.673,844.662,2606.74,836.324
	z M2686.246,918.945c8.071-8.326,6.777-22.642-2.878-32.017c-9.676-9.362-24.041-10.196-32.09-1.86
	c-8.095,8.301-6.802,22.641,2.858,31.991C2663.783,926.432,2678.179,927.283,2686.246,918.945z M2785.189,829.65
	c8.07-8.326,6.777-22.642-2.877-32.017c-9.677-9.36-24.041-10.196-32.091-1.86c-8.095,8.301-6.802,22.641,2.858,31.991
	C2762.729,837.137,2777.122,837.988,2785.189,829.65z M2849.965,945.084c8.071-8.326,6.777-22.641-2.878-32.016
	c-9.676-9.361-24.041-10.197-32.09-1.861c-8.094,8.301-6.801,22.641,2.858,31.992
	C2827.502,952.57,2841.896,953.422,2849.965,945.084z M380.425,889.5c0,16.279,13.411,29.49,29.982,29.49
	c16.542,0,29.956-13.211,29.956-29.49c0-16.313-13.414-29.508-29.956-29.508C393.836,859.992,380.425,873.188,380.425,889.5z
	 M537.341,889.5c0,16.279,13.411,29.49,29.982,29.49c16.542,0,29.956-13.211,29.956-29.49c0-16.313-13.414-29.508-29.956-29.508
	C550.752,859.992,537.341,873.188,537.341,889.5z M275.74,836.297c0,16.279,13.411,29.49,29.982,29.49
	c16.542,0,29.956-13.211,29.956-29.49c0-16.313-13.414-29.508-29.956-29.508C289.151,806.789,275.74,819.984,275.74,836.297z
	 M118.443,902.012c0,16.279,13.411,29.49,29.982,29.49c16.542,0,29.956-13.211,29.956-29.49c0-16.313-13.414-29.508-29.956-29.508
	C131.854,872.504,118.443,885.699,118.443,902.012z"/>
<path id="Inner_hair_cell_-_nucleus" fill="#FFFFFF" stroke="#FFFFFF" stroke-width="3" stroke-miterlimit="10" d="
	M1976.736,565.364c0,26.764-21.738,48.535-48.366,48.535c-26.645,0-48.416-21.771-48.416-48.535
	c0-26.611,21.771-48.246,48.416-48.246C1954.998,517.118,1976.736,538.752,1976.736,565.364z"/>
<path id="Outer_hair_cell_-_nuclei" fill="#FFFFFF" stroke="#FFFFFF" stroke-width="3" stroke-miterlimit="10" d="M1418.053,434.762
	c-19.142,0-34.854,15.715-34.854,34.993c0,19.434,15.713,35.133,34.854,35.133c19.426,0,35.13-15.7,35.13-35.133
	C1453.183,450.477,1437.479,434.762,1418.053,434.762z M1296.514,402.63c-19.323,0-35.192,15.868-35.192,35.332
	c0,19.619,15.87,35.476,35.192,35.476c19.626,0,35.479-15.856,35.479-35.476C1331.993,418.498,1316.14,402.63,1296.514,402.63z
	 M1169.764,365.108c-19.285,0-35.115,15.838-35.115,35.251c0,19.576,15.83,35.394,35.115,35.394
	c19.569,0,35.386-15.817,35.386-35.394C1205.148,380.946,1189.333,365.108,1169.764,365.108z"/>
<path id="Deiter_x2019_s_cells_-_nuclei" fill="#FFFFFF" stroke="#CCCCCC" stroke-width="3" stroke-miterlimit="10" d="
	M1199.961,585.496c-9.405-8.65-25.146-6.832-35.189,4.072c-10.031,10.917-10.563,26.764-1.166,35.393
	c9.397,8.688,25.162,6.87,35.191-4.055C1208.843,610.017,1209.357,594.139,1199.961,585.496z M1040.705,673.5
	c3.189-11.141-4.687-23.184-17.598-26.898c-12.942-3.713-26.006,2.31-29.188,13.439c-3.239,11.152,4.63,23.203,17.558,26.891
	C1024.403,690.67,1037.503,684.641,1040.705,673.5z M1271.968,686.634c2.783-9.719-4.068-20.2-15.328-23.436
	c-11.262-3.233-22.656,1.998-25.433,11.698c-2.8,9.707,4.046,20.218,15.319,23.445
	C1257.78,701.584,1269.189,696.337,1271.968,686.634z"/>
<path id="Hensen_cells_-_nuclei" fill="#FFFFFF" stroke="#CCCCCC" stroke-width="3" stroke-miterlimit="10" d="M944.837,631.987
	c3.207-11.146-4.667-23.168-17.596-26.9c-12.942-3.713-26.013,2.307-29.195,13.449c-3.239,11.133,4.646,23.18,17.569,26.889
	C928.535,649.157,941.64,643.139,944.837,631.987z M838.519,658.868c3.208-11.156-4.675-23.172-17.595-26.89
	c-12.926-3.721-26.013,2.285-29.205,13.438c-3.216,11.125,4.668,23.174,17.588,26.889
	C822.223,676.02,835.317,670.018,838.519,658.868z M950.634,383.395c3.19-11.148-4.682-23.182-17.596-26.9
	c-12.943-3.709-26.007,2.297-29.188,13.439c-3.24,11.133,4.628,23.191,17.56,26.893C934.332,400.553,947.433,394.54,950.634,383.395
	z M1037.124,501.901c3.188-11.144-4.676-23.168-17.607-26.888c-12.936-3.717-26.006,2.3-29.188,13.433
	c-3.232,11.147,4.646,23.203,17.565,26.897C1020.818,519.084,1033.911,513.051,1037.124,501.901z"/>
<path id="Inner_pillar_cells_-_nucleus" fill="#FFFFFF" stroke="#CCCCCC" stroke-width="3" stroke-miterlimit="10" d="
	M1824.696,747.111c3.523-12.266-5.151-25.535-19.386-29.633c-14.259-4.098-28.654,2.533-32.162,14.81
	c-3.565,12.281,5.102,25.562,19.343,29.636C1806.729,766.031,1821.164,759.412,1824.696,747.111z"/>
<path id="Outer_pillar_cells_-_nucleus" fill="#FFFFFF" stroke="#CCCCCC" stroke-width="3" stroke-miterlimit="10" d="
	M1421.626,676.375c3.515-12.275-5.146-25.533-19.402-29.639c-14.245-4.099-28.641,2.533-32.159,14.813
	c-3.551,12.293,5.099,25.562,19.366,29.619C1403.654,695.29,1418.092,688.667,1421.626,676.375z"/>
<path id="Outer_sulcus_-_nuclei" fill="#FFFFFF" stroke="#CCCCCC" stroke-width="3" stroke-miterlimit="10" d="M2717.452,620.771
	c6.228-6.426,5.229-17.47-2.22-24.702c-7.467-7.225-18.551-7.868-24.761-1.438c-6.245,6.404-5.248,17.469,2.205,24.686
	C2700.121,626.547,2711.229,627.205,2717.452,620.771z M2758.884,524.866c6.229-6.425,5.229-17.469-2.22-24.702
	c-7.466-7.224-18.55-7.868-24.76-1.438c-6.245,6.404-5.248,17.47,2.205,24.686C2741.553,530.642,2752.659,531.3,2758.884,524.866z
	 M2781.839,441.838c6.229-6.425,5.229-17.469-2.22-24.702c-7.466-7.224-18.55-7.868-24.76-1.437
	c-6.245,6.403-5.248,17.469,2.205,24.685C2764.508,447.614,2775.614,448.272,2781.839,441.838z M2777.23,355.065
	c6.229-6.424,5.229-17.469-2.22-24.701c-7.466-7.224-18.55-7.867-24.76-1.438c-6.245,6.404-5.248,17.469,2.205,24.685
	C2759.9,360.843,2771.007,361.5,2777.23,355.065z M2635.1,658.236c6.228-6.426,5.229-17.47-2.221-24.702
	c-7.466-7.225-18.55-7.868-24.76-1.438c-6.245,6.404-5.248,17.47,2.205,24.686C2617.768,664.011,2628.874,664.669,2635.1,658.236z
	 M2529.321,682.03c6.228-6.424,5.229-17.47-2.22-24.701c-7.467-7.225-18.551-7.868-24.761-1.438
	c-6.245,6.404-5.248,17.47,2.205,24.687C2511.99,687.806,2523.097,688.463,2529.321,682.03z M2420.563,705.463
	c6.228-6.424,5.229-17.469-2.221-24.701c-7.466-7.224-18.55-7.867-24.76-1.437c-6.245,6.403-5.248,17.469,2.205,24.685
	C2403.23,711.241,2414.337,711.898,2420.563,705.463z M2226.918,522.324c6.229-6.425,5.229-17.469-2.22-24.702
	c-7.466-7.223-18.55-7.867-24.761-1.437c-6.244,6.404-5.248,17.47,2.205,24.685C2209.587,528.1,2220.693,528.758,2226.918,522.324z
	 M2168.461,700.37c9.336-6.887,10.43-21.229,2.446-32.063c-7.992-10.825-22.02-14.016-31.338-7.127
	c-9.345,6.855-10.444,21.228-2.454,32.043C2145.076,704.051,2159.127,707.258,2168.461,700.37z M2273.122,694.768
	c3.19-11.157-4.672-23.182-17.606-26.901c-12.937-3.717-25.994,2.297-29.195,13.449c-3.213,11.145,4.641,23.192,17.584,26.896
	C2256.809,711.934,2269.908,705.92,2273.122,694.768z"/>
<path id="Claudius_cells_-_nuclei" fill="#FFFFFF" stroke="#CCCCCC" stroke-width="3" stroke-miterlimit="10" d="M729.037,543.694
	c3.189-11.143-4.687-23.186-17.598-26.9c-12.942-3.712-26.006,2.31-29.188,13.439c-3.239,11.152,4.63,23.203,17.557,26.892
	C712.735,560.863,725.836,554.833,729.037,543.694z M508.875,642.756c0,16.281,13.411,29.492,29.982,29.492
	c16.542,0,29.955-13.211,29.955-29.492c0-16.311-13.413-29.506-29.955-29.506C522.286,613.25,508.875,626.446,508.875,642.756z
	 M233.382,692.984c0,16.28,13.411,29.491,29.982,29.491c16.542,0,29.956-13.211,29.956-29.491c0-16.312-13.414-29.506-29.956-29.506
	C246.793,663.479,233.382,676.674,233.382,692.984z M380.425,673.412c0,16.281,13.411,29.492,29.982,29.492
	c16.542,0,29.956-13.211,29.956-29.492c0-16.312-13.414-29.506-29.956-29.506C393.836,643.906,380.425,657.101,380.425,673.412z"/>
<path id="Inner_phalangeal_cell_-_nuclei" fill="#FFFFFF" stroke="#CCCCCC" stroke-width="3" stroke-miterlimit="10" d="
	M2093.729,699.115c3.188-11.143-4.675-23.18-17.608-26.889c-12.932-3.715-25.994,2.289-29.195,13.432
	c-3.222,11.134,4.641,23.181,17.575,26.896C2077.413,716.279,2090.516,710.27,2093.729,699.115z"/>
<path id="Outer_phalangeal_cell_-_nuclei" fill="#FFFFFF" stroke="#CCCCCC" stroke-width="3" stroke-miterlimit="10" d="
	M1834.147,616.548c2.364-8.261-3.466-17.185-13.054-19.934c-9.588-2.754-19.271,1.697-21.645,9.958
	c-2.389,8.254,3.44,17.185,13.029,19.939C1822.052,629.272,1831.766,624.817,1834.147,616.548z"/>
</svg>
