<?xml version="1.0" encoding="utf-8"?>
<!-- Generator: Adobe Illustrator 16.0.0, SVG Export Plug-In . SVG Version: 6.00 Build 0)  -->
<!DOCTYPE svg PUBLIC "-//W3C//DTD SVG 1.1//EN" "http://www.w3.org/Graphics/SVG/1.1/DTD/svg11.dtd">
<svg version="1.1" id="dataset2_vestibule" class="dataset2" xmlns="http://www.w3.org/2000/svg" xmlns:xlink="http://www.w3.org/1999/xlink" x="0px" y="0px"
	 width="3462.346px" height="1695.17px" viewBox="0 0 3462.346 1695.17" enable-background="new 0 0 3462.346 1695.17"
	 xml:space="preserve">
<path id="Supporting_cells_-_body" class="anatomy_id_13" fill-rule="evenodd" clip-rule="evenodd" fill="#FFFFFF" stroke="#CCCCCC" stroke-width="3" stroke-miterlimit="10" d="
	M3174.699,954.869c4.612-9.227,43.135-0.443,50.648,5.822c7.518,6.258,38.667,96.334,38.667,96.334s-93.334,30.857-93.334,18.334
	S3172.196,959.881,3174.699,954.869L3174.699,954.869z M201.856,954.295c2.509,5.012-1.741,107.46-1.741,119.983
	c0,12.525-78.978,12.739-78.978,12.739s25.769-68.334,39.543-93.461c4.701-8.575,13.708-25.455,23.373-35.354L201.856,954.295z
	 M1690.309,597.395c6.063-12.119,50.762-15.031,58.276-11.269c7.53,3.747-15.03,80.829-24.44,109.031
	c-9.389,28.195,0,93.994,37.605,116.552c37.597,22.561,84.604,112.793,86.471,156.033c1.888,43.239,5.642,110.911-5.635,110.911
	s-155.284,16.247-155.284-8.18c0-24.343-2.829-82.37-2.829-133.443C1684.473,907.052,1691.533,594.947,1690.309,597.395
	L1690.309,597.395z M1867.026,588.006c15.045,0,48.874-1.88,48.874,13.15c0,15.037-26.313,86.479-30.067,101.516
	c-3.762,15.044-26.336-80.83-26.336-95.874C1859.497,591.752,1857.638,588.006,1867.026,588.006L1867.026,588.006z
	 M1808.743,588.006c0,0,35.73-7.529,39.478,0c3.775,7.522,16.926,107.151,22.566,124.062c5.636,16.925,5.636,78.957,1.881,88.359
	s-13.171-75.195-35.724-110.919C1814.392,653.798,1801.234,599.276,1808.743,588.006L1808.743,588.006z M1970.424,618.081
	c2.288-9.126,0-20.687,24.439-18.805c24.448,1.88,26.328,3.754,26.328,24.439c0,20.68,0,231.227-5.649,255.667
	c-5.641,24.44,5.649,176.711-31.955,186.114c-37.598,9.396-90.239,20.679-99.636,11.282c-9.402-9.395-7.528-139.12,7.517-159.799
	c15.044-20.687,48.873-39.479,73.32-47c24.44-7.516,39.479-33.837,33.837-77.069c-5.636-43.239-11.276-95.874-16.919-110.918
	C1976.072,666.955,1966.67,633.119,1970.424,618.081L1970.424,618.081z M2103.908,603.03c5.967,13.945-3.761,73.321-18.799,90.246
	c-15.038,16.918-35.723,41.345-35.723,78.956c0,37.598,1.88,93.987,26.327,124.063c24.434,30.089,35.717,56.403,31.956,97.769
	c-3.762,41.352-1.88,86.471-18.806,86.471c-16.919,0-90.239,7.522-88.352-13.148c1.873-20.694,18.799-73.322,18.799-114.688
	c0-41.352,18.798-310.182,15.03-328.982c-3.748-18.799-3.748-26.321,7.528-26.321S2098.273,589.872,2103.908,603.03L2103.908,603.03
	z M2214.827,597.395c12.978-2.876,28.201,0,30.075,9.403c1.887,9.396,9.41,58.27,0,80.837c-9.389,22.559-15.03,35.717-22.553,33.835
	c-7.522-1.873-28.202-24.433-24.44-58.276C2201.663,629.351,2197.909,601.156,2214.827,597.395L2214.827,597.395z M2190.387,676.351
	c0,0,9.396-58.27,1.888-67.672c-7.529-9.402-13.164-15.038-22.56-7.522c-9.41,7.522-15.037,16.925-11.291,39.485
	C2162.186,663.194,2169.715,681.993,2190.387,676.351L2190.387,676.351z M2314.469,873.741c0,0,1.889,65.798-5.642,105.277
	c-7.521,39.484-11.275,78.962-26.319,86.479c-15.038,7.515-124.084,28.187-124.084,3.754c0-24.435,22.567-172.957,39.485-186.107
	c16.918-13.163,7.522-5.642,15.037,7.516c7.523,13.164,28.202,31.963,48.881,28.201
	C2282.508,915.1,2305.08,905.696,2314.469,873.741L2314.469,873.741z M2301.306,619.955c8.477-10.579,50.761-9.396,52.648-3.761
	c1.874,5.649,16.911,45.127,11.276,65.799c-5.641,20.679-28.201,65.792-26.327,120.314c1.888,54.51,18.799,114.674,45.126,137.232
	c26.328,22.561,20.68,31.963,20.68,67.681c0,35.717,7.516,52.642-7.529,58.277c-15.03,5.634-31.949,9.396-56.389,9.396
	c-24.434,0-50.769,3.761-45.127-15.031c5.642-18.806,30.083-112.799,28.201-150.403c-1.873-37.591,3.769-88.358-1.873-129.704
	c-5.635-41.365-9.411-48.881-15.052-84.597C2301.306,659.433,2293.79,629.351,2301.306,619.955L2301.306,619.955z M2427.269,629.351
	c11.754-8.794,50.769-3.762,56.403,9.402c5.643,13.164,13.157,86.479,18.799,125.957c5.635,39.479,15.045,109.031,28.188,129.71
	c13.172,20.68,18.806,103.396,9.41,135.353c-9.41,31.956-18.799,47.007-33.844,47.007c-15.03,0-58.277,11.276-67.68,0
	c-9.402-11.282-5.635-62.038-3.761-88.365c1.888-26.314-1.874-26.314,7.522-39.479c9.396-13.15,50.754-47.927,53.582-65.792
	c2.814-17.858,10.336-48.874,10.336-48.874s-0.933-25.374-15.978-56.396c-15.044-31.016-53.575-76.149-58.283-86.479
	C2427.269,681.052,2415.992,637.82,2427.269,629.351L2427.269,629.351z M2538.817,1073.012c11.275-2.503,71.433,2.516,82.71-2.503
	c11.29-5.012,23.824-68.932,23.824-104.019c0-35.095,7.509-57.654,3.754-67.68c-3.754-10.025-5.012,22.553-30.081,20.05
	c-25.063-2.502-48.874-6.264-63.918-38.849c-15.038-32.592-26.308-72.691-20.051-112.799c6.265-40.101,7.509-58.893,7.509-81.459
	c0-22.56,2.516-38.855-15.024-43.861c-17.555-5.019-28.837-10.032-28.837-3.761c0,6.264,10.031,100.257,12.534,127.836
	c2.51,27.566,7.522,85.221,22.566,116.554c15.038,31.333,23.813,101.509,17.541,124.062
	C2545.08,1029.15,2527.54,1075.527,2538.817,1073.012L2538.817,1073.012z M2608.998,661.942c0,0,1.252,17.548,5.021,42.617
	c3.754,25.069,18.799,55.13,28.824,91.483c10.018,36.347,17.547,81.459,15.044,109.039c-2.517,27.564-8.781,126.571-15.044,142.866
	c-6.271,16.289-8.774,27.579,6.263,31.334c15.045,3.754,40.115,7.516,52.644-6.271c12.526-13.787,22.559-38.855,20.057-85.22
	c-2.51-46.371-13.786-97.748-23.818-124.076c-10.024-26.314-32.585-115.295-27.573-132.843c5.014-17.554,5.014-17.554,5.014-17.554
	S2622.792,661.942,2608.998,661.942L2608.998,661.942z M2684.194,727.112c0,0,1.258,66.422,13.793,102.768
	c12.528,36.339,25.063,82.717,26.32,105.276c1.252,22.56,5.006,124.068-1.258,135.353c-6.265,11.283,36.353,8.773,36.353-2.51
	c0-11.276-8.773-71.44-2.51-93.993c6.271-22.566,13.787-81.459,8.774-114.037c-5.02-32.592,1.251-53.9-6.265-65.184
	C2751.873,783.516,2692.967,732.118,2684.194,727.112L2684.194,727.112z M2771.931,802.307c-9.582-9.582,62.66,31.334,63.926,46.371
	c1.251,15.038,7.521,187.988,0,201.781c-7.523,13.778-61.415,25.068-65.177,15.038c-3.762-10.019-12.535-61.416-7.517-87.73
	c5.014-26.327,15.032-75.195,15.032-101.523C2778.195,849.93,2776.943,807.32,2771.931,802.307L2771.931,802.307z M2853.396,852.433
	c0,0,60.157,20.05,66.436,42.617c6.264,22.559,10.024,78.956,6.264,110.289c-3.768,31.327-5.02,61.408-21.309,61.408
	c-16.296,0-60.164,8.78-60.164-8.767c0-17.554,5.019-155.409,3.761-177.969C2847.132,857.452,2853.396,852.433,2853.396,852.433
	L2853.396,852.433z M2943.643,913.854c8.767-1.258,67.68,11.271,68.924,22.554c1.259,11.283-5.012,73.943-7.516,99.006
	c-2.509,25.063,6.271,35.095-8.772,37.598c-15.045,2.516-68.938,5.02-67.681-6.265c1.259-11.269,13.787-76.445,12.535-92.741
	c-1.258-16.29,1.252-40.101,1.252-51.384C2942.385,911.346,2934.862,915.1,2943.643,913.854L2943.643,913.854z M3026.359,936.408
	c0,0,62.66-3.762,65.178,10.025c2.502,13.778,6.263,38.849,3.746,67.672c-2.488,28.831,3.776,52.642-11.275,55.146
	c-15.037,2.51-66.421,8.78-68.931-2.504c-2.511-11.269-3.755-27.572-2.511-52.642
	C3013.825,989.05,3028.869,942.672,3026.359,936.408L3026.359,936.408z M3110.336,943.931c7.508,1.258,50.132-1.259,52.628,5.005
	c2.516,6.271,5.02,33.837,3.775,75.194c-1.26,41.367,7.508,48.882-13.794,51.397c-21.309,2.504-51.384,8.761-53.886-2.516
	c-2.517-11.283,0-111.542,5.012-122.817C3109.077,938.911,3102.813,942.672,3110.336,943.931L3110.336,943.931z M1686.52,597.817
	c5.688,11.372-3.316,232.394-3.881,280.698c-0.74,62.891-1.806,170.262-1.806,194.888c0,24.634-136.432,9.477-147.799,9.477
	c-11.365,0-7.578-68.213-5.682-111.802c1.896-43.567,49.26-134.521,87.166-157.266c37.895-22.73,47.368-89.043,37.895-117.461
	c-9.477-28.432-32.218-106.117-24.634-109.901C1635.357,582.654,1680.408,585.594,1686.52,597.817L1686.52,597.817z
	 M1508.397,588.339c9.481,0,7.579,3.791,7.579,18.955c0,15.156-22.731,111.788-26.522,96.625
	c-3.787-15.149-30.323-87.155-30.323-102.312C1459.13,586.45,1493.244,588.339,1508.397,588.339L1508.397,588.339z
	 M1567.149,588.339c7.578,11.374-5.69,66.32-28.424,102.325c-22.75,36-32.22,121.26-36.01,111.789
	c-3.787-9.469-3.787-71.998,1.896-89.057c5.689-17.045,18.944-117.468,22.742-125.057
	C1531.133,580.758,1567.149,588.339,1567.149,588.339L1567.149,588.339z M1404.185,618.659c3.787,15.157-5.684,49.261-11.366,64.425
	c-5.693,15.149-11.369,68.207-17.06,111.788c-5.683,43.58,9.48,70.104,34.107,77.685c24.645,7.583,58.742,26.53,73.899,47.372
	c15.163,20.836,17.059,151.585,7.585,161.057c-9.471,9.477-62.533-1.895-100.434-11.373
	c-37.888-9.478-26.522-162.951-32.205-187.579c-5.683-24.639-5.683-236.852-5.683-257.68c0-20.851,1.886-22.745,26.522-24.64
	C1404.185,597.817,1401.891,609.468,1404.185,618.659L1404.185,618.659z M1269.649,603.502c5.683-13.268,51.164-5.685,62.533-5.685
	c11.366,0,11.366,7.582,7.574,26.536c-3.787,18.941,15.157,289.889,15.157,331.576c0,41.686,17.058,94.735,18.944,115.585
	c1.902,20.837-71.996,13.262-89.054,13.262c-17.048,0-15.154-45.477-18.944-87.161c-3.787-41.686,7.578-68.209,32.215-98.527
	c24.626-30.313,26.529-87.162,26.529-125.065c0-37.88-20.846-62.52-36.002-79.573
	C1273.437,677.397,1263.628,617.538,1269.649,603.502L1269.649,603.502z M1157.847,597.817c17.06,3.791,13.268,32.208,17.06,66.312
	c3.787,34.104-17.06,56.849-24.637,58.745c-7.575,1.896-13.262-11.373-22.732-34.104c-9.48-22.739-1.901-72.005,0-81.476
	C1129.422,597.817,1144.768,594.918,1157.847,597.817L1157.847,597.817z M1182.484,677.397c20.846,5.687,28.42-13.268,32.211-35.999
	c3.788-22.739-1.895-32.209-11.366-39.791c-9.481-7.582-15.157-1.895-22.741,7.582
	C1173.01,618.659,1182.484,677.397,1182.484,677.397L1182.484,677.397z M1057.42,876.348c9.48,32.209,32.212,41.679,53.058,45.477
	c20.847,3.783,41.687-15.163,49.271-28.418c7.578-13.267-1.902-20.85,15.157-7.581c17.056,13.262,39.79,162.952,39.79,187.578
	c0,24.634-109.9,3.791-125.063-3.791c-15.154-7.574-18.943-47.365-26.522-87.162C1055.536,942.659,1057.42,876.348,1057.42,876.348
	L1057.42,876.348z M1070.689,620.548c7.578,9.477,0,39.804-5.684,75.803c-5.683,35.992-9.469,43.574-15.164,85.26
	c-5.682,41.679,0,92.842-1.895,130.735c-1.893,37.896,22.742,132.631,28.424,151.58c5.683,18.953-20.835,15.164-45.473,15.164
	c-24.634,0-41.693-3.792-56.849-9.479c-15.153-5.686-7.575-22.732-7.575-58.744c0-35.992-5.693-45.47,20.847-68.209
	c26.522-22.73,43.578-83.37,45.465-138.309c1.902-54.955-20.839-100.431-26.521-121.267c-5.683-20.843,9.463-60.634,11.365-66.319
	C1019.525,611.084,1062.152,609.887,1070.689,620.548L1070.689,620.548z M943.726,630.025c11.372,8.529,0,52.111-4.725,62.528
	c-4.742,10.432-43.588,55.901-58.745,87.162c-15.161,31.268-16.112,56.842-16.112,56.842s7.585,31.261,10.428,49.268
	c2.84,17.992,44.533,53.051,53.996,66.313c9.48,13.26,5.69,13.26,7.585,39.789c1.896,26.535,5.683,77.685-3.797,89.058
	c-9.463,11.365-53.051,0-68.212,0c-15.156,0-24.63-15.163-34.1-47.372c-9.481-32.209-3.791-115.587,9.47-136.43
	c13.262-20.836,22.742-90.938,28.424-130.729c5.683-39.79,13.261-113.684,18.944-126.952
	C892.566,626.242,931.89,621.147,943.726,630.025L943.726,630.025z M831.307,1077.194c11.369,2.522-6.314-44.207-12.638-66.94
	c-6.313-22.744,2.527-93.488,17.689-125.071c15.156-31.565,20.208-89.67,22.735-117.461c2.533-27.796,12.637-122.54,12.637-128.847
	c0-6.328-11.375-1.268-29.055,3.792c-17.683,5.044-15.157,21.462-15.157,44.208c0,22.738,1.261,41.685,7.578,82.104
	c6.314,40.416-5.052,80.848-20.215,113.684c-15.163,32.843-39.16,36.634-64.428,39.162c-25.264,2.529-26.529-30.319-30.316-20.208
	c-3.787,10.104,3.787,32.835,3.787,68.208c0,35.364,12.639,99.788,24.007,104.848
	C759.304,1079.717,819.935,1074.672,831.307,1077.194L831.307,1077.194z M760.565,662.875c-13.898,0-66.95,51.789-66.95,51.789
	s0,0,5.052,17.679c5.052,17.688-17.689,107.372-27.8,133.901c-10.104,26.528-21.47,78.312-23.996,125.058
	c-2.526,46.729,7.578,72.004,20.208,85.893c12.637,13.895,37.902,10.104,53.058,6.313c15.156-3.791,12.63-15.164,6.314-31.582
	c-6.314-16.417-12.627-116.206-15.153-143.997c-2.526-27.789,5.053-73.266,15.153-109.893
	c10.112-36.641,25.274-66.953,29.055-92.214C759.304,680.562,760.565,662.875,760.565,662.875L760.565,662.875z M684.769,728.56
	c-8.843,5.052-68.214,56.835-75.793,68.208c-7.584,11.366-1.265,32.836-6.324,65.686c-5.041,32.842,2.526,92.207,8.841,114.951
	c6.323,22.738-2.517,83.366-2.517,94.745c0,11.358,42.947,13.889,36.633,2.522c-6.317-11.366-2.525-113.684-1.265-136.429
	c1.265-22.738,13.892-69.47,26.522-106.11C683.504,795.513,684.769,728.56,684.769,728.56L684.769,728.56z M596.339,804.351
	c-5.052,5.044-6.317,47.998-6.317,74.521c0,26.535,10.105,75.789,15.157,102.324c5.059,26.522-3.787,78.313-7.567,88.417
	c-3.798,10.104-58.121-1.269-65.688-15.157c-7.585-13.888-1.265-188.211,0-203.375C533.184,835.923,606.004,794.685,596.339,804.351
	L596.339,804.351z M514.232,854.87c0,0,6.314,5.046,5.052,27.792c-1.264,22.744,3.788,161.684,3.788,179.376
	c0,17.679-44.212,8.843-60.637,8.843c-16.417,0-17.681-30.313-21.469-61.894c-3.798-31.583,0-88.432,6.313-111.162
	C453.596,875.087,514.232,854.87,514.232,854.87L514.232,854.87z M423.283,916.766c8.833,1.261,1.258-2.523,1.258,8.842
	c0,11.379,2.533,35.381,1.261,51.797c-1.261,16.418,11.366,82.104,12.637,93.477c1.261,11.366-53.058,8.836-68.221,6.313
	c-15.156-2.522-6.313-12.627-8.832-37.896c-2.534-25.26-8.851-88.422-7.586-99.787C355.062,928.138,414.43,915.505,423.283,916.766
	L423.283,916.766z M339.897,939.512c-2.526,6.313,12.638,53.044,13.902,78.312c1.262,25.261,0,41.685-2.525,53.058
	c-2.534,11.366-54.324,5.045-69.48,2.522c-15.16-2.522-8.847-26.523-11.373-55.58c-2.526-29.045,1.262-54.313,3.789-68.208
	C276.735,935.72,339.897,939.512,339.897,939.512L339.897,939.512z M255.266,947.092c7.578-1.268,1.265-5.06,6.316,6.314
	c5.053,11.357,7.579,112.416,5.053,123.788c-2.526,11.372-32.846,5.053-54.324,2.522c-21.469-2.522-12.63-10.104-13.892-51.79
	c-1.265-41.686,1.262-69.477,3.789-75.788C204.733,945.824,247.687,948.347,255.266,947.092L255.266,947.092z"/>
<path id="Capillaries" class="anatomy_id_" fill-rule="evenodd" clip-rule="evenodd" fill="#FFFFFF" stroke="#CCCCCC" stroke-width="0" stroke-miterlimit="10" d="
	M498.721,1142.566c31.359,0,56.78,21.453,56.78,47.91c0,26.461-25.421,47.91-56.78,47.91c-31.36,0-56.783-21.449-56.783-47.91
	C441.938,1164.02,467.361,1142.566,498.721,1142.566z M491.563,1157.867c-3.262,0.611-6.623,0.977-9.772,1.881
	c-17.571,5.049-28.027,21.705-23.666,37.693c4.713,17.281,25.49,31.215,49.266,22.842c12.81-4.514,21.495-12.34,24.328-24.314
	c1.472-6.217-0.211-8.992-6.972-11.645c-2.548-1.002-5.174-1.859-7.78-2.752c-4.968-1.707-8.882-4.471-11.133-8.666
	c-1.526-2.842-2.625-5.852-3.98-8.764C499.795,1159.729,497.129,1158.203,491.563,1157.867z M2867.729,1189.092
	c0,30.672-28.476,55.537-63.6,55.537s-63.599-24.865-63.599-55.537c0-30.674,28.475-55.539,63.599-55.539
	S2867.729,1158.418,2867.729,1189.092z M2842.518,1183.93c-0.775-3.041-1.233-6.172-2.379-9.107
	c-6.387-16.373-27.447-26.115-47.666-22.051c-21.854,4.391-39.472,23.752-28.886,45.904c5.707,11.936,15.604,20.029,30.748,22.668
	c7.863,1.369,11.371-0.197,14.726-6.498c1.267-2.375,2.35-4.82,3.48-7.248c2.158-4.629,5.652-8.275,10.958-10.373
	c3.595-1.422,7.4-2.445,11.084-3.709C2840.164,1191.598,2842.09,1189.113,2842.518,1183.93z M1894.112,1253.975
	c-26.519,22.764-69.149,23.076-95.214,0.701c-26.067-22.375-25.702-58.967,0.816-81.73c26.52-22.764,69.148-23.078,95.217-0.701
	C1920.996,1194.617,1920.631,1231.211,1894.112,1253.975z M1881.641,1236.643c2.101-2.813,4.52-5.486,6.243-8.457
	c9.627-16.58,2.259-37.688-16.672-47.771c-20.46-10.898-50.936-7.686-62.482,16.016c-6.22,12.771-5.863,25.357,3.292,37.221
	c4.752,6.158,8.8,7.254,16.913,4.658c3.06-0.975,6.043-2.127,9.046-3.232c5.73-2.105,11.603-2.596,17.481-0.732
	c3.983,1.262,7.775,2.965,11.686,4.402C1873.077,1240.928,1876.734,1240.297,1881.641,1236.643z M1053.825,1124.088
	c33.801,0,61.202,23.123,61.202,51.643s-27.401,51.641-61.202,51.641c-33.803,0-61.207-23.121-61.207-51.641
	S1020.022,1124.088,1053.825,1124.088z M1049.404,1138.609c-3.684,0.691-7.475,1.102-11.028,2.123
	c-19.828,5.697-31.625,24.49-26.704,42.531c5.318,19.498,28.763,35.219,55.589,25.771c14.453-5.092,24.253-13.922,27.448-27.436
	c1.661-7.014-0.24-10.145-7.866-13.137c-2.875-1.131-5.838-2.098-8.779-3.105c-5.606-1.928-10.018-5.045-12.56-9.777
	c-1.722-3.207-2.962-6.604-4.492-9.889C1058.689,1140.709,1055.682,1138.99,1049.404,1138.609z"/>
<path id="Mesenchyme_cells_-_body" class="anatomy_id_" fill="#FFFFFF" stroke="#CCCCCC" stroke-width="0" stroke-miterlimit="10" d="M3264.015,1056.923
	c0,0,127.294,292.665,45.333,291.017l-239.951-4.827c0,0-289.039-1.129-386.119-5.195s-447.287-1.211-471.111-5.195
	c-23.822-3.984-549.257-8.303-793.982-14.834c0,0-352.703-11.748-392.793-7.781c-40.089,3.967-295.205-2.975-377.333,2.746
	c0,0-374.692,8.668-416.63,7.904c-41.939-0.764-128.073,14.896-151.41-0.934c-45.892-31.129,9.686-194.733,41.12-240.106
	c106,0,100.636,1.514,150.498-2.082s102-0.1,144,0s64.465-4.021,118-7.676s108.166,37.979,130,25.775s46-13.756,72-11.878
	s52-11.878,98,0s79.387,7.468,109.193,0.173s111.807-1.051,131.807-0.173s81.474,9.749,114,8.878s1.045-13.41,52.022-8.705
	s117.685,11.294,138.978,0s88,12.201,171,13.953s124,8.248,194,0c70-8.248,202.354-15.26,222-21.248s77,22,99,14s174-9,202-16
	s159,17.332,222,11.166s146-8.166,188,5.834s60-17,108-15s100,6.59,121,7.295s109.865-3.963,177,1.871
	s152.781-16.237,183.494-27.393 M833.896,1085.067c27.396,72.8-1.431,88.731,38.799,225.399 M659.885,1094.23
	c-21.786,80.551,50.713,184.576,7.128,212.834 M1941.301,1326.892c3.766-59.949,42.641-149.642,55.047-243.175 M1793.004,1251.564
	c-5.75,30.635-8.163,50.984-9.698,73.023 M1894.2,1084.92c-1.566,5.975,5.784,79.52-7.54,84.775 M1721.393,1100.281
	c-3.043,38.906,6.529,199.969-4.027,223.314 M1619.376,1322.021c0,0-18.402-47.833-1.811-111.364
	c16.627-63.553,28.855-109.109,28.855-109.109 M1548.328,1320.754c0,0-33.47-89.361-25.896-142.514
	c7.543-53.174,28.203-80.258,28.203-80.258 M1429.31,1318.178c10.571-63.541,30.621-229.238,30.621-229.238 M487.733,1241.379
	c-3.011,52.053-8.739,35.396-10.274,67.006 M533.635,1069.959c-3.011,40.865-6.294,55.402-7.829,80.219 M335.811,1076.094
	c-3.043,54.027,4.169,212.125-6.387,244.545 M202.261,1081.004c0,0-10.677,55.963-17.715,237.295 M3116.865,1086.718
	c-1.49,36.322-29.779,252.056-29.779,252.056 M1274.444,1087.071c0,0,38.258,185.384-0.119,226.452 M1126.68,1304.006
	c-0.069-69.736,54.185-211.233,54.185-211.233 M1033.021,1305.313c-10.574-46.211-19.976-22.164-3.356-75.324 M1076.752,1130.096
	c2.742-22.117,7.438-36.396,5.987-42.975 M949.948,1304.006c0,0,16.381-173.568,23.941-228.021 M3179.035,1080.316
	c-3.01,36.293-12.953,235.965-14.488,258.002 M2965.242,1336.197c0,0-6.115-36.783,10.477-100.314
	c16.627-63.555,71.887-152.133,71.887-152.133 M2874.359,1336.857c0,0-1.348-80.24,6.227-133.391
	c6.625-46.711,53.234-100.603,64.361-115.525 M2780.982,1335.59c0,0-26.797-29.1-18.643-55.891
	c2.633-8.645,4.957-40.191,4.957-40.191 M2707.697,1093.479c13.781,65.723-8.008,77.871-11.424,159.246
	c-1.486,36.322-5.639,80.688-5.639,80.688 M2612.83,1336.353c10.586-51.859,31.967-240.821,31.967-240.821 M2531.889,1335.691
	c-4.531-130.963,32.985-254.326,32.985-254.326 M2427.188,1335.59c-21.143-75.201,15.881-195.563,32.5-248.724 M2308.1,1329.232
	c0,0-7.559-200.184,0-254.635 M2208.402,1329.232c0,0-15.342-209.176-13.836-245.482 M2024.227,1321.879
	c18.131-59.639,42.594-224.666,55.631-238.129 M2827.008,1139.51l23.637-51.568 M1844.85,1154.414
	c-38.564,0-69.828,25.98-69.828,58.031c0,32.049,31.264,58.029,69.828,58.029c38.563,0,69.824-25.98,69.824-58.029
	C1914.674,1180.395,1883.412,1154.414,1844.85,1154.414z M2801.285,1132.721c-36.855,0-66.734,24.83-66.734,55.461
	c0,30.629,29.879,55.459,66.734,55.459s66.732-24.83,66.732-55.459C2868.018,1157.551,2838.141,1132.721,2801.285,1132.721z
	 M1056.428,1121.813c-33.587,0-60.815,22.627-60.815,50.541s27.228,50.541,60.815,50.541c33.586,0,60.814-22.627,60.814-50.541
	S1090.015,1121.813,1056.428,1121.813z M498.011,1136.797c-33.512,0-60.678,22.184-60.678,49.549s27.166,49.549,60.678,49.549
	c33.51,0,60.676-22.184,60.676-49.549S531.521,1136.797,498.011,1136.797z M26.217,1650.246"/>
<path id="Hair_cell_-_body" class="anatomy_id_14" fill-rule="evenodd" clip-rule="evenodd" fill="#FFFFFF" stroke="#CCCCCC" stroke-width="3" stroke-miterlimit="10" d="
	M753.514,904.012c-20.465-2.51-33.242-33.818-26.846-58.868c6.381-25.034,10.221-52.594,28.121-86.404
	c17.899-33.818,19.225-80.035,19.225-91.305c0-11.266,35.75-12.636,37.022-3.876c1.282,8.769,12.781,75.143,14.067,111.463
	c1.283,36.315,2.561,82.654-21.735,105.195C779.088,902.756,773.974,906.514,753.514,904.012L753.514,904.012z M942.614,911.951
	c-30.688,1.883-46.038-33.811-53.706-75.139c-7.659-41.319,44.117-114.595,55.621-139.014
	c11.502-24.414,15.339-54.468,13.425-65.738c-1.923-11.277,33.813-20.338,42.184-9.399c5.758,7.513-3.839,58.237-3.839,84.542
	c0,26.297,3.839,63.855,0,127.736C992.471,898.807,972.879,910.096,942.614,911.951L942.614,911.951z M1108.999,909.43
	c-21.092,1.875-42.192-30.055-49.863-54.473c-7.668-24.422-11.502-82.658,5.749-123.99c17.273-41.324,19.187-105.188,19.187-118.344
	c0-13.149,15.331-13.149,26.854-11.267c11.499,1.886,7.664-13.152,5.75,30.058c-1.922,43.205,11.495,77.02,19.177,90.168
	c7.668,13.148,5.751,5.636,9.59,48.842c3.827,43.197,9.581,61.989,15.33,92.039C1166.525,892.52,1130.092,907.555,1108.999,909.43
	L1108.999,909.43z M1215.26,903.616c-19.183,1.875-42.196-60.11-47.937-105.19c-5.758-45.085,30.677-93.922,38.351-107.078
	c7.672-13.152,9.586-69.508,11.504-78.891c1.913-9.408,11.498-7.521,24.936-5.646c13.417,1.881,11.504,15.029,11.504,15.029
	c0,16.906,5.748,61.994,5.748,84.534c0,22.548,36.435,69.503,30.681,116.462C1284.298,869.803,1234.438,901.738,1215.26,903.616
	L1215.26,903.616z M1452.492,860.201c-38.363,1.879-72.876-28.174-69.041-67.628c3.84-39.445,21.088-93.917,23.014-122.101
	c1.911-28.172-9.589-71.377,1.911-71.377c11.511,0,28.767-3.766,36.433,3.752c0,0,26.857,144.646,36.447,157.793
	C1490.845,773.789,1490.845,858.323,1452.492,860.201L1452.492,860.201z M1546.903,838.277
	c-99.722,26.297-1.91-159.672,5.761-169.064c7.668-9.395,19.179-73.263,17.246-82.658c-1.907-9.384,19.188-5.627,26.848-1.879
	c9.246,4.535,32.604,82.66,36.442,110.838C1637.037,723.697,1646.634,811.973,1546.903,838.277L1546.903,838.277z M2615.665,894.067
	c-20.449,2.502-25.56-1.255-49.868-23.804c-24.287-22.539-23.005-68.871-21.73-105.191c1.286-36.316,1.464-108.403,2.747-117.164
	c1.286-8.768,50.309-1.551,50.309,9.724c0,11.267-0.636,57.353,17.26,91.159c17.904,33.814,21.731,61.361,28.133,86.412
	C2648.898,860.249,2636.113,891.549,2615.665,894.067L2615.665,894.067z M2422.168,901.998
	c-30.26-1.846-49.865-13.144-53.704-77.012c-3.827-63.871,0-101.443,0-127.739c0-26.293-5.351-74.444,0.399-81.953
	c8.373-10.946,47.779-3.595,45.873,7.683c-1.922,11.271-5.998,40.457,5.513,64.883c11.496,24.418,63.283,97.682,55.612,139.002
	C2468.195,868.188,2452.855,903.881,2422.168,901.998L2422.168,901.998z M2262.882,902.33c-21.097-1.87-57.534-16.896-51.772-46.963
	c5.749-30.045,11.494-48.828,15.322-92.039c3.844-43.206,1.934-35.685,9.604-48.836c7.668-13.152,21.085-46.972,19.166-90.17
	c-1.908-43.205-5.749-28.178,5.763-30.049c11.511-1.887,26.845-1.887,26.845,11.262s1.922,77.012,19.178,118.344
	c17.261,41.332,13.433,99.561,5.751,123.982C2305.069,872.281,2283.982,904.213,2262.882,902.33L2262.882,902.33z M2155.382,898.068
	c-19.175-1.879-69.041-33.818-74.79-80.77c-5.746-46.967,30.688-93.924,30.688-116.473s5.75-67.625,5.75-84.525
	c0,0-1.923-13.157,11.511-15.039c13.412-1.875,23.002-3.753,24.923,5.643c1.918,9.396,3.84,65.738,11.511,78.895
	c7.668,13.152,44.118,61.986,38.345,107.074C2197.582,837.953,2174.563,899.943,2155.382,898.068L2155.382,898.068z
	 M1913.761,856.744c-38.367-1.885-38.367-86.412-28.767-99.561c9.578-13.147,36.424-157.797,36.424-157.797
	c7.683-7.521,24.942-3.756,36.449-3.756c11.498,0,0,43.213,1.91,71.381c1.917,28.18,19.174,82.659,23.002,122.104
	C1986.639,828.57,1952.106,858.619,1913.761,856.744L1913.761,856.744z M1817.871,834.201
	c-99.734-26.297-90.129-114.588-86.302-142.767c3.839-28.175,27.192-106.308,36.436-110.831c7.671-3.753,28.771-7.514,26.86,1.875
	c-1.934,9.388,9.577,73.259,17.244,82.65C1819.78,674.521,1917.589,860.494,1817.871,834.201L1817.871,834.201z"/>
<path id="Hair_cell_-_stereocilia" class="anatomy_id_14" fill="#FFFFFF" stroke="#CCCCCC" d="M804.282,661.887c0,0,1.16-155.399,6.594-147.065s0,152.613,0,152.613
	L804.282,661.887z M801.576,660.766c0,0,6.881-164.78,2.706-175.529s-8.42,174.125-8.42,174.125L801.576,660.766z M793.096,659.116
	c0,0,9.851-214.294,2.765-215.627s-6.753,213.333-6.753,213.333L793.096,659.116z M789.106,659.116c0,0,4.331-257.623,0-260.956
	s-4.849,261.214-3.59,262.605S789.106,659.116,789.106,659.116z M1115.83,607.358c0,0,5.434-144.279,0-152.613
	s-6.594,147.065-6.594,147.065L1115.83,607.358z M1106.53,600.689c0,0,6.881-164.78,2.706-175.529s-8.42,174.125-8.42,174.125
	L1106.53,600.689z M1098.051,599.04c0,0,9.851-214.294,2.765-215.627s-6.753,213.333-6.753,213.333L1098.051,599.04z
	 M1094.061,599.04c0,0,4.331-257.623,0-260.956s-4.849,261.214-3.59,262.605S1094.061,599.04,1094.061,599.04z M1437.83,604.206
	c0,0,5.434-144.279,0-152.613s-6.594,147.065-6.594,147.065L1437.83,604.206z M1428.53,597.537c0,0,6.881-164.78,2.706-175.529
	s-8.42,174.125-8.42,174.125L1428.53,597.537z M1420.051,595.888c0,0,9.851-214.294,2.765-215.627s-6.753,213.333-6.753,213.333
	L1420.051,595.888z M1416.061,595.888c0,0,4.331-257.623,0-260.956s-4.849,261.214-3.59,262.605S1416.061,595.888,1416.061,595.888z
	 M1770.863,580.84c0,0-1.16-155.399-6.594-147.065s0,152.613,0,152.613L1770.863,580.84z M1779.283,578.316
	c0,0-4.244-184.875-8.42-174.125s2.707,175.529,2.707,175.529L1779.283,578.316z M1786.037,575.776c0,0,0.332-214.666-6.754-213.333
	s2.766,215.627,2.766,215.627L1786.037,575.776z M1789.629,579.719c1.26-1.392,0.74-265.939-3.59-262.605s0,260.956,0,260.956
	S1788.369,581.111,1789.629,579.719z M1932.305,599.45c0,0-1.16-155.399-6.594-147.065s0,152.613,0,152.613L1932.305,599.45z
	 M1940.727,596.926c0,0-4.246-184.875-8.422-174.125c-4.174,10.749,2.707,175.529,2.707,175.529L1940.727,596.926z
	 M1947.479,594.386c0,0,0.334-214.666-6.752-213.333s2.764,215.627,2.764,215.627L1947.479,594.386z M1951.07,598.329
	c1.26-1.392,0.742-265.939-3.59-262.605c-4.33,3.333,0,260.956,0,260.956S1949.813,599.721,1951.07,598.329z M2126.873,602.36
	c0,0-1.16-155.399-6.594-147.065s0,152.613,0,152.613L2126.873,602.36z M2135.293,599.836c0,0-4.244-184.875-8.42-174.125
	s2.707,175.529,2.707,175.529L2135.293,599.836z M2142.047,597.296c0,0,0.332-214.666-6.754-213.333s2.766,215.627,2.766,215.627
	L2142.047,597.296z M2145.639,601.239c1.26-1.392,0.74-265.939-3.59-262.605s0,260.956,0,260.956S2144.379,602.631,2145.639,601.239
	z M2555.396,646.215c0,0-1.16-155.399-6.594-147.065s0,152.613,0,152.613L2555.396,646.215z M2563.815,643.69
	c0,0-4.244-184.875-8.42-174.125s2.707,175.529,2.707,175.529L2563.815,643.69z M2570.569,641.15c0,0,0.332-214.666-6.754-213.333
	s2.766,215.627,2.766,215.627L2570.569,641.15z M2574.161,645.094c1.26-1.392,0.74-265.939-3.59-262.605s0,260.956,0,260.956
	S2572.901,646.485,2574.161,645.094z M2377.975,614.746c0,0-1.16-155.399-6.594-147.065s0,152.613,0,152.613L2377.975,614.746z
	 M2386.396,612.222c0,0-4.246-184.875-8.422-174.125c-4.174,10.749,2.707,175.529,2.707,175.529L2386.396,612.222z
	 M2393.148,609.682c0,0,0.334-214.666-6.752-213.333s2.764,215.627,2.764,215.627L2393.148,609.682z M2396.74,613.625
	c1.26-1.392,0.742-265.939-3.59-262.605c-4.33,3.333,0,260.956,0,260.956S2395.482,615.017,2396.74,613.625z M2262.704,594.902
	c0,0-1.16-155.399-6.594-147.065s0,152.613,0,152.613L2262.704,594.902z M2271.124,592.378c0,0-4.244-184.875-8.42-174.125
	s2.707,175.529,2.707,175.529L2271.124,592.378z M2277.878,589.838c0,0,0.332-214.666-6.754-213.333s2.766,215.627,2.766,215.627
	L2277.878,589.838z M2281.47,593.781c1.26-1.392,0.74-265.939-3.59-262.605s0,260.956,0,260.956S2280.21,595.173,2281.47,593.781z
	 M1597.21,589.074c0,0,5.434-144.279,0-152.613s-6.594,147.065-6.594,147.065L1597.21,589.074z M1587.91,582.405
	c0,0,6.882-164.78,2.707-175.529c-4.176-10.749-8.421,174.125-8.421,174.125L1587.91,582.405z M1579.431,580.756
	c0,0,9.851-214.294,2.765-215.627s-6.753,213.333-6.753,213.333L1579.431,580.756z M1575.441,580.756c0,0,4.33-257.623,0-260.956
	c-4.331-3.333-4.85,261.214-3.59,262.605C1573.11,583.797,1575.441,580.756,1575.441,580.756z M1249.458,615.178
	c0,0,5.434-144.279,0-152.613s-6.594,147.065-6.594,147.065L1249.458,615.178z M1240.157,608.509c0,0,6.882-164.78,2.707-175.529
	c-4.176-10.749-8.421,174.125-8.421,174.125L1240.157,608.509z M1231.679,606.859c0,0,9.851-214.294,2.765-215.627
	s-6.753,213.333-6.753,213.333L1231.679,606.859z M1227.688,606.859c0,0,4.33-257.623,0-260.956
	c-4.331-3.333-4.85,261.214-3.59,262.605C1225.357,609.9,1227.688,606.859,1227.688,606.859z M1004.393,625.29
	c0,0,5.434-144.279,0-152.613s-6.594,147.065-6.594,147.065L1004.393,625.29z M995.092,618.621c0,0,6.882-164.78,2.707-175.529
	c-4.176-10.749-8.421,174.125-8.421,174.125L995.092,618.621z M986.613,616.972c0,0,9.851-214.294,2.765-215.627
	s-6.753,213.333-6.753,213.333L986.613,616.972z M982.623,616.972c0,0,4.33-257.623,0-260.956
	c-4.331-3.333-4.85,261.214-3.59,262.605C980.292,620.013,982.623,616.972,982.623,616.972z"/>
<path id="Supporting_cells_-_nuclei" fill-rule="evenodd" clip-rule="evenodd" fill="#FFFFFF" stroke="#CCCCCC" stroke-width="3" stroke-miterlimit="10" d="
	M1587.587,955.85c21.053,0,38.132,19.762,38.132,44.133c0,24.363-17.079,44.127-38.132,44.127
	c-21.068,0-38.132-19.764-38.132-44.127C1549.456,975.611,1566.519,955.85,1587.587,955.85L1587.587,955.85z M1431.636,942.577
	c20.505,0,37.125,20.658,37.125,46.139s-16.62,46.135-37.125,46.135c-20.507,0-37.125-20.654-37.125-46.135
	S1411.129,942.577,1431.636,942.577L1431.636,942.577z M1306.201,964.646c16.625,0,30.101,15.721,30.101,35.107
	s-13.476,35.104-30.101,35.104c-16.632,0-30.113-15.717-30.113-35.104S1289.569,964.646,1306.201,964.646L1306.201,964.646z
	 M1136.608,968.665c16.077,0,29.091,14.814,29.091,33.092c0,18.275-13.014,33.1-29.091,33.1c-16.071,0-29.106-14.824-29.106-33.1
	C1107.502,983.479,1120.537,968.665,1136.608,968.665L1136.608,968.665z M999.071,989.688c15.242,0,27.6,15.059,27.6,33.623
	c0,18.557-12.358,33.611-27.6,33.611c-15.247,0-27.598-15.055-27.598-33.611C971.473,1004.747,983.824,989.688,999.071,989.688
	L999.071,989.688z M778.354,956.63c15.524,0,28.104,15.256,28.104,34.094c0,18.832-12.579,34.096-28.104,34.096
	c-15.517,0-28.102-15.264-28.102-34.096C750.252,971.886,762.837,956.63,778.354,956.63L778.354,956.63z M880.716,936.571
	c16.621,0,30.104,17.963,30.104,40.113c0,22.152-13.483,40.115-30.104,40.115c-16.626,0-30.109-17.963-30.109-40.115
	C850.606,954.534,864.09,936.571,880.716,936.571L880.716,936.571z M690.051,982.706c12.194,0,22.07,14.371,22.07,32.09
	c0,17.723-9.876,32.09-22.07,32.09c-12.188,0-22.078-14.367-22.078-32.09C667.973,997.077,677.862,982.706,690.051,982.706
	L690.051,982.706z M569.631,968.665c13.304,0,24.083,14.369,24.083,32.09c0,17.719-10.779,32.09-24.083,32.09
	c-13.302,0-24.083-14.371-24.083-32.09C545.548,983.034,556.329,968.665,569.631,968.665L569.631,968.665z M484.337,966.653
	c13.846,0,25.089,13.922,25.089,31.092c0,17.168-11.243,31.09-25.089,31.09c-13.86,0-25.093-13.922-25.093-31.09
	C459.244,980.575,470.477,966.653,484.337,966.653L484.337,966.653z M401.045,992.733c11.085,0,20.067,11.676,20.067,26.07
	c0,14.404-8.982,26.08-20.067,26.08c-11.08,0-20.073-11.676-20.073-26.08C380.972,1004.409,389.965,992.733,401.045,992.733
	L401.045,992.733z M322.774,1006.769c12.186,0,22.067,11.232,22.067,25.074c0,13.852-9.882,25.08-22.067,25.08
	c-12.202,0-22.078-11.229-22.078-25.08C300.696,1018.001,310.572,1006.769,322.774,1006.769L322.774,1006.769z M239.482,1004.765
	c11.635,0,21.071,11.672,21.071,26.072c0,14.398-9.437,26.086-21.071,26.086c-11.639,0-21.071-11.688-21.071-26.086
	C218.411,1016.437,227.844,1004.765,239.482,1004.765L239.482,1004.765z M170.564,1007.749c10.003,0,18.117,9.578,18.117,21.395
	c0,11.821-8.114,21.399-18.117,21.399c-10.005,0-18.123-9.578-18.123-21.399C152.441,1017.327,160.559,1007.749,170.564,1007.749
	L170.564,1007.749z M1779.478,955.852c21.06,0,38.15,19.75,38.15,44.129c0,24.367-17.091,44.129-38.15,44.129
	c-21.057,0-38.119-19.762-38.119-44.129C1741.358,975.602,1758.421,955.852,1779.478,955.852L1779.478,955.852z M1942.764,925.144
	c20.506,0,37.13,20.654,37.13,46.135c0,25.475-16.624,46.137-37.13,46.137c-20.504,0-37.128-20.662-37.128-46.137
	C1905.636,945.798,1922.26,925.144,1942.764,925.144L1942.764,925.144z M2068.195,947.21c16.637,0,30.109,15.723,30.109,35.109
	c0,19.383-13.473,35.1-30.109,35.1c-16.616,0-30.104-15.717-30.104-35.1C2038.091,962.933,2051.579,947.21,2068.195,947.21
	L2068.195,947.21z M2203.138,968.919c16.068,0,29.096,14.822,29.096,33.096s-13.027,33.1-29.096,33.1
	c-16.071,0-29.103-14.826-29.103-33.1S2187.066,968.919,2203.138,968.919L2203.138,968.919z M2356.022,1000.867
	c8.751,0,15.841,8.645,15.841,19.3c0,10.652-7.09,19.292-15.841,19.292c-8.744,0-15.842-8.64-15.842-19.292
	C2340.181,1009.512,2347.278,1000.867,2356.022,1000.867L2356.022,1000.867z M2596.044,939.181
	c15.516,0,28.088,15.271,28.088,34.105c0,18.828-12.572,34.098-28.088,34.098c-15.517,0-28.104-15.27-28.104-34.098
	C2567.94,954.452,2580.527,939.181,2596.044,939.181L2596.044,939.181z M2493.686,919.134c16.621,0,30.098,17.963,30.098,40.111
	c0,22.158-13.477,40.121-30.098,40.121c-16.637,0-30.104-17.963-30.104-40.121C2463.581,937.097,2477.049,919.134,2493.686,919.134
	L2493.686,919.134z M2684.35,965.272c12.186,0,22.067,14.363,22.067,32.082c0,17.725-9.882,32.098-22.067,32.098
	c-12.2,0-22.078-14.373-22.078-32.098C2662.271,979.636,2672.149,965.272,2684.35,965.272L2684.35,965.272z M2804.766,951.224
	c13.307,0,24.086,14.375,24.086,32.09c0,17.729-10.779,32.098-24.086,32.098c-13.303,0-24.083-14.369-24.083-32.098
	C2780.683,965.599,2791.463,951.224,2804.766,951.224L2804.766,951.224z M2890.061,949.22c13.859,0,25.094,13.92,25.094,31.092
	c0,17.168-11.234,31.086-25.094,31.086s-25.089-13.918-25.089-31.086C2864.972,963.14,2876.201,949.22,2890.061,949.22
	L2890.061,949.22z M2973.352,975.294c11.081,0,20.078,11.67,20.078,26.076c0,14.404-8.997,26.068-20.078,26.068
	s-20.063-11.664-20.063-26.068C2953.289,986.964,2962.271,975.294,2973.352,975.294L2973.352,975.294z M3051.627,989.335
	c12.188,0,22.078,11.23,22.078,25.07c0,13.855-9.89,25.074-22.078,25.074c-12.186,0-22.079-11.219-22.079-25.074
	C3029.548,1000.565,3039.441,989.335,3051.627,989.335L3051.627,989.335z M3134.917,987.327c11.646,0,21.068,11.676,21.068,26.072
	c0,14.402-9.423,26.08-21.068,26.08c-11.637,0-21.073-11.678-21.073-26.08C3113.844,999.003,3123.28,987.327,3134.917,987.327
	L3134.917,987.327z M3214.202,985.325c12.187,0,22.066,11.666,22.066,26.072c0,14.4-9.88,26.08-22.066,26.08
	c-12.189,0-22.083-11.68-22.083-26.08C3192.119,996.991,3202.013,985.325,3214.202,985.325L3214.202,985.325z"/>
<path id="Mesenchyme_cells_-_nuclei" fill-rule="evenodd" clip-rule="evenodd" fill="#FFFFFF" stroke="#CCCCCC" stroke-width="0" stroke-miterlimit="10" d="
	M1103.111,1261.662c3.717-11.141-5.458-23.184-20.501-26.9c-15.077-3.711-30.294,2.311-34.001,13.439
	c-3.775,11.152,5.394,23.205,20.453,26.893C1084.12,1278.832,1099.383,1272.801,1103.111,1261.662z M922.863,1162
	c3.716-11.143-5.459-23.186-20.501-26.9c-15.078-3.711-30.294,2.309-34.002,13.439c-3.774,11.152,5.393,23.205,20.454,26.893
	C903.872,1179.17,919.133,1173.139,922.863,1162z M785.62,1225.639c3.717-11.141-5.458-23.184-20.501-26.9
	c-15.078-3.711-30.294,2.311-34.002,13.439c-3.774,11.154,5.394,23.205,20.454,26.893
	C766.628,1242.809,781.89,1236.777,785.62,1225.639z M1407.156,1227.081c3.717-11.143-5.458-23.186-20.5-26.9
	c-15.078-3.713-30.295,2.309-34.003,13.439c-3.773,11.152,5.394,23.203,20.454,26.891
	C1388.166,1244.249,1403.427,1238.22,1407.156,1227.081z M1600.223,1224.277c3.735-11.145-5.437-23.17-20.499-26.902
	c-15.078-3.711-30.304,2.309-34.011,13.451c-3.775,11.133,5.411,23.18,20.467,26.889
	C1581.232,1241.447,1596.498,1235.43,1600.223,1224.277z M1689.678,1250.607c9.401-8.326,7.896-22.641-3.352-32.016
	c-11.272-9.363-28.008-10.197-37.386-1.861c-9.429,8.301-7.923,22.641,3.332,31.992
	C1663.508,1258.094,1680.278,1258.945,1689.678,1250.607z M1999.334,1298.012c9.404-8.326,7.896-22.641-3.351-32.016
	c-11.273-9.361-28.007-10.195-37.385-1.861c-9.429,8.301-7.924,22.641,3.331,31.994
	C1973.167,1305.498,1989.938,1306.35,1999.334,1298.012z M2116.438,1259.971c9.402-8.326,7.896-22.641-3.352-32.014
	c-11.272-9.363-28.008-10.197-37.386-1.863c-9.428,8.301-7.923,22.641,3.331,31.994
	C2090.271,1267.457,2107.04,1268.309,2116.438,1259.971z M2277.975,1273.375c9.404-8.326,7.896-22.641-3.353-32.016
	c-11.271-9.363-28.007-10.197-37.384-1.861c-9.43,8.301-7.922,22.641,3.331,31.992
	C2251.808,1280.861,2268.576,1281.713,2277.975,1273.375z M2375.223,1288.195c9.402-8.326,7.896-22.641-3.353-32.016
	c-11.273-9.361-28.008-10.197-37.385-1.861c-9.43,8.301-7.924,22.641,3.331,31.992
	C2349.054,1295.682,2365.824,1296.533,2375.223,1288.195z M2499.924,1282.179c9.402-8.326,7.896-22.641-3.353-32.014
	c-11.271-9.363-28.007-10.197-37.384-1.863c-9.43,8.301-7.923,22.641,3.331,31.994
	C2473.757,1289.665,2490.525,1290.519,2499.924,1282.179z M2591.986,1305.08c9.403-8.326,7.896-22.641-3.352-32.016
	c-11.271-9.363-28.007-10.197-37.384-1.863c-9.431,8.303-7.923,22.643,3.33,31.994
	C2565.817,1312.566,2582.589,1313.418,2591.986,1305.08z M2698.389,1163.71c9.402-8.326,7.896-22.641-3.352-32.016
	c-11.272-9.363-28.009-10.197-37.386-1.861c-9.429,8.301-7.922,22.641,3.331,31.992
	C2672.22,1171.194,2688.989,1172.048,2698.389,1163.71z M2749.104,1280.938c9.402-8.326,7.895-22.641-3.354-32.014
	c-11.272-9.363-28.007-10.197-37.384-1.863c-9.429,8.301-7.923,22.641,3.331,31.994
	C2722.935,1288.424,2739.705,1289.277,2749.104,1280.938z M2853.596,1300.666c9.403-8.326,7.895-22.641-3.353-32.016
	c-11.272-9.361-28.007-10.195-37.384-1.861c-9.429,8.301-7.925,22.641,3.33,31.994
	C2827.428,1308.152,2844.197,1309.004,2853.596,1300.666z M2957.876,1261.058c9.402-8.326,7.895-22.641-3.352-32.016
	c-11.272-9.361-28.008-10.195-37.387-1.861c-9.428,8.301-7.922,22.641,3.333,31.992
	C2931.707,1268.544,2948.478,1269.396,2957.876,1261.058z M3044.807,1310.876c9.404-8.326,7.896-22.641-3.352-32.016
	c-11.272-9.363-28.007-10.197-37.384-1.861c-9.43,8.301-7.924,22.641,3.33,31.992
	C3018.639,1318.362,3035.409,1319.214,3044.807,1310.876z M3153.483,1254.837c9.402-8.326,7.896-22.641-3.352-32.016
	c-11.271-9.361-28.007-10.197-37.385-1.861c-9.429,8.301-7.924,22.641,3.331,31.992
	C3127.316,1262.323,3144.085,1263.175,3153.483,1254.837z M3275.59,1288.195c9.403-8.326,7.895-22.641-3.354-32.016
	c-11.271-9.361-28.007-10.197-37.383-1.861c-9.431,8.301-7.923,22.641,3.33,31.992
	C3249.421,1295.682,3266.191,1296.533,3275.59,1288.195z M372.079,1242.43c0,16.279,15.623,29.49,34.929,29.49
	c19.271,0,34.897-13.211,34.897-29.49c0-16.313-15.626-29.508-34.897-29.508C387.702,1212.922,372.079,1226.117,372.079,1242.43z
	 M554.883,1242.43c0,16.279,15.624,29.49,34.929,29.49c19.271,0,34.898-13.211,34.898-29.49c0-16.313-15.627-29.508-34.898-29.508
	C570.507,1212.922,554.883,1226.117,554.883,1242.43z M250.123,1189.227c0,16.279,15.624,29.49,34.929,29.49
	c19.271,0,34.898-13.211,34.898-29.49c0-16.313-15.627-29.508-34.898-29.508C265.747,1159.719,250.123,1172.914,250.123,1189.227z
	 M86.224,1249.858c0,16.279,15.624,29.49,34.929,29.49c19.271,0,34.898-13.211,34.898-29.49c0-16.313-15.627-29.508-34.898-29.508
	C101.848,1220.351,86.224,1233.546,86.224,1249.858z"/>
<path id="Hair_cell_-_nuclei" fill-rule="evenodd" clip-rule="evenodd" fill="#FFFFFF" stroke="#CCCCCC" stroke-width="3" stroke-miterlimit="10" d="
	M1575.137,725.083c15.524,0,28.101,17.962,28.101,40.107c0,22.166-12.576,40.129-28.101,40.129
	c-15.523,0-28.096-17.963-28.096-40.129C1547.041,743.045,1559.613,725.083,1575.137,725.083L1575.137,725.083z M1442.674,733.108
	c14.41,0,26.087,17.506,26.087,39.114c0,21.601-11.677,39.114-26.087,39.114c-14.408,0-26.084-17.514-26.084-39.114
	C1416.59,750.614,1428.266,733.108,1442.674,733.108L1442.674,733.108z M1232.94,749.149c18.292,0,33.109,17.063,33.109,38.107
	c0,21.049-14.817,38.112-33.109,38.112c-18.281,0-33.114-17.063-33.114-38.112C1199.826,766.213,1214.659,749.149,1232.94,749.149
	L1232.94,749.149z M1103.501,769.216c14.403,0,26.076,18.854,26.076,42.121c0,23.258-11.673,42.112-26.076,42.112
	c-14.423,0-26.1-18.854-26.1-42.112C1077.401,788.07,1089.078,769.216,1103.501,769.216L1103.501,769.216z M947.949,793.279
	c13.843,0,25.081,17.954,25.081,40.116c0,22.152-11.238,40.119-25.081,40.119c-13.851,0-25.093-17.967-25.093-40.119
	C922.856,811.233,934.099,793.279,947.949,793.279L947.949,793.279z M780.369,787.257c16.613,0,30.097,17.521,30.097,39.123
	c0,21.6-13.483,39.109-30.097,39.109c-16.632,0-30.117-17.51-30.117-39.109C750.252,804.778,763.737,787.257,780.369,787.257
	L780.369,787.257z M1799.261,707.644c15.517,0,28.104,17.964,28.104,40.113c0,22.162-12.587,40.116-28.104,40.116
	s-28.108-17.954-28.108-40.116C1771.152,725.607,1783.744,707.644,1799.261,707.644L1799.261,707.644z M1931.723,715.675
	c14.416,0,26.084,17.498,26.084,39.105c0,21.605-11.668,39.115-26.084,39.115c-14.41,0-26.087-17.51-26.087-39.115
	C1905.636,733.173,1917.313,715.675,1931.723,715.675L1931.723,715.675z M2141.454,731.712c18.283,0,33.109,17.066,33.109,38.111
	s-14.826,38.104-33.109,38.104c-18.294,0-33.118-17.059-33.118-38.104S2123.16,731.712,2141.454,731.712L2141.454,731.712z
	 M2270.896,751.778c14.428,0,26.103,18.85,26.103,42.117c0,23.266-11.675,42.12-26.103,42.12c-14.399,0-26.071-18.854-26.071-42.12
	C2244.824,770.628,2256.496,751.778,2270.896,751.778L2270.896,751.778z M2426.451,775.845c13.859,0,25.078,17.955,25.078,40.117
	c0,22.152-11.219,40.107-25.078,40.107s-25.094-17.955-25.094-40.107C2401.357,793.8,2412.592,775.845,2426.451,775.845
	L2426.451,775.845z M2594.038,769.823c16.626,0,30.094,17.521,30.094,39.122c0,21.593-13.468,39.098-30.094,39.098
	c-16.632,0-30.12-17.505-30.12-39.098C2563.918,787.345,2577.406,769.823,2594.038,769.823L2594.038,769.823z"/>
<path id="Neurons_-_body" class="anatomy_id_" fill-rule="evenodd" clip-rule="evenodd" fill="#FFFFFF" stroke="#CCCCCC" stroke-width="0" stroke-miterlimit="10" d="
	M1920.848,1324.756c-37.862,96.113-101.938,45.054-123.5,121.5c-21.563,76.447,57.621,81.179,62.246,112.668
	c2.66,18.115,20.754,116.614,20.754,116.614h26l-27-115.282c4.531-46.951,73.552-11.608,79-76c5.447-64.393-42-53-40-110
	c0,0,70-70,37-167s-78-80-82-172s1.423-107.767,1.423-107.767c3.745-22.54,52.577-46.963,65.741-50.715
	c13.142-3.757,54.469-30.062,48.834-41.332c-5.639-11.274-7.521,0-33.815,18.791c-26.288,18.784-61.996,24.419-71.377-1.878
	c-9.383-26.305-3.761-33.814-11.276-33.814c-7.515,0-7.515,26.293-18.788,26.293c-11.263,0-43.21,5.635-60.106-9.392
	c-16.914-15.026,45.652,55.316,58.225,90.177c0,0-0.367,152.637,8.387,168.637s51.754,62,62.754,91
	S1940.348,1275.256,1920.848,1324.756z M1891.71,1178.77 M2411.348,1331.586c0,0-2.666-175.333-3.333-202
	s-2.259-78.986-2.259-78.986c0-54.486,5.622-88.297-7.529-107.077c-13.129-18.787-50.713-63.876-50.713-99.564
	s-3.76-65.742-3.76-65.742s3.76-30.062,11.277-48.845s1.879,43.21,5.623,77.023c3.773,33.814,0,90.165,41.34,101.432
	c41.328,11.277,52.59-3.757,62.001-22.537c9.381-18.783,30.039-78.895,7.502-112.708c-22.54-33.811-24.414-50.724-24.414-50.724
	s20.657,20.666,26.293,35.697c5.639,15.026,30.065,50.715,18.791,80.769c-11.273,30.054-9.396,48.845-39.445,77.021
	c-30.069,28.179-30.069,28.179-30.069,54.475c0,26.295-1.879,150.285,0,180.334c0.398,6.322,0.885,13.891,1.508,22.154
	c0,0,0.093,30.776,2.521,78.612c3.334,65.695,13.837,110.644-31.589,174.394c-12.816,17.986,100.012,38.943,4.923,131.61
	c-51.654,50.339-144.414,22.229-185.08,60.895s-38.837,57.721-38.837,57.721h-26.75c0,0,31.5-56.115,55.5-80.782
	s65.421-16.939,61.421-44.272s-23.334-60,19.333-93.333S2412.631,1414.218,2411.348,1331.586z M2165.348,1299.256
	c29-59,11-101.585,11-101.585s-13-3.415-47-37.415s-45-46-33.816-73.856s16.98-140.536,16.98-140.536
	c-11.263-22.541-48.623-84.664-50.724-101.432c-1.878-15.039-7.589-85.217,1.878-101.439c13.158-22.551,22.549-41.331,31.933-46.958
	c9.411-5.651,13.155,5.627,13.155,5.627s-5.639,7.514-15.018,31.937c-9.4,24.418-26.313,63.867-20.675,80.772
	c5.624,16.905,16.898,60.114,39.45,75.134c22.532,15.035,22.532,13.148,22.532,24.431c0,11.267-1.875,107.071-1.875,107.071
	c-0.4,20.746-19.321,66.418-5.321,99.25s35,40.5,35,40.5s14.827-4.464-5.5-29.5c-41-50.5-19.593-209.401-15.836-215.033
	c3.757-5.639,30.054,5.632,50.723-67.628c20.659-73.264,7.506-105.191-3.756-120.226c-11.274-15.02-33.827-35.689-26.309-41.324
	c7.513-5.631,16.913,0,16.913,0s22.552,16.904,31.931,33.818c9.408,16.9,11.29,107.066-3.745,135.24
	c-15.034,28.184-33.81,54.48-39.448,93.934c-5.65,39.443-14.156,67.586-12.473,95.719c3.559,59.455,34,100.5,51,136.5s1,48-17,108
	c-17.327,57.756-50.288,114-50.288,114c-4,28.666,18.288,30.001,36.288,100.667s-46,87.334-54,102.667s-5.5,67.948-5.5,67.948h-26
	c0,0,4.833-13.948,14.167-55.281s-67.667-6.334-75.667-97.001s72.443-105.032,89.667-128.333
	C2126.521,1383.414,2165.348,1299.256,2165.348,1299.256z M1546.348,1417.256c28.667,14.667-11.079,96.243,44.095,134.252
	c45,31,69.864-1.672,90.864,10.033c30.65,17.084,11.269,113.997,11.269,113.997h20.86c0,0,6.123-105.162,9.411-141.282
	c3.335-36.631,15.457-41.005-23.5-92c-38.958-50.996-110-24.667-110-24.667s-82-21.333-98-126.333s12.297-142.07,18.648-204.035
	c4.457-43.483-1.995-140.448,4.793-159.25c12.582-34.852,75.15-105.203,58.237-90.164c-16.901,15.018-48.841,9.387-60.11,9.387
	c-11.266,0-11.266-26.297-18.78-26.297c-7.518,0-1.882,7.514-11.278,33.811c-9.388,26.301-45.076,20.662-71.393,1.879
	c-26.297-18.779-28.172-30.058-33.807-18.779c-5.639,11.266,35.701,37.563,48.853,41.323c13.142,3.761,61.985,28.171,65.743,50.716
	c3.757,22.545,11.608,43.547,4.094,107.41c0,0-25.502,138.893-25,183.096s-1,120.904,37,158.904
	S1546.348,1417.256,1546.348,1417.256z M1200.848,1405.256c-55.702-24.292-33.403-96.257-33.403-96.257
	s51.971-228.837,48.651-258.927c-3.09-28.006-11.266-58.229-16.904-97.682c-5.635-39.446-24.418-65.739-39.449-93.935
	c-15.035-28.167-13.151-118.34-3.757-135.241c9.393-16.904,31.933-33.818,31.933-33.818s9.391-5.631,16.912,0
	c7.514,5.635-15.03,26.305-26.297,41.332c-11.273,15.03-24.422,46.963-3.76,120.223c20.665,73.263,46.967,61.993,50.727,67.628
	c3.749,5.635,5.627,92.048,9.384,142.763c0,0-27.536,142.248-38.203,184.248s-1.333,59.333,4,45.333s39.838-161.96,39.838-161.96
	c7.162-30.369-3.761-107.066-3.761-107.066s-1.875-95.813-1.875-107.078s0-9.396,22.549-24.422
	c22.532-15.027,33.806-58.229,39.445-75.135c5.639-16.912-11.267-56.362-20.67-80.777c-9.38-24.422-15.02-31.932-15.02-31.932
	s3.757-11.27,13.152-5.635c9.389,5.635,18.78,24.418,31.933,46.959c9.462,16.227,3.76,86.412,1.878,101.439
	c-2.099,16.778-39.445,78.897-50.719,101.438c-11.271,22.541-6.87,96.282-2.478,149.726s-40.136,198.032-49.607,214.339
	s-14.415,12.443-10.667,37.438c7.884,52.572,19.127,44.223,75.667,70c63.608,29,70.364-6.825,133.091,19.056
	s42.976,66.89,73.598,120.169s114.908,118.058,114.908,118.058h-40.498c0,0-69.112-74.566-89.432-87.949
	c-24.295-16-3.144-21.979-86.061-3.284s-101.606-63.049-96.877-98.953s22.271-29.096-3.015-44.096
	C1276.061,1441.256,1223.014,1414.923,1200.848,1405.256z M1011.518,1407.438c55,53,104.83,20.847,137.83,64.615
	s-0.707,77.947,10.293,104.199s75.322,99.286,75.322,99.286h-27.615c0,0-30-42.282-69-83.282s-99,15-126-40.748
	s11-82.252-16-124.252s-40.26-48.242-56.13-71.871s-12.842-44.68-12.842-44.68c0.088-1.328,12.492-146.697,12.575-147.926
	c1.879-30.061,0-154.035,0-180.332c0-26.301,0-26.301-30.062-54.477c-30.041-28.183-28.179-46.963-39.444-77.02
	c-11.267-30.055,13.144-65.755,18.782-80.773c5.64-15.027,26.309-35.693,26.309-35.693s-1.894,16.906-24.43,50.712
	c-22.536,33.827-1.879,93.934,7.518,112.722c9.392,18.779,20.669,33.809,61.985,22.531c41.332-11.262,37.578-67.625,41.332-101.426
	c3.756-33.827-1.871-95.809,5.631-77.025c7.518,18.787,11.281,48.846,11.281,48.846s-3.764,30.053-3.764,65.742
	c0,35.688-37.571,80.777-50.724,99.561c-13.141,18.783-7.518,52.598-7.518,107.082c0,0-6.606,157.293-0.501,258.027
	C959.348,1370.756,1011.518,1407.438,1011.518,1407.438z M1421.348,1271.254"/>
<path id="Neurons_-_nuclei" fill-rule="evenodd" clip-rule="evenodd" fill="#FFFFFF" stroke="#CCCCCC" stroke-width="0" stroke-miterlimit="10" d="
	M1403.439,1506.796c0,19.187-15.554,34.741-34.742,34.741s-34.742-15.555-34.742-34.741c0-19.188,15.554-34.742,34.742-34.742
	S1403.439,1487.608,1403.439,1506.796z M1082.021,1475.792c-19.188,0-34.742,15.555-34.742,34.742
	c0,19.187,15.554,34.741,34.742,34.741s34.742-15.555,34.742-34.741C1116.763,1491.347,1101.209,1475.792,1082.021,1475.792z
	 M1638.684,1437.312c-19.188,0-34.742,15.555-34.742,34.742c0,19.187,15.554,34.741,34.742,34.741s34.742-15.555,34.742-34.741
	C1673.425,1452.866,1657.871,1437.312,1638.684,1437.312z M1860.594,1437.312c-19.188,0-34.741,15.555-34.741,34.742
	c0,19.187,15.554,34.741,34.741,34.741s34.742-15.555,34.742-34.741C1895.336,1452.866,1879.781,1437.312,1860.594,1437.312z
	 M2104.317,1495.809c-19.188,0-34.741,15.555-34.741,34.742c0,19.187,15.554,34.741,34.741,34.741s34.742-15.555,34.742-34.741
	C2139.06,1511.363,2123.505,1495.809,2104.317,1495.809z M2349.881,1482.024c-19.188,0-34.741,15.555-34.741,34.742
	c0,19.187,15.554,34.741,34.741,34.741s34.742-15.555,34.742-34.741C2384.623,1497.579,2369.068,1482.024,2349.881,1482.024z"/>
<path id="Hair_cell_-_kinocilia" class="anatomy_id_14" fill="#FFFFFF" stroke="#CCCCCC" d="M780.114,667.435c0,0-4.767-75.568-4.767-143.568s-0.412-87.187-0.475-127.279
	c-0.056-35.721,1.375-49.458,6.175-47.34s0.137,22.271,0.07,57.675c-0.07,37.61,3.8,260.512,3.8,260.512
	S784.013,667.28,780.114,667.435z M975.576,624.911c0,0-3.87-222.901-3.8-260.512c0.066-35.404,4.729-55.557-0.07-57.675
	s-6.231,11.619-6.175,47.34c0.063,40.092,0.475,59.279,0.475,127.279s4.767,143.568,4.767,143.568
	C974.672,624.756,975.576,624.911,975.576,624.911z M1089.142,610.934c0,0-3.87-222.901-3.8-260.512
	c0.066-35.404,4.729-55.557-0.07-57.675s-6.231,11.619-6.175,47.34c0.063,40.092,0.475,59.279,0.475,127.279
	s4.767,143.568,4.767,143.568C1088.238,610.779,1089.142,610.934,1089.142,610.934z M1224.373,610.934c0,0-3.87-222.901-3.8-260.512
	c0.066-35.404,4.729-55.557-0.07-57.675s-6.231,11.619-6.175,47.34c0.063,40.092,0.475,59.279,0.475,127.279
	s4.767,143.568,4.767,143.568C1223.469,610.779,1224.373,610.934,1224.373,610.934z M1411.315,603.457c0,0-3.87-222.901-3.8-260.512
	c0.066-35.404,4.729-55.557-0.07-57.675s-6.231,11.619-6.175,47.34c0.063,40.092,0.475,59.279,0.475,127.279
	s4.767,143.568,4.767,143.568C1410.412,603.302,1411.315,603.457,1411.315,603.457z M1574.806,588.198c0,0-3.87-222.901-3.8-260.512
	c0.066-35.404,4.729-55.557-0.07-57.675s-6.231,11.619-6.175,47.34c0.063,40.092,0.475,59.279,0.475,127.279
	s4.767,143.568,4.767,143.568C1573.902,588.043,1574.806,588.198,1574.806,588.198z M1794.929,586.138
	c0,0,4.767-75.568,4.767-143.568s0.412-87.187,0.476-127.279c0.056-35.721-1.376-49.458-6.176-47.34s-0.137,22.271-0.07,57.675
	c0.07,37.61-3.8,260.512-3.8,260.512S1791.028,585.983,1794.929,586.138z M1956.436,602.788c0,0,4.767-75.568,4.767-143.568
	s0.412-87.187,0.476-127.279c0.056-35.721-1.376-49.458-6.176-47.34s-0.137,22.271-0.07,57.675c0.07,37.61-3.8,260.512-3.8,260.512
	S1952.535,602.633,1956.436,602.788z M2150.831,603.457c0,0,4.767-75.568,4.767-143.568s0.412-87.187,0.476-127.279
	c0.056-35.721-1.376-49.458-6.176-47.34s-0.137,22.271-0.07,57.675c0.07,37.61-3.8,260.512-3.8,260.512
	S2146.931,603.302,2150.831,603.457z M2285.721,602.854c0,0,4.767-75.568,4.767-143.568s0.412-87.187,0.476-127.279
	c0.056-35.721-1.376-49.458-6.176-47.34s-0.137,22.271-0.07,57.675c0.07,37.61-3.8,260.512-3.8,260.512
	S2281.82,602.699,2285.721,602.854z M2402.493,611.656c0,0,4.767-75.568,4.767-143.568s0.412-87.187,0.476-127.279
	c0.056-35.721-1.376-49.458-6.176-47.34s-0.137,22.271-0.07,57.675c0.07,37.61-3.8,260.512-3.8,260.512
	S2398.593,611.501,2402.493,611.656z M2579.563,653.792c0,0,4.767-75.568,4.767-143.568s0.412-87.187,0.476-127.279
	c0.056-35.721-1.376-49.458-6.176-47.34s-0.137,22.271-0.07,57.675c0.07,37.61-3.8,260.512-3.8,260.512
	S2575.662,653.637,2579.563,653.792z"/>
</svg>
