<?xml version="1.0" encoding="utf-8"?>
<!-- Generator: Adobe Illustrator 16.0.0, SVG Export Plug-In . SVG Version: 6.00 Build 0)  -->
<!DOCTYPE svg PUBLIC "-//W3C//DTD SVG 1.1//EN" "http://www.w3.org/Graphics/SVG/1.1/DTD/svg11.dtd">
<svg version="1.1" id="Zebra_Fish" xmlns="http://www.w3.org/2000/svg" xmlns:xlink="http://www.w3.org/1999/xlink" x="0px" y="0px"
	 width="3483.35px" height="918.092px" viewBox="0 0 3483.35 918.092" enable-background="new 0 0 3483.35 918.092"
	 xml:space="preserve">
<g id="Zebra_fish_-_body">
	<g>
		<path fill="#CCCC99" d="M3336.138,204.299c-7.191-4.072-18.014-1.922-27.195-2.24c-128.328-4.432-256.861-5.631-384.939-13.898
			c-214.006-13.813-427.662-32.959-641.568-48.303c-195.811-14.039-391.664-34.195-587.697-36.76
			c-229.416-3.006-459.217,6.865-688.537,17.701c-102.184,4.84-205.75,16.98-304.883,41.316
			c-144.84,35.561-286.777,83.477-428.783,129.748c-37.17,12.117-75.222,33.932-102.91,58.518
			c-27.029,24-54.719,77.398-96.5,195.969c-41.781,118.57,59.914,233.479,94.332,254.58c38.215,23.428,158.283,11.65,158.283,11.65
			c62.778-10.527,121.74-47.039,180.842-75.199c51.664-24.604,100.329-40.064,156.184-8.959
			c19.111,10.641,47.128,5.309,77.539,7.799c-25.39-50.482-45.84-86.781-62.319-124.795c-4.606-10.623-8.398-21.855-10.091-33.652
			c-19.036-132.618,28.512-66.254,28.51-66.256c-1.987,74.398,21.439,152.398,91.473,195.297
			c118.049,72.297,378.721,33.082,461.789-77.342c35.121-46.674,51.546-109.432,117.247-120.717
			c110.059-18.898,190.333-35.381,300.89-50.559c121.387-16.668,243.6-27.373,365.439-40.674c0.375-3.549,0.738-7.1,1.113-10.66
			c-17.121-3.541-34.219-10.057-51.35-10.15c-110.248-0.611-220.721-4.004-330.72,1.445
			c-129.339,6.416-258.751,15.002-386.714,2.383c0,0-110.832-31.406,180.156-34.156c39.719-0.375,79.551-0.953,119.531-2.066
			c220.014-6.127,440.596,11.881,660.789,8.738c249.582-3.561,499.424-13.629,748.33-31.961
			c123.111-9.072,244.619-41.992,366.236-67.08c15.594-3.219,27.48-24.361,41.088-37.197
			C3366.632,225.78,3352.288,213.442,3336.138,204.299z M613.959,463.962c-14.735,7.434-29.65,15.107-45.299,20.078
			c-64.344,20.438-83.938,5.832-85.254-72.995c1.069-9.162,1.223-29.725,6.114-49.086c17.436-69.049,83.131-90.734,137.666-46.43
			C713.822,385.915,711.31,414.862,613.959,463.962z M1217.764,616.868c-45.891,59.658-135.92,70.402-256,84.666
			c-31.806,3.779-64.186-1.477-98-8c-39.43-7.605-64.588-17.758-90.667-40.666c-57.831-50.801-50.667-135.691-50.667-218.977
			c0-153.051,92.121-268.256,244.316-268.256s260.771,124.791,275.574,277.125C1246.484,485.608,1257.764,564.868,1217.764,616.868z
			 M1617.405,316.333c-20.155,22.225-56.27,23.592-104.437,25.391c-12.758,0.475-25.453-2.656-38.678-6.336
			c-15.42-4.293-25.088-9.137-34.712-19.078c-21.339-22.047-15.757-55.543-13.073-88.631
			c4.932-60.807,45.243-103.609,105.709-98.705c60.466,4.902,99.583,57.98,100.556,118.98
			C1633.044,265.11,1634.972,296.963,1617.405,316.333z M1993.89,317.711c-19.26,20.582-53.205,21.342-98.48,22.328
			c-11.992,0.262-23.871-2.865-36.242-6.516c-14.424-4.26-23.436-8.949-32.33-18.43c-19.725-21.021-13.992-52.406-10.99-83.449
			c5.52-57.053,44.014-96.672,100.744-91.186c56.732,5.488,92.705,55.922,92.73,113.238
			C2009.327,269.819,2010.673,299.77,1993.89,317.711z M2378.101,278.391c-0.355,13.988,0.145,40.008-14.82,55.199
			c-17.172,17.429-46.643,17.33-85.949,17.172c-10.412-0.041-20.65-3.02-31.301-6.463c-12.42-4.018-20.135-8.289-27.643-16.715
			c-16.645-18.68-10.969-45.783-7.668-72.655c6.064-49.378,40.35-82.897,89.453-76.866
			C2349.274,184.093,2379.358,228.657,2378.101,278.391z M2739.21,317.122c-13.492,15.753-38.424,17.41-71.674,19.598
			c-8.809,0.58-17.643-1.334-26.854-3.617c-10.74-2.664-17.518-5.82-24.363-12.502c-15.182-14.816-11.98-38.072-10.777-60.994
			c2.213-42.117,29.229-72.488,71.111-70.289c41.883,2.2,69.957,38.111,71.83,80.246
			C2749.009,281.413,2750.968,303.389,2739.21,317.122z"/>
	</g>
</g>
<g id="Zebra_fish_-_eye">
	<path id="Eye_-_Iris" fill="#999999" d="M284.279,748.926c90.299,27.489,175.697-17.459,192.631-108.534
		c10.172-54.741-12.125-103.81-49.879-143.563c-37.902-39.91-84.414-45.895-136.117-28.713
		c-102.57,34.084-125.459,80.633-104.57,217.651C215.687,753.449,284.279,748.926,284.279,748.926z"/>
	<circle id="Eye_-_lens" fill="#CCCCCC" cx="312.098" cy="618.638" r="92.315"/>
</g>
<path id="Mantle_cells_-_body" fill="#B79AC8" stroke="#FFFFFF" stroke-width="3" stroke-miterlimit="10" d="M1120.551,381.762
	c0,0-0.478-42.761,35.037-15.806s95.292,113.68,69.919,196.644c-25.374,82.966-90.807,71.505-97.024,69.272
	c-6.216-2.232,58.062-34.913,52.632-98.229c-5.431-63.316-28.579-99.218-41.595-119.308
	C1126.504,394.247,1118.34,395.404,1120.551,381.762z M826.81,443.948c0,0-19.862-24.661-43.096-18.615
	c-30.742,8-42.803,37.428-42.136,82.095s2.727,80.596,26.061,117.25s55.333,42.633,55.333,28.644
	c0-13.988-15.84-12.602-21.692-35.728c-5.854-23.126-9.882-30.246-8.895-62.928c0.988-32.683,1.304-59.127,3.278-79.23
	C797.639,455.333,821.108,442.76,826.81,443.948z M1591.078,212.233c0,0,1.326-17.42,14.821-5.188
	c13.497,12.233,34.744,49.655,21.468,82.518c-13.277,32.865-39.5,25.875-41.951,24.745c-2.45-1.13,24.872-12.145,24.913-38.108
	c0.041-25.963-8.104-41.396-12.688-50.036C1593.057,217.526,1589.693,217.708,1591.078,212.233z M1469.316,227.102
	c0,0-7.208-10.743-16.878-9.108c-12.796,2.163-18.751,13.711-20.067,31.915c-1.316,18.202-1.755,32.898,6.439,48.646
	s21.005,19.319,21.501,13.625c0.498-5.693-5.999-5.691-7.559-15.312c-1.56-9.62-2.946-12.661-1.383-25.928
	c1.564-13.266,2.632-24.018,4.15-32.129C1457.039,230.698,1467.038,226.416,1469.316,227.102z M1967.899,224.235
	c0,0,1.38-15.72,13.439-4.531c12.063,11.189,30.86,45.209,18.528,74.751c-12.336,29.543-35.946,22.957-38.147,21.911
	c-2.201-1.045,22.59-10.709,22.898-34.158c0.308-23.448-6.889-37.472-10.938-45.323
	C1969.632,229.036,1966.592,229.165,1967.899,224.235z M1857.774,236.392c0,0-6.396-9.777-15.148-8.402
	c-11.58,1.82-17.079,12.188-18.457,28.614c-1.379,16.425-1.929,29.694,5.308,44.002c7.236,14.309,18.769,17.667,19.276,12.53
	c0.509-5.137-5.357-5.203-6.666-13.908c-1.308-8.705-2.528-11.466-0.979-23.432c1.552-11.965,2.627-21.664,4.084-28.974
	C1846.649,239.512,1855.724,235.749,1857.774,236.392z M2342.061,252.795c0,0,1.495-13.02,11.258-3.463
	c9.766,9.557,24.615,38.216,13.721,62.467c-10.896,24.252-30.351,18.26-32.155,17.343c-1.804-0.917,18.991-8.389,19.769-27.849
	c0.775-19.459-4.886-31.261-8.074-37.868C2343.392,256.819,2340.865,256.859,2342.061,252.795z M2250.368,260.442
	c0,0-5.093-8.259-12.389-7.312c-9.654,1.253-14.449,9.739-15.959,23.345c-1.509,13.605-2.26,24.608,3.43,36.647
	c5.689,12.039,15.188,15.083,15.724,10.83c0.537-4.253-4.332-4.438-5.224-11.694c-0.893-7.255-1.845-9.575-0.293-19.474
	c1.554-9.898,2.662-17.926,4.033-23.962C2241.063,262.785,2248.68,259.863,2250.368,260.442z M2713.941,252.25
	c0,0,1.234-10.748,9.293-2.858c8.062,7.889,20.32,31.548,11.326,51.567c-8.994,20.021-25.055,15.074-26.544,14.317
	c-1.489-0.757,15.678-6.925,16.319-22.989c0.64-16.064-4.033-25.806-6.666-31.261C2715.04,255.571,2712.954,255.604,2713.941,252.25
	z M2638.248,258.562c0,0-4.204-6.817-10.227-6.036c-7.97,1.035-11.928,8.04-13.174,19.271c-1.246,11.231-1.866,20.314,2.831,30.253
	c4.696,9.938,12.538,12.451,12.979,8.939c0.443-3.511-3.576-3.664-4.313-9.653c-0.736-5.989-1.522-7.904-0.241-16.076
	c1.282-8.171,2.197-14.798,3.329-19.781C2630.567,260.496,2636.854,258.083,2638.248,258.562z"/>
<path id="Supporting_cells_-_body" fill="#9A8479" stroke="#FFFFFF" stroke-width="3" stroke-miterlimit="10" d="M890.975,562.619
	c-1.273-23.567,8.11-99.735-1.431-109.679s-4.914,20.406-35.181,13.844c-30.268-6.562-34.155-20.046-24.051-23.337
	c0,0-36.879,7.099-35.449,40.643c1.433,33.546-24.841,162.933,56.604,177.074c81.443,14.145,53.438-1.292,49.918-22.226
	C897.186,613.968,892.249,586.187,890.975,562.619z M1085.509,560.148c-2.344-5.948-38.583-92.938-43.374-110.546
	c-1.122-2.861-1.758-4.488-1.758-4.488l-2.583-11.41c0,0-5.196,10.172-29.021,20.855c-23.826,10.684-41.726-9.412-41.842-7.354
	c-0.115,2.061-6.912,15.139-38.188,21.402c-31.275,6.261-28.351-12.77-34.965-18.031c-6.615-5.258-2.917,105.855-2.772,113.32
	c1.882,29.145,7.472,55.127,9.161,70.201c4.693,20.634,13.642,34.429,31.231,36.805c17.147,2.316,38.738,0.564,61.714-2.846
	c-0.287-8.738-15.093-153.395-26.181-220.852c10.945,66.591,25.894,212.113,26.181,220.852c28.509-4.229,59.154-11.01,86.12-15.761
	c29.089-5.123,29.456-27.382,22.771-50.226c-2.197-5.764-4.403-12.14-6.797-18.965
	C1091.686,574.489,1088.011,566.499,1085.509,560.148z M1121.466,387.835c-13.883-15.076-30.917,3.16-30.917,3.16
	c-7.784,32.721-29.729,32.01-44.241,34.074c-5.929,0.845-6.699,7.818-4.234,20.107c4.218,13.919,14.919,44.682,28.924,77.153
	c6.712,16.922,28.349,69.946,29.761,76.415c7.405,25.193,3.414,40.168,24.529,29.265c36.948-19.077,47.193-39.497,55.137-88.014
	C1188.368,491.48,1135.349,402.909,1121.466,387.835z M1491.212,277.681c0.32-9.638,6.846-40.304,3.317-44.69
	c-3.53-4.386-2.726,8.131-14.811,4.384s-13.188-9.373-8.959-10.354c0,0-15.262,1.578-15.872,15.281
	c-0.609,13.704-15.902,65.43,16.743,74.08c32.644,8.652,21.794,1.375,21.105-7.271
	C1491.915,298.8,1490.893,287.318,1491.212,277.681z M1570.475,283.59c-0.743-2.504-12.4-39.197-13.724-46.534
	c-0.354-1.205-0.555-1.889-0.555-1.889l-0.646-4.736c0,0-2.476,3.955-12.553,7.457c-10.078,3.502-16.647-5.314-16.769-4.481
	c-0.12,0.834-3.352,5.917-16.303,7.353c-12.951,1.438-11.084-6.204-13.589-8.581c-2.505-2.375-4.95,42.979-5.157,46.022
	c-0.271,11.928,1.082,22.702,1.233,28.897c1.177,8.564,4.328,14.497,11.402,16.089c6.896,1.552,15.746,1.606,25.219,1.036
	c0.194-3.566-0.69-62.968-2.805-90.817c2.088,27.492,3,87.251,2.805,90.817c11.753-0.708,24.466-2.377,35.61-3.353
	c12.022-1.052,12.961-10.097,11.054-19.633c-0.689-2.424-1.361-5.097-2.092-7.959
	C1572.478,289.647,1571.267,286.264,1570.475,283.59z M1591.234,214.738c-5.115-6.629-12.696,0.188-12.696,0.188
	c-4.332,13.04-13.238,11.97-19.217,12.295c-2.443,0.133-3.005,2.943-2.438,8.032c1.223,5.815,4.484,18.716,9.029,32.43
	c2.131,7.125,9.052,29.476,9.397,32.159c2.118,10.517-0.039,16.47,8.942,12.782c15.716-6.451,20.611-14.397,25.57-33.861
	C1614.779,259.299,1596.349,221.366,1591.234,214.738z M1877.022,282.302c0.389-8.701,6.604-36.329,3.463-40.327
	c-3.143-3.999-2.548,7.314-13.423,3.805c-10.876-3.511-11.813-8.603-7.984-9.445c0,0-13.8,1.266-14.494,13.635
	c-0.693,12.371-15.045,58.928,14.35,67.081c29.392,8.155,19.668,1.469,19.137-6.346
	C1877.438,301.383,1876.634,291.002,1877.022,282.302z M1948.548,288.466c-0.646-2.269-10.79-35.53-11.91-42.17
	c-0.307-1.092-0.481-1.712-0.481-1.712l-0.534-4.283c0,0-2.277,3.546-11.414,6.603c-9.138,3.058-14.98-4.973-15.099-4.222
	c-0.116,0.753-3.089,5.309-14.801,6.472s-9.946-5.719-12.184-7.892c-2.237-2.171-4.919,38.765-5.137,41.512
	c-0.369,10.77,0.739,20.515,0.812,26.111c0.973,7.747,3.758,13.139,10.13,14.65c6.212,1.474,14.205,1.616,22.766,1.199
	c0.213-3.218,0.034-56.877-1.586-82.052c1.598,24.852,1.799,78.833,1.586,82.052c10.622-0.516,22.121-1.892,32.197-2.657
	c10.869-0.825,11.812-8.984,10.188-17.616c-0.598-2.196-1.176-4.618-1.806-7.21C1950.293,293.957,1949.235,290.889,1948.548,288.466
	z M1968.016,226.499c-4.551-6.041-11.469,0.037-11.469,0.037c-4.047,11.732-12.08,10.673-17.483,10.904
	c-2.209,0.095-2.746,2.627-2.286,7.229c1.043,5.265,3.854,16.951,7.815,29.383c1.85,6.458,7.868,26.716,8.15,29.143
	c1.805,9.52-0.206,14.875,7.943,11.637c14.262-5.662,18.766-12.788,23.447-30.314
	C1988.813,266.99,1972.565,232.538,1968.016,226.499z M2265.328,298.982c0.516-7.214,6.289-30.012,3.771-33.4
	c-2.521-3.39-2.278,6.015-11.229,2.861c-8.95-3.156-9.615-7.404-6.418-8.019c0,0-11.484,0.745-12.336,10.998
	c-0.851,10.254-13.799,48.586,10.423,56.007c24.219,7.422,16.296,1.656,16.028-4.843
	C2265.249,314.833,2264.812,306.196,2265.328,298.982z M2324.569,305.688c-0.485-1.898-8.169-29.735-8.951-35.273
	c-0.23-0.914-0.361-1.432-0.361-1.432l-0.349-3.568c0,0-1.97,2.893-9.622,5.228c-7.654,2.335-12.326-4.461-12.441-3.84
	c-0.113,0.623-2.683,4.338-12.43,5.044c-9.749,0.705-8.131-4.969-9.939-6.822c-1.81-1.852-4.944,32.072-5.187,34.348
	c-0.546,8.932,0.157,17.047,0.094,21.695c0.636,6.453,2.827,10.991,8.084,12.387c5.125,1.361,11.757,1.657,18.873,1.501
	c0.248-2.667,1.291-47.217,0.505-68.152c0.775,20.667-0.257,65.485-0.505,68.152c8.829-0.192,18.406-1.079,26.787-1.491
	c9.043-0.443,10.006-7.196,8.85-14.398c-0.447-1.836-0.874-3.859-1.34-6.026C2325.896,310.285,2325.086,307.715,2324.569,305.688z
	 M2342.106,254.677c-3.644-5.116-9.521-0.224-9.521-0.224c-3.62,9.65-10.266,8.592-14.757,8.664c-1.835,0.03-2.338,2.12-2.058,5.951
	c0.748,4.394,2.823,14.157,5.835,24.567c1.393,5.401,5.938,22.354,6.119,24.374c1.287,7.943-0.501,12.344,6.336,9.837
	c11.965-4.384,15.863-10.199,20.139-24.646C2358.473,288.753,2345.75,259.792,2342.106,254.677z M2650.598,290.377
	c0.426-5.956,5.191-24.775,3.113-27.572c-2.081-2.798-1.881,4.965-9.27,2.361c-7.389-2.605-7.938-6.112-5.299-6.619
	c0,0-9.479,0.615-10.183,9.079c-0.702,8.465-11.392,40.108,8.604,46.234c19.992,6.127,13.452,1.367,13.23-3.998
	C2650.532,303.461,2650.172,296.333,2650.598,290.377z M2699.502,295.913c-0.4-1.567-6.743-24.547-7.389-29.118
	c-0.19-0.754-0.299-1.182-0.299-1.182l-0.288-2.945c0,0-1.626,2.388-7.942,4.316c-6.319,1.928-10.176-3.683-10.271-3.17
	c-0.093,0.514-2.214,3.582-10.26,4.164c-8.049,0.582-6.713-4.102-8.205-5.632c-1.494-1.529-4.082,26.476-4.282,28.354
	c-0.45,7.374,0.13,14.072,0.077,17.909c0.525,5.327,2.334,9.073,6.674,10.226c4.23,1.124,9.705,1.368,15.58,1.239
	c0.205-2.201,1.065-38.978,0.416-56.26c0.641,17.061-0.211,54.059-0.416,56.26c7.288-0.159,15.194-0.891,22.113-1.23
	c7.465-0.366,8.26-5.94,7.305-11.886c-0.369-1.516-0.722-3.186-1.105-4.974C2700.598,299.708,2699.929,297.586,2699.502,295.913z
	 M2713.979,253.803c-3.008-4.223-7.859-0.185-7.859-0.185c-2.988,7.966-8.475,7.093-12.182,7.152
	c-1.516,0.024-1.931,1.75-1.699,4.912c0.617,3.627,2.331,11.687,4.817,20.28c1.149,4.459,4.901,18.453,5.051,20.121
	c1.063,6.557-0.413,10.189,5.23,8.121c9.877-3.619,13.096-8.419,16.625-20.345C2727.489,281.933,2716.986,258.025,2713.979,253.803z
	"/>
<path id="Hair_cells_-_body" fill="#38BFC3" stroke="#FFFFFF" stroke-width="3" stroke-miterlimit="10" d="M997.476,553.561
	c-0.626-3.24-1.705-7.415-2.166-11.66c-0.963-8.695-4.181-22.336-5.921-30.834c-3.709-18.736-4.838-32.5-9.082-51.092
	c-0.543-2.34-1.279-4.607-1.834-6.74c19.831,8.127,36.886,3.1,53.208-9.428c6.054,30.303,13.219,58.248,26.658,87.244l1.286,2.982
	c0.916,2.492,1.768,4.527,2.471,6.605c3.729,11.396,6.389,22.871,4.206,35.027c-2.869,16.285-22.653,29.746-39.635,20.291
	C1026.665,595.957,1005.43,588.372,997.476,553.561z M954.297,603.051c-13.08,14.37-36.129,7.928-44.036-6.597
	c-5.944-10.839-7.076-22.56-7.187-34.543c0.004-2.192,0.168-4.402,0.241-7.044l0.268-3.24c3.491-31.771,1.386-60.537-2.545-91.188
	c19.466,6.667,37.234,5.986,53.435-8.029c0.158,2.204,0.19,4.581,0.411,6.972c1.903,18.984,3.474,37.991,5.928,56.933
	c1.067,8.604,2.39,15.696,4.256,24.245c0.918,4.174,1.757,10.128,2.191,13.397C970.492,592.488,954.297,603.051,954.297,603.051z
	 M1017.101,441.495c0.316,5.145-5.721,7.039-9.597,9.221c-6.414,3.605-12.232,2.008-17.118-1.176
	c-3.568-2.355-8.221-5.227-6.283-10.877c-4.888,2.251-6.968,6.114-6.895,10.506c0.081,4.572,2.919,7.25,7,8.576
	c2.595,0.836,5.55,1.246,8.366,1.051c12.757-0.916,23.392-6.664,32.504-15.357c1.382-1.326,2.479-3.037,3.314-4.729
	c1.666-3.555,1.112-6.616-2.7-7.662c-3.294-0.9-4.012-1.078-8.674-0.838c-4.647,0.229-7.565,1.535-7.565,1.535
	C1019.047,438.38,1017.101,441.495,1017.101,441.495z M917.721,445.12c0,0-3.173,0.045-7.466,1.789
	c-4.337,1.752-4.915,2.219-7.522,4.433c-2.998,2.544-2.194,5.558,0.81,8.053c1.473,1.183,3.171,2.261,4.982,2.896
	c11.912,4.008,23.968,4.708,35.891,0.141c2.625-0.994,5.141-2.608,7.12-4.466c3.137-2.935,4.58-6.546,2.697-10.703
	c-1.771-4.012-5.272-6.63-10.652-6.6c4.124,4.293,1.147,8.861-1.099,12.483c-3.086,4.961-7.648,8.858-14.984,8.304
	c-4.425-0.343-10.691,0.492-12.57-4.291C914.927,457.159,911.856,455.157,917.721,445.12z M810.138,553.204
	c0.53-3.255,0.961-7.546,1.995-11.691c2.101-8.493,3.796-22.402,5.101-30.979c2.994-18.863,6.69-32.17,9.133-51.082
	c0.297-2.388,0.391-4.767,0.605-6.958c15.801,14.477,33.544,15.653,53.19,9.538c-4.792,30.531-7.724,59.229-5.135,91.08l0.176,3.246
	c-0.001,2.651,0.093,4.859,0.034,7.049c-0.438,11.98-1.907,23.671-8.156,34.325c-8.32,14.289-31.537,20.082-44.206,5.343
	C822.876,603.075,805.572,588.618,810.138,553.204z M868.563,457.362c-2.408,4.556-8.548,3.035-12.993,2.881
	c-7.354-0.259-11.491-4.651-14.006-9.911c-1.821-3.869-4.302-8.74,0.293-12.559c-5.345-0.623-9.131,1.595-11.354,5.384
	c-2.309,3.946-1.279,7.708,1.517,10.969c1.78,2.062,4.092,3.949,6.598,5.247c11.369,5.857,23.442,6.48,35.749,3.801
	c1.872-0.414,3.698-1.306,5.291-2.314c3.273-2.168,4.395-5.071,1.684-7.947c-2.347-2.482-2.866-3.009-6.973-5.229
	c-4.087-2.226-7.258-2.625-7.258-2.625C871.847,455.715,868.563,457.362,868.563,457.362z M1052.873,404.977
	c0,0-2.766,1.555-5.706,5.139c-2.974,3.61-3.259,4.295-4.493,7.486c-1.419,3.668,0.729,5.928,4.559,6.687
	c1.858,0.337,3.864,0.478,5.758,0.167c12.382-2.168,23.308-7.313,31.603-17.018c1.832-2.127,3.27-4.744,4.123-7.322
	c1.354-4.08,0.897-7.94-2.743-10.695c-3.471-2.676-7.797-3.305-12.509-0.707c5.674,1.802,5.24,7.234,4.997,11.492
	c-0.343,5.83-2.49,11.435-9.201,14.451c-4.049,1.813-9.159,5.538-13.092,2.234C1056.167,416.89,1052.511,416.598,1052.873,404.977z
	 M1149.129,537.568c-6.743,18.225-30.526,20.887-43.3,10.383c-9.572-7.822-15.012-18.265-19.604-29.333
	c-0.816-2.035-1.493-4.145-2.416-6.622l-0.965-3.103c-8.666-30.766-21.397-56.648-36.524-83.595
	c20.545-1.109,36.764-8.396,46.532-27.465c0.972,1.987,1.894,4.175,2.994,6.313c8.877,16.887,17.455,33.922,26.826,50.565
	c4.214,7.577,8.098,13.656,13.032,20.882c2.415,3.528,5.421,8.732,7.05,11.603C1160.188,521.706,1149.129,537.568,1149.129,537.568z
	 M1534.88,277.78c-0.14-1.341-0.431-3.079-0.467-4.823c-0.083-3.573-0.908-9.239-1.314-12.76c-0.843-7.757-0.813-13.399-1.88-21.117
	c-0.138-0.971-0.356-1.92-0.506-2.808c7.782,4.012,14.902,2.573,21.991-1.946c1.386,12.548,3.309,24.176,7.748,36.455l0.417,1.26
	c0.284,1.046,0.558,1.905,0.771,2.775c1.112,4.771,1.787,9.536,0.466,14.406c-1.746,6.526-10.277,11.3-16.852,6.849
	C1545.252,296.073,1536.879,292.231,1534.88,277.78z M1515.547,296.387c-5.834,5.384-14.986,1.942-17.688-4.25
	c-2.035-4.622-2.078-9.433-1.697-14.314c0.08-0.892,0.225-1.785,0.349-2.858l0.224-1.309c2.55-12.807,2.716-24.59,2.206-37.204
	c7.686,3.406,14.941,3.761,22.033-1.368c-0.014,0.902-0.086,1.871-0.08,2.852c0.099,7.793,0.062,15.586,0.388,23.382
	c0.128,3.54,0.414,6.473,0.87,10.018c0.225,1.731,0.355,4.185,0.416,5.531C1522.514,292.664,1515.547,296.387,1515.547,296.387z
	 M1546.85,232.867c-0.054,2.105-2.578,2.661-4.233,3.411c-2.739,1.24-5.05,0.383-6.926-1.086c-1.368-1.086-3.16-2.42-2.17-4.65
	c-2.07,0.742-3.054,2.24-3.18,4.03c-0.13,1.864,0.931,3.054,2.544,3.739c1.026,0.432,2.214,0.704,3.367,0.725
	c5.225,0.082,9.757-1.88,13.775-5.095c0.609-0.49,1.117-1.148,1.517-1.807c0.804-1.387,0.688-2.653-0.827-3.214
	c-1.309-0.483-1.594-0.582-3.5-0.649c-1.9-0.072-3.133,0.355-3.133,0.355C1547.754,231.668,1546.85,232.867,1546.85,232.867z
	 M1506.274,230.811c0,0-1.292-0.095-3.102,0.463c-1.828,0.558-2.08,0.728-3.219,1.536c-1.311,0.929-1.09,2.184,0.043,3.306
	c0.558,0.534,1.21,1.033,1.925,1.355c4.705,2.055,9.587,2.768,14.602,1.333c1.104-0.311,2.185-0.879,3.057-1.565
	c1.381-1.082,2.096-2.501,1.478-4.26c-0.578-1.695-1.911-2.885-4.101-3.064c1.526,1.895,0.152,3.647-0.891,5.042
	c-1.432,1.908-3.428,3.333-6.394,2.846c-1.789-0.297-4.369-0.18-4.964-2.193C1504.709,235.61,1503.531,234.687,1506.274,230.811z
	 M1458.647,270.976c0.331-1.307,0.659-3.037,1.227-4.688c1.157-3.382,2.341-8.982,3.177-12.427
	c1.889-7.571,3.867-12.855,5.533-20.465c0.205-0.961,0.328-1.927,0.493-2.811c5.917,6.453,13.096,7.563,21.309,5.772
	c-3.036,12.256-5.249,23.832-5.328,36.887l-0.044,1.328c-0.094,1.078-0.134,1.981-0.236,2.869c-0.604,4.861-1.618,9.566-4.54,13.681
	c-3.894,5.52-13.549,7.053-18.181,0.603C1462.059,291.726,1455.53,285.226,1458.647,270.976z M1485.833,234.045
	c-1.142,1.768-3.587,0.931-5.391,0.71c-2.983-0.367-4.511-2.301-5.347-4.531c-0.604-1.64-1.441-3.71,0.565-5.102
	c-2.153-0.443-3.772,0.325-4.812,1.788c-1.08,1.524-0.795,3.092,0.227,4.519c0.652,0.902,1.525,1.752,2.499,2.37
	c4.419,2.788,9.31,3.47,14.414,2.817c0.777-0.103,1.551-0.4,2.236-0.754c1.409-0.766,1.969-1.908,0.968-3.174
	c-0.867-1.094-1.06-1.327-2.652-2.376c-1.584-1.051-2.861-1.326-2.861-1.326C1487.228,233.491,1485.833,234.045,1485.833,234.045z
	 M1562.708,219.276c0,0-1.181,0.534-2.505,1.888c-1.338,1.364-1.479,1.632-2.095,2.888c-0.708,1.442,0.085,2.438,1.617,2.883
	c0.744,0.204,1.556,0.331,2.337,0.273c5.116-0.443,9.746-2.148,13.468-5.803c0.821-0.8,1.5-1.814,1.938-2.833
	c0.697-1.613,0.647-3.2-0.735-4.451c-1.318-1.212-3.057-1.622-5.066-0.733c2.245,0.936,1.875,3.131,1.625,4.855
	c-0.347,2.361-1.42,4.566-4.258,5.555c-1.712,0.594-3.924,1.929-5.408,0.444C1563.625,224.242,1562.147,223.993,1562.708,219.276z
	 M1597.17,276.662c-3.392,7.178-13.166,7.415-17.992,2.687c-3.618-3.524-5.46-7.968-6.936-12.635c-0.26-0.857-0.46-1.74-0.748-2.781
	l-0.283-1.297c-2.434-12.83-6.694-23.817-11.893-35.322c8.4,0.279,15.26-2.11,19.914-9.523c0.325,0.843,0.623,1.766,0.994,2.675
	c3.013,7.188,5.898,14.427,9.121,21.533c1.446,3.235,2.811,5.846,4.562,8.962c0.858,1.522,1.896,3.748,2.458,4.973
	C1602.235,270.599,1597.17,276.662,1597.17,276.662z M1916.46,282.848c-0.112-1.213-0.356-2.786-0.372-4.362
	c-0.037-3.228-0.723-8.353-1.053-11.537c-0.681-7.015-0.595-12.11-1.478-19.092c-0.114-0.878-0.303-1.738-0.428-2.542
	c6.986,3.705,13.432,2.479,19.881-1.527c1.121,11.348,2.735,21.869,6.617,33.006l0.363,1.142c0.246,0.948,0.484,1.727,0.668,2.515
	c0.955,4.321,1.515,8.631,0.271,13.016c-1.646,5.875-9.401,10.099-15.294,6.01C1925.637,299.477,1918.115,295.92,1916.46,282.848z
	 M1898.806,299.45c-5.326,4.802-13.556,1.598-15.933-4.023c-1.788-4.195-1.777-8.542-1.381-12.946
	c0.081-0.804,0.221-1.61,0.345-2.577l0.215-1.18c2.438-11.54,2.71-22.18,2.381-33.578c6.905,3.157,13.455,3.553,19.914-1.006
	c-0.022,0.814-0.097,1.688-0.104,2.575c0.009,7.04-0.105,14.077,0.106,21.121c0.081,3.199,0.308,5.851,0.682,9.058
	c0.186,1.566,0.278,3.783,0.318,5C1905.136,296.161,1898.806,299.45,1898.806,299.45z M1927.739,242.409
	c-0.07,1.901-2.355,2.376-3.857,3.037c-2.486,1.092-4.565,0.293-6.243-1.053c-1.226-0.996-2.83-2.219-1.911-4.223
	c-1.878,0.648-2.783,1.991-2.915,3.607c-0.137,1.682,0.809,2.769,2.259,3.403c0.922,0.401,1.992,0.659,3.034,0.69
	c4.718,0.128,8.831-1.596,12.493-4.458c0.555-0.437,1.021-1.025,1.389-1.616c0.74-1.245,0.649-2.389-0.712-2.912
	c-1.178-0.45-1.435-0.542-3.155-0.623c-1.715-0.085-2.834,0.289-2.834,0.289C1928.568,241.335,1927.739,242.409,1927.739,242.409z
	 M1891.115,240.128c0,0-1.166-0.1-2.806,0.385c-1.657,0.485-1.887,0.636-2.924,1.354c-1.193,0.825-1.008,1.96,0.004,2.986
	c0.498,0.488,1.082,0.945,1.726,1.245c4.227,1.905,8.629,2.6,13.173,1.356c1-0.269,1.982-0.771,2.777-1.381
	c1.258-0.963,1.92-2.237,1.379-3.832c-0.504-1.538-1.695-2.626-3.672-2.811c1.358,1.727,0.099,3.295-0.856,4.544
	c-1.314,1.709-3.131,2.974-5.804,2.504c-1.613-0.287-3.944-0.208-4.462-2.033C1889.651,244.446,1888.597,243.6,1891.115,240.128z
	 M1847.681,275.906c0.313-1.177,0.627-2.736,1.158-4.221c1.08-3.042,2.207-8.087,2.999-11.19c1.785-6.818,3.626-11.57,5.21-18.425
	c0.195-0.866,0.317-1.737,0.475-2.533c5.277,5.89,11.75,6.967,19.186,5.436c-2.869,11.037-4.989,21.469-5.197,33.259l-0.053,1.198
	c-0.097,0.973-0.143,1.788-0.243,2.589c-0.598,4.383-1.562,8.623-4.243,12.308c-3.574,4.945-12.311,6.228-16.428,0.354
	C1850.545,294.682,1844.717,288.744,1847.681,275.906z M1872.619,242.836c-1.051,1.585-3.249,0.803-4.876,0.585
	c-2.69-0.362-4.051-2.125-4.782-4.147c-0.528-1.488-1.264-3.366,0.563-4.602c-1.94-0.423-3.411,0.254-4.366,1.564
	c-0.99,1.366-0.749,2.785,0.159,4.083c0.579,0.822,1.358,1.599,2.233,2.167c3.96,2.564,8.371,3.231,12.988,2.695
	c0.702-0.084,1.404-0.345,2.026-0.658c1.281-0.677,1.799-1.702,0.906-2.857c-0.771-0.997-0.942-1.209-2.369-2.173
	c-1.42-0.965-2.57-1.227-2.57-1.227C1873.885,242.35,1872.619,242.836,1872.619,242.836z M1942.204,230.299
	c0,0-1.072,0.471-2.283,1.679c-1.222,1.218-1.353,1.459-1.922,2.586c-0.654,1.295,0.052,2.203,1.432,2.621
	c0.669,0.191,1.401,0.315,2.108,0.271c4.625-0.346,8.823-1.838,12.224-5.1c0.749-0.714,1.373-1.623,1.779-2.539
	c0.646-1.45,0.618-2.884-0.618-4.027c-1.177-1.108-2.744-1.498-4.566-0.715c2.017,0.869,1.659,2.848,1.416,4.402
	c-0.339,2.128-1.33,4.109-3.903,4.972c-1.554,0.519-3.564,1.701-4.89,0.345C1942.98,234.794,1941.648,234.554,1942.204,230.299z
	 M1972.729,282.488c-3.139,6.447-11.969,6.56-16.277,2.239c-3.231-3.221-4.849-7.254-6.132-11.484
	c-0.227-0.777-0.398-1.576-0.647-2.52l-0.242-1.174c-2.063-11.613-5.797-21.581-10.371-32.025c7.584,0.34,13.804-1.747,18.083-8.393
	c0.285,0.765,0.545,1.602,0.872,2.426c2.645,6.523,5.176,13.091,8.012,19.543c1.271,2.936,2.478,5.309,4.026,8.142
	c0.758,1.384,1.672,3.404,2.167,4.517C1977.367,277.065,1972.729,282.488,1972.729,282.488z M2298.056,300.312
	c-0.066-1.01-0.234-2.321-0.212-3.629c0.04-2.68-0.415-6.951-0.618-9.601c-0.409-5.839-0.225-10.067-0.803-15.882
	c-0.075-0.732-0.212-1.45-0.299-2.12c5.718,3.231,11.096,2.357,16.539-0.827c0.678,9.445,1.785,18.216,4.76,27.547l0.276,0.957
	c0.183,0.793,0.364,1.444,0.499,2.103c0.696,3.608,1.065,7.199-0.063,10.812c-1.497,4.841-8.029,8.175-12.83,4.649
	C2305.305,314.32,2299.14,311.2,2298.056,300.312z M2283.03,313.702c-4.527,3.868-11.289,1.025-13.137-3.694
	c-1.392-3.522-1.286-7.13-0.859-10.778c0.086-0.666,0.219-1.332,0.344-2.132l0.205-0.976c2.278-9.525,2.741-18.353,2.722-27.822
	c5.662,2.774,11.091,3.248,16.554-0.393c-0.036,0.675-0.117,1.4-0.143,2.136c-0.148,5.844-0.4,11.684-0.38,17.537
	c-0.005,2.657,0.124,4.864,0.363,7.535c0.12,1.304,0.147,3.146,0.154,4.157C2288.358,311.112,2283.03,313.702,2283.03,313.702z
	 M2308.317,266.99c-0.102,1.577-2.009,1.921-3.27,2.436c-2.089,0.851-3.797,0.142-5.159-1.013c-0.996-0.854-2.301-1.905-1.494-3.548
	c-1.573,0.497-2.354,1.592-2.5,2.93c-0.15,1.393,0.61,2.316,1.8,2.875c0.757,0.354,1.639,0.592,2.504,0.64
	c3.914,0.211,7.366-1.129,10.471-3.423c0.47-0.351,0.87-0.829,1.188-1.311c0.642-1.017,0.593-1.969-0.526-2.433
	c-0.968-0.4-1.18-0.481-2.605-0.587c-1.422-0.109-2.359,0.177-2.359,0.177C2309.029,266.118,2308.317,266.99,2308.317,266.99z
	 M2277.964,264.284c0,0-0.966-0.108-2.338,0.257c-1.387,0.367-1.58,0.486-2.457,1.06c-1.01,0.659-0.88,1.605-0.063,2.479
	c0.403,0.416,0.877,0.809,1.405,1.071c3.467,1.676,7.105,2.35,10.905,1.419c0.836-0.201,1.663-0.596,2.337-1.085
	c1.064-0.772,1.643-1.814,1.229-3.151c-0.384-1.288-1.35-2.217-2.985-2.415c1.089,1.464,0.008,2.738-0.813,3.753
	c-1.13,1.39-2.665,2.4-4.874,1.95c-1.333-0.273-3.27-0.26-3.659-1.786C2276.652,267.836,2275.796,267.11,2277.964,264.284z
	 M2241.11,293.021c0.287-0.971,0.582-2.258,1.056-3.479c0.965-2.501,2.012-6.665,2.739-9.223c1.633-5.621,3.266-9.525,4.733-15.181
	c0.181-0.714,0.302-1.435,0.45-2.093c4.251,5.007,9.6,6.045,15.807,4.939c-2.627,9.099-4.619,17.712-5.053,27.495l-0.07,0.994
	c-0.103,0.806-0.159,1.481-0.26,2.144c-0.593,3.626-1.488,7.124-3.795,10.124c-3.078,4.025-10.358,4.896-13.647-0.07
	C2243.071,308.672,2238.365,303.612,2241.11,293.021z M2262.549,266.121c-0.908,1.292-2.716,0.595-4.061,0.377
	c-2.226-0.36-3.315-1.854-3.878-3.549c-0.405-1.247-0.975-2.822,0.569-3.808c-1.602-0.395-2.838,0.135-3.659,1.202
	c-0.853,1.112-0.684,2.295,0.041,3.394c0.463,0.695,1.093,1.358,1.807,1.848c3.23,2.217,6.877,2.869,10.723,2.526
	c0.585-0.055,1.173-0.255,1.696-0.501c1.079-0.534,1.531-1.374,0.816-2.352c-0.618-0.845-0.756-1.025-1.919-1.857
	c-1.158-0.833-2.106-1.076-2.106-1.076C2263.609,265.746,2262.549,266.121,2262.549,266.121z M2320.595,257.259
	c0,0-0.901,0.367-1.934,1.343c-1.041,0.983-1.155,1.181-1.652,2.104c-0.571,1.06-0.006,1.83,1.13,2.207
	c0.551,0.174,1.156,0.293,1.744,0.272c3.848-0.185,7.366-1.33,10.261-3.963c0.638-0.576,1.177-1.316,1.534-2.067
	c0.568-1.189,0.577-2.381-0.424-3.357c-0.952-0.946-2.245-1.304-3.775-0.695c1.655,0.766,1.314,2.4,1.078,3.686
	c-0.329,1.759-1.195,3.381-3.351,4.041c-1.302,0.396-2.997,1.333-4.067,0.177C2321.139,261.007,2320.038,260.778,2320.595,257.259z
	 M2344.777,301.262c-2.75,5.283-10.083,5.18-13.563,1.498c-2.611-2.746-3.864-6.13-4.835-9.67c-0.172-0.65-0.296-1.317-0.482-2.106
	l-0.175-0.98c-1.454-9.686-4.333-18.044-7.898-26.817c6.288,0.451,11.498-1.143,15.199-6.566c0.219,0.641,0.416,1.342,0.669,2.034
	c2.051,5.474,4.007,10.983,6.217,16.402c0.991,2.466,1.939,4.462,3.162,6.849c0.599,1.165,1.313,2.863,1.699,3.798
	C2348.747,296.863,2344.777,301.262,2344.777,301.262z M2677.615,291.475c-0.056-0.833-0.194-1.916-0.176-2.996
	c0.033-2.213-0.342-5.738-0.51-7.926c-0.338-4.82-0.186-8.311-0.663-13.111c-0.062-0.604-0.175-1.197-0.246-1.75
	c4.72,2.667,9.159,1.946,13.653-0.683c0.559,7.797,1.473,15.038,3.929,22.741l0.228,0.79c0.151,0.655,0.301,1.192,0.412,1.736
	c0.575,2.979,0.88,5.943-0.052,8.925c-1.236,3.996-6.628,6.749-10.592,3.838C2683.599,303.039,2678.51,300.463,2677.615,291.475z
	 M2665.211,302.528c-3.737,3.193-9.319,0.847-10.844-3.049c-1.149-2.908-1.063-5.886-0.71-8.897c0.071-0.55,0.181-1.099,0.284-1.76
	l0.169-0.806c1.881-7.863,2.263-15.15,2.247-22.967c4.674,2.29,9.155,2.681,13.665-0.325c-0.03,0.558-0.097,1.156-0.118,1.763
	c-0.122,4.825-0.33,9.645-0.313,14.477c-0.004,2.194,0.103,4.015,0.3,6.22c0.1,1.076,0.122,2.597,0.128,3.432
	C2669.609,300.391,2665.211,302.528,2665.211,302.528z M2686.086,263.967c-0.084,1.302-1.658,1.586-2.699,2.011
	c-1.725,0.703-3.135,0.117-4.259-0.836c-0.822-0.705-1.899-1.572-1.233-2.929c-1.299,0.41-1.943,1.314-2.063,2.419
	c-0.124,1.15,0.503,1.912,1.485,2.374c0.625,0.292,1.353,0.489,2.067,0.528c3.23,0.174,6.081-0.932,8.644-2.825
	c0.388-0.29,0.718-0.684,0.98-1.082c0.53-0.84,0.49-1.625-0.434-2.009c-0.8-0.33-0.975-0.397-2.151-0.485
	c-1.174-0.09-1.948,0.146-1.948,0.146C2686.674,263.248,2686.086,263.967,2686.086,263.967z M2661.029,261.733
	c0,0-0.798-0.09-1.931,0.212c-1.145,0.303-1.304,0.401-2.028,0.875c-0.833,0.544-0.727,1.325-0.053,2.046
	c0.334,0.343,0.725,0.667,1.16,0.884c2.862,1.383,5.866,1.94,9.003,1.171c0.69-0.166,1.373-0.492,1.929-0.896
	c0.879-0.637,1.356-1.498,1.016-2.601c-0.317-1.063-1.114-1.831-2.465-1.993c0.898,1.208,0.007,2.26-0.671,3.098
	c-0.933,1.147-2.2,1.981-4.023,1.61c-1.101-0.226-2.699-0.214-3.021-1.475C2659.946,264.666,2659.239,264.066,2661.029,261.733z
	 M2630.605,285.457c0.237-0.801,0.48-1.864,0.872-2.872c0.796-2.065,1.66-5.502,2.261-7.613c1.349-4.64,2.696-7.863,3.908-12.532
	c0.148-0.59,0.249-1.184,0.371-1.728c3.51,4.133,7.925,4.99,13.049,4.077c-2.169,7.511-3.813,14.622-4.171,22.697l-0.059,0.82
	c-0.085,0.665-0.131,1.223-0.214,1.77c-0.49,2.993-1.229,5.88-3.133,8.357c-2.541,3.323-8.551,4.042-11.267-0.058
	C2632.225,298.376,2628.34,294.199,2630.605,285.457z M2648.304,263.25c-0.75,1.067-2.242,0.491-3.353,0.312
	c-1.837-0.297-2.736-1.53-3.201-2.93c-0.334-1.029-0.805-2.33,0.471-3.144c-1.322-0.326-2.343,0.112-3.021,0.992
	c-0.703,0.918-0.564,1.895,0.034,2.801c0.382,0.574,0.902,1.121,1.491,1.526c2.667,1.83,5.678,2.368,8.852,2.085
	c0.483-0.045,0.969-0.211,1.4-0.414c0.891-0.44,1.265-1.134,0.674-1.941c-0.51-0.698-0.624-0.846-1.584-1.533
	c-0.956-0.688-1.738-0.888-1.738-0.888C2649.179,262.94,2648.304,263.25,2648.304,263.25z M2696.221,255.935
	c0,0-0.744,0.303-1.596,1.109c-0.859,0.812-0.954,0.975-1.364,1.737c-0.472,0.875-0.005,1.511,0.933,1.822
	c0.455,0.144,0.955,0.242,1.439,0.225c3.177-0.152,6.081-1.098,8.471-3.271c0.526-0.476,0.972-1.087,1.267-1.707
	c0.469-0.982,0.477-1.965-0.35-2.771c-0.786-0.781-1.854-1.077-3.117-0.574c1.366,0.632,1.085,1.981,0.89,3.042
	c-0.271,1.452-0.986,2.791-2.766,3.336c-1.074,0.327-2.474,1.1-3.357,0.146C2696.67,259.028,2695.762,258.839,2696.221,255.935z
	 M2716.184,292.259c-2.27,4.361-8.323,4.276-11.196,1.236c-2.156-2.267-3.19-5.06-3.991-7.982c-0.143-0.537-0.244-1.088-0.398-1.739
	l-0.145-0.809c-1.2-7.996-3.577-14.895-6.52-22.137c5.19,0.372,9.491-0.944,12.547-5.42c0.18,0.529,0.343,1.108,0.552,1.679
	c1.693,4.519,3.308,9.067,5.132,13.541c0.818,2.036,1.602,3.684,2.61,5.654c0.494,0.961,1.084,2.363,1.403,3.135
	C2719.461,288.628,2716.184,292.259,2716.184,292.259z"/>
<path id="Supporting_cells_-_body_1_" fill="#FFFFFF" stroke="#FFFFFF" stroke-width="3" stroke-miterlimit="10" d="
	M1051.154,632.125c1.479,9.173-4.76,17.807-13.931,19.285c-9.173,1.477-17.807-4.761-19.284-13.932
	c-1.478-9.174,4.76-17.808,13.933-19.285C1041.042,616.717,1049.676,622.953,1051.154,632.125z M967.226,642.858
	c1.258,7.808-4.052,15.157-11.86,16.415c-7.809,1.259-15.157-4.052-16.416-11.858c-1.259-7.81,4.052-15.159,11.858-16.416
	C958.62,629.74,965.968,635.051,967.226,642.858z M881.095,628.986c1.478,9.174-4.759,17.807-13.933,19.284
	c-9.172,1.479-17.807-4.761-19.283-13.933c-1.479-9.172,4.76-17.806,13.932-19.282C870.982,613.577,879.616,619.813,881.095,628.986
	z M1142.589,586.075c-0.751,9.26-8.866,16.158-18.127,15.408c-9.26-0.748-16.159-8.867-15.408-18.127
	c0.749-9.262,8.865-16.158,18.125-15.406C1136.44,568.698,1143.34,576.813,1142.589,586.075z M1555.642,310.371
	c0.275,3.786-2.57,7.078-6.355,7.354c-3.786,0.275-7.078-2.57-7.354-6.355c-0.275-3.787,2.57-7.078,6.356-7.353
	C1552.074,303.741,1555.366,306.585,1555.642,310.371z M1521.103,311.755c0.234,3.223-2.188,6.025-5.412,6.26
	c-3.222,0.234-6.024-2.188-6.259-5.41c-0.235-3.223,2.188-6.025,5.41-6.26C1518.065,306.11,1520.868,308.533,1521.103,311.755z
	 M1486.54,303.048c0.275,3.786-2.57,7.079-6.355,7.354c-3.786,0.276-7.079-2.57-7.354-6.356c-0.276-3.785,2.57-7.077,6.356-7.352
	C1482.972,296.417,1486.264,299.262,1486.54,303.048z M1594.492,294.879c-0.635,3.742-4.183,6.26-7.925,5.626
	c-3.742-0.634-6.261-4.184-5.626-7.925c0.635-3.743,4.182-6.261,7.924-5.626C1592.607,287.588,1595.126,291.135,1594.492,294.879z
	 M1935.141,312.273c0.209,3.422-2.395,6.366-5.815,6.575c-3.422,0.209-6.367-2.396-6.576-5.817c-0.21-3.423,2.395-6.366,5.818-6.575
	C1931.988,306.248,1934.932,308.851,1935.141,312.273z M1903.932,313.164c0.178,2.913-2.039,5.419-4.953,5.597
	c-2.912,0.178-5.419-2.039-5.595-4.952c-0.18-2.913,2.037-5.418,4.949-5.597C1901.249,308.033,1903.755,310.25,1903.932,313.164z
	 M1872.807,304.938c0.211,3.422-2.394,6.366-5.815,6.575c-3.422,0.21-6.367-2.395-6.576-5.817s2.396-6.366,5.818-6.575
	C1869.654,298.913,1872.599,301.516,1872.807,304.938z M1970.392,298.688c-0.612,3.373-3.844,5.61-7.218,4.999
	c-3.373-0.611-5.611-3.844-5-7.217c0.612-3.373,3.844-5.61,7.217-4.998C1968.765,292.083,1971.003,295.313,1970.392,298.688z
	 M2313.375,324.748c0.098,2.846-2.129,5.231-4.974,5.329c-2.845,0.098-5.232-2.13-5.33-4.975c-0.098-2.846,2.13-5.231,4.976-5.329
	C2310.892,319.676,2313.277,321.902,2313.375,324.748z M2287.446,324.794c0.083,2.422-1.813,4.454-4.235,4.536
	c-2.423,0.083-4.453-1.813-4.535-4.235c-0.085-2.422,1.811-4.453,4.233-4.536C2285.334,320.476,2287.365,322.372,2287.446,324.794z
	 M2261.79,317.274c0.1,2.846-2.128,5.232-4.974,5.329c-2.846,0.098-5.233-2.129-5.33-4.975c-0.098-2.845,2.13-5.231,4.976-5.329
	C2259.308,312.202,2261.693,314.429,2261.79,317.274z M2342.94,314.252c-0.582,2.787-3.314,4.572-6.103,3.99
	c-2.786-0.583-4.573-3.316-3.991-6.103c0.584-2.786,3.316-4.572,6.104-3.989C2341.737,308.734,2343.523,311.465,2342.94,314.252z
	 M2690.784,311.298c0.081,2.349-1.757,4.319-4.105,4.399c-2.349,0.081-4.319-1.758-4.4-4.106c-0.08-2.35,1.759-4.319,4.107-4.399
	S2690.704,308.949,2690.784,311.298z M2669.38,311.336c0.068,1.999-1.496,3.676-3.496,3.745c-2,0.069-3.676-1.496-3.744-3.496
	c-0.069-1.999,1.495-3.676,3.495-3.745C2667.637,307.771,2669.313,309.336,2669.38,311.336z M2648.201,305.128
	c0.082,2.35-1.757,4.319-4.106,4.399c-2.349,0.081-4.32-1.758-4.399-4.107c-0.081-2.349,1.758-4.319,4.107-4.399
	C2646.151,300.941,2648.121,302.779,2648.201,305.128z M2715.191,302.633c-0.48,2.3-2.736,3.774-5.038,3.294
	c-2.3-0.481-3.775-2.738-3.295-5.038c0.482-2.3,2.737-3.774,5.038-3.293S2715.672,300.333,2715.191,302.633z"/>
<path id="Hair_cells_-_stereocilia" fill="#0066CC" stroke="#FFFFFF" stroke-width="0.5" stroke-miterlimit="10" d="
	M1011.731,444.696c0,0-9.888-49.904-12.43-52.32c-2.541-2.413,9.716,50.953,9.716,50.953L1011.731,444.696z M1008.514,445.458
	c0,0-13.018-65.701-16.363-68.882c-3.347-3.178,12.792,67.084,12.792,67.084L1008.514,445.458z M1003.602,443.446
	c0,0-14.564-75.111-17.599-79.515c-3.039-4.403,14.868,79.493,14.868,79.493L1003.602,443.446z M999.598,443.61
	c0,0-18.532-97.777-21.874-97.619c-3.341,0.157,19.827,97.012,19.827,97.012L999.598,443.61z M997.796,444.038
	c0,0-25.669-116.739-27.981-117.781c-2.312-1.041,25.819,118.42,26.537,118.911C997.07,445.66,997.796,444.038,997.796,444.038z
	 M1077.125,405.03c0,0-19.208-47.109-22.162-48.997c-2.954-1.886,19.238,48.171,19.238,48.171L1077.125,405.03z M1074.112,406.391
	c0,0-25.287-62.021-29.176-64.508c-3.892-2.482,25.328,63.423,25.328,63.423L1074.112,406.391z M1068.907,405.352
	c0,0-28.596-70.966-32.414-74.711c-3.821-3.744,29.729,75.208,29.729,75.208L1068.907,405.352z M1065.007,406.274
	c0,0-36.806-92.461-40.057-91.67c-3.25,0.791,37.932,91.462,37.932,91.462L1065.007,406.274z M1063.321,407.037
	c0,0-47.423-109.718-49.892-110.301c-2.468-0.582,47.89,111.339,48.688,111.685C1062.917,408.768,1063.321,407.037,1063.321,407.037
	z M920.32,451.019c0,0-4.061-54.604-5.774-51.548c-1.715,3.059,3.586,53.653,3.586,53.653L920.32,451.019z M924.31,450.13
	c0,0-5.346-71.893-7.603-67.869c-2.257,4.028,4.722,70.643,4.722,70.643L924.31,450.13z M928.127,448.704
	c0,0-7.684-85.443-9.285-80.338c-1.599,5.104,6.685,81.162,6.685,81.162L928.127,448.704z M931.176,447.316
	c0,0-6.488-99.372-9.726-98.537c-3.239,0.835,7.951,99.723,7.951,99.723L931.176,447.316z M932.962,449.032
	c0.539-0.682-7.887-123.121-9.788-121.443c-1.901,1.678,8.075,120.791,8.075,120.791S932.421,449.716,932.962,449.032z
	 M847.277,449.714c0,0,5.221-54.506,3.015-51.781c-2.206,2.723-5.525,53.488-5.525,53.488L847.277,449.714z M851.361,449.517
	c0,0,6.875-71.767,3.97-68.18c-2.905,3.588-7.277,70.424-7.277,70.424L851.361,449.517z M855.366,448.751
	c0,0,6.856-85.513,4.417-80.752c-2.439,4.763-7.121,81.127-7.121,81.127L855.366,448.751z M858.603,447.899
	c0,0,10.39-99.041,7.057-98.764c-3.333,0.278-9.005,99.635-9.005,99.635L858.603,447.899z M860.074,449.892
	c0.647-0.58,13.023-122.682,10.865-121.35c-2.157,1.332-12.443,120.418-12.443,120.418S859.426,450.474,860.074,449.892z
	 M1544.551,233.979c0,0-2.25-20.662-3.198-21.735c-0.948-1.073,2.143,21.083,2.143,21.083L1544.551,233.979z M1543.214,234.175
	c0,0-2.962-27.203-4.211-28.616c-1.25-1.412,2.822,27.758,2.822,27.758L1543.214,234.175z M1541.288,233.182
	c0,0-3.258-31.088-4.337-32.988c-1.081-1.9,3.225,32.882,3.225,32.882L1541.288,233.182z M1539.651,233.106
	c0,0-4.067-40.453-5.432-40.508c-1.365-0.054,4.621,40.188,4.621,40.188L1539.651,233.106z M1538.903,233.216
	c0,0-6.297-48.424-7.202-48.931c-0.904-0.506,6.299,49.114,6.574,49.339C1538.55,233.85,1538.903,233.216,1538.903,233.216z
	 M1572.577,220.16c0,0-6.144-19.855-7.279-20.729c-1.135-0.872,6.118,20.29,6.118,20.29L1572.577,220.16z M1571.302,220.607
	c0,0-8.087-26.141-9.582-27.292c-1.497-1.148,8.054,26.713,8.054,26.713L1571.302,220.607z M1569.221,219.999
	c0,0-9.116-29.9-10.537-31.56c-1.422-1.66,9.426,31.666,9.426,31.666L1569.221,219.999z M1567.6,220.236
	c0,0-11.693-38.94-13.044-38.734c-1.351,0.207,12.187,38.574,12.187,38.574L1567.6,220.236z M1566.887,220.486
	c0,0-15.401-46.34-16.385-46.666c-0.984-0.324,15.533,47.017,15.846,47.186C1566.661,221.177,1566.887,220.486,1566.887,220.486z
	 M1507.123,233.303c0,0,0.288-22.368-0.518-21.186c-0.807,1.184-0.448,21.964-0.448,21.964L1507.123,233.303z M1508.779,233.083
	c0,0,0.379-29.45-0.683-27.891c-1.062,1.559-0.589,28.919-0.589,28.919L1508.779,233.083z M1510.383,232.639
	c0,0-0.091-35.048-0.923-33.027c-0.833,2.02-0.165,33.27-0.165,33.27L1510.383,232.639z M1511.672,232.182
	c0,0,0.892-40.674-0.456-40.45c-1.348,0.226-0.309,40.87-0.309,40.87L1511.672,232.182z M1512.339,232.944
	c0.243-0.258,1.167-50.39,0.333-49.775c-0.833,0.616-1.007,49.448-1.007,49.448S1512.094,233.204,1512.339,232.944z
	 M1477.441,230.176c0,0,4.062-21.998,3.067-20.967c-0.995,1.029-4.15,21.572-4.15,21.572L1477.441,230.176z M1479.11,230.241
	c0,0,5.349-28.964,4.039-27.608c-1.31,1.357-5.465,28.404-5.465,28.404L1479.11,230.241z M1480.768,230.071
	c0,0,5.83-34.559,4.668-32.708c-1.162,1.852-5.782,32.766-5.782,32.766L1480.768,230.071z M1482.115,229.839
	c0,0,7.75-39.939,6.382-39.945c-1.366-0.005-7.206,40.231-7.206,40.231L1482.115,229.839z M1482.643,230.703
	c0.284-0.213,9.661-49.467,8.736-49.002c-0.926,0.465-9.346,48.567-9.346,48.567S1482.358,230.917,1482.643,230.703z
	 M1925.651,243.389c0,0-1.816-18.685-2.661-19.664c-0.845-0.979,1.715,19.064,1.715,19.064L1925.651,243.389z M1924.442,243.552
	c0,0-2.391-24.6-3.505-25.889c-1.113-1.289,2.261,25.1,2.261,25.1L1924.442,243.552z M1922.713,242.635
	c0,0-2.618-28.111-3.572-29.838c-0.957-1.727,2.569,29.731,2.569,29.731L1922.713,242.635z M1921.236,242.549
	c0,0-3.251-36.578-4.484-36.642c-1.231-0.063,3.755,36.345,3.755,36.345L1921.236,242.549z M1920.56,242.641
	c0,0-5.183-43.8-5.994-44.268c-0.812-0.466,5.177,44.424,5.422,44.63C1920.233,243.21,1920.56,242.641,1920.56,242.641z
	 M1951.106,231.2c0,0-5.34-17.997-6.356-18.797c-1.015-0.8,5.313,18.388,5.313,18.388L1951.106,231.2z M1949.952,231.591
	c0,0-7.033-23.694-8.369-24.749c-1.34-1.053,6.994,24.21,6.994,24.21L1949.952,231.591z M1948.078,231.02
	c0,0-7.922-27.1-9.188-28.613c-1.267-1.514,8.183,28.697,8.183,28.697L1948.078,231.02z M1946.612,231.218
	c0,0-10.154-35.292-11.376-35.12c-1.224,0.173,10.604,34.965,10.604,34.965L1946.612,231.218z M1945.965,231.436
	c0,0-13.426-42.013-14.311-42.317c-0.886-0.304,13.538,42.625,13.819,42.781C1945.755,232.057,1945.965,231.436,1945.965,231.436z
	 M1891.855,242.388c0,0,0.494-20.198-0.246-19.139c-0.741,1.061-0.634,19.832-0.634,19.832L1891.855,242.388z M1893.354,242.206
	c0,0,0.65-26.593-0.325-25.197c-0.976,1.397-0.834,26.112-0.834,26.112L1893.354,242.206z M1894.807,241.822
	c0,0,0.283-31.655-0.488-29.838c-0.774,1.815-0.496,30.046-0.496,30.046L1894.807,241.822z M1895.976,241.423
	c0,0,1.23-36.726,0.012-36.537c-1.219,0.189-0.706,36.909-0.706,36.909L1895.976,241.423z M1896.569,242.118
	c0.224-0.23,1.581-45.498,0.821-44.951c-0.759,0.547-1.426,44.649-1.426,44.649S1896.347,242.35,1896.569,242.118z M1865.08,239.254
	c0,0,3.898-19.826,2.99-18.905c-0.908,0.919-3.973,19.44-3.973,19.44L1865.08,239.254z M1866.588,239.33
	c0,0,5.133-26.104,3.936-24.892c-1.195,1.212-5.231,25.596-5.231,25.596L1866.588,239.33z M1868.086,239.193
	c0,0,5.627-31.151,4.558-29.492c-1.068,1.661-5.564,29.532-5.564,29.532L1868.086,239.193z M1869.305,238.999
	c0,0,7.416-35.991,6.182-36.01c-1.234-0.02-6.928,36.26-6.928,36.26L1869.305,238.999z M1869.773,239.784
	c0.259-0.189,9.241-44.576,8.4-44.166c-0.84,0.411-8.946,43.766-8.946,43.766S1869.515,239.974,1869.773,239.784z M2306.563,267.758
	c0,0-1.093-15.552-1.772-16.384c-0.68-0.831,1,15.864,1,15.864L2306.563,267.758z M2305.555,267.866c0,0-1.438-20.475-2.334-21.57
	c-0.896-1.094,1.318,20.887,1.318,20.887L2305.555,267.866z M2304.14,267.067c0,0-1.55-23.395-2.303-24.851
	c-0.757-1.455,1.473,24.739,1.473,24.739L2304.14,267.067z M2302.915,266.963c0,0-1.887-30.438-2.909-30.519
	c-1.021-0.08,2.312,30.256,2.312,30.256L2302.915,266.963z M2302.352,267.024c0,0-3.33-36.477-3.993-36.883
	c-0.663-0.405,3.311,36.994,3.511,37.171C2302.068,267.489,2302.352,267.024,2302.352,267.024z M2327.964,258.205
	c0,0-4.033-15.059-4.858-15.747c-0.825-0.686,4.002,15.384,4.002,15.384L2327.964,258.205z M2326.998,258.503
	c0,0-5.313-19.826-6.398-20.731c-1.089-0.904,5.27,20.253,5.27,20.253L2326.998,258.503z M2325.454,257.987
	c0,0-5.975-22.672-6.991-23.957c-1.018-1.285,6.156,24.005,6.156,24.005L2325.454,257.987z M2324.233,258.12
	c0,0-7.646-29.524-8.663-29.408c-1.021,0.116,8.026,29.262,8.026,29.262L2324.233,258.12z M2323.691,258.286
	c0,0-10.213-35.176-10.941-35.448c-0.728-0.272,10.293,35.687,10.522,35.822C2323.503,258.797,2323.691,258.286,2323.691,258.286z
	 M2278.528,266.176c0,0,0.858-16.757,0.22-15.893c-0.638,0.863-0.966,16.45-0.966,16.45L2278.528,266.176z M2279.776,266.059
	c0,0,1.13-22.063,0.289-20.926c-0.842,1.138-1.272,21.659-1.272,21.659L2279.776,266.059z M2280.99,265.772
	c0,0,0.938-26.273,0.258-24.782c-0.684,1.49-1.079,24.933-1.079,24.933L2280.99,265.772z M2281.97,265.467
	c0,0,1.838-30.461,0.821-30.332c-1.016,0.131-1.405,30.625-1.405,30.625L2281.97,265.467z M2282.447,266.057
	c0.19-0.187,2.323-37.736,1.681-37.298s-2.176,37.035-2.176,37.035S2282.258,266.245,2282.447,266.057z M2256.37,262.98
	c0,0,3.676-16.372,2.902-15.628c-0.775,0.743-3.73,16.05-3.73,16.05L2256.37,262.98z M2257.619,263.076
	c0,0,4.841-21.556,3.82-20.577c-1.02,0.979-4.911,21.133-4.911,21.133L2257.619,263.076z M2258.866,262.997
	c0,0,5.363-25.736,4.438-24.383c-0.924,1.355-5.275,24.394-5.275,24.394L2258.866,262.997z M2259.883,262.862
	c0,0,6.955-29.714,5.931-29.757c-1.023-0.043-6.556,29.948-6.556,29.948L2259.883,262.862z M2260.254,263.524
	c0.219-0.152,8.662-36.8,7.955-36.479c-0.706,0.323-8.399,36.134-8.399,36.134S2260.035,263.677,2260.254,263.524z
	 M2684.637,264.601c0,0-0.901-12.838-1.463-13.525c-0.561-0.686,0.826,13.096,0.826,13.096L2684.637,264.601z M2683.805,264.69
	c0,0-1.188-16.902-1.926-17.806c-0.74-0.903,1.088,17.242,1.088,17.242L2683.805,264.69z M2682.637,264.031
	c0,0-1.279-19.313-1.9-20.514c-0.625-1.202,1.216,20.422,1.216,20.422L2682.637,264.031z M2681.626,263.945
	c0,0-1.558-25.127-2.401-25.193c-0.843-0.065,1.908,24.977,1.908,24.977L2681.626,263.945z M2681.161,263.995
	c0,0-2.749-30.112-3.297-30.447c-0.547-0.334,2.733,30.539,2.898,30.685C2680.928,264.379,2681.161,263.995,2681.161,263.995z
	 M2702.305,256.715c0,0-3.33-12.431-4.011-12.999c-0.682-0.566,3.304,12.7,3.304,12.7L2702.305,256.715z M2701.507,256.961
	c0,0-4.386-16.367-5.282-17.113c-0.898-0.747,4.351,16.719,4.351,16.719L2701.507,256.961z M2700.232,256.536
	c0,0-4.932-18.716-5.771-19.777s5.082,19.816,5.082,19.816L2700.232,256.536z M2699.225,256.645c0,0-6.313-24.373-7.151-24.276
	c-0.843,0.096,6.626,24.156,6.626,24.156L2699.225,256.645z M2698.777,256.782c0,0-8.431-29.038-9.032-29.262
	c-0.601-0.225,8.497,29.459,8.687,29.571C2698.621,257.204,2698.777,256.782,2698.777,256.782z M2661.495,263.295
	c0,0,0.708-13.833,0.181-13.12c-0.526,0.712-0.797,13.579-0.797,13.579L2661.495,263.295z M2662.525,263.198
	c0,0,0.933-18.213,0.238-17.274c-0.695,0.94-1.051,17.88-1.051,17.88L2662.525,263.198z M2663.527,262.962
	c0,0,0.774-21.689,0.213-20.458c-0.564,1.23-0.891,20.583-0.891,20.583L2663.527,262.962z M2664.336,262.71
	c0,0,1.517-25.146,0.678-25.04c-0.838,0.108-1.16,25.282-1.16,25.282L2664.336,262.71z M2664.729,263.197
	c0.157-0.154,1.918-31.151,1.388-30.79s-1.796,30.572-1.796,30.572S2664.573,263.353,2664.729,263.197z M2643.203,260.657
	c0,0,3.034-13.515,2.396-12.901c-0.64,0.614-3.079,13.25-3.079,13.25L2643.203,260.657z M2644.234,260.736
	c0,0,3.996-17.795,3.153-16.987c-0.842,0.809-4.054,17.446-4.054,17.446L2644.234,260.736z M2645.264,260.67
	c0,0,4.428-21.245,3.664-20.128c-0.763,1.119-4.355,20.137-4.355,20.137L2645.264,260.67z M2646.103,260.56
	c0,0,5.741-24.529,4.896-24.564c-0.845-0.036-5.411,24.722-5.411,24.722L2646.103,260.56z M2646.409,261.106
	c0.181-0.126,7.15-30.379,6.567-30.114c-0.583,0.267-6.935,29.829-6.935,29.829S2646.229,261.232,2646.409,261.106z"/>
<path id="Hair_cells_-_kinocilia" fill="#F6921E" stroke="#FFFFFF" stroke-width="0.5" stroke-miterlimit="10" d="M926.125,329.694
	c0.84,21.359,10.65,119.728,10.65,119.728l4.017-0.651c0,0-11.194-122.521-11.198-149.792c-0.003-19.542,6.879-86.361-0.561-97.222
	s-1.13,13.471-1.374,29.389c-0.296,19.333-1.814,43.636-2.631,55.25C924.265,297.25,925.647,317.536,926.125,329.694z
	 M988.497,440.528c0,0,8.624,10.669,4.212-4.5c-2.491-8.566-19.69-95.982-28.034-120.432c0,0-33.051-101.042-30.692-112.058
	c2.358-11.017-7.358-10.411-2.359,11.017c5,21.427,12.354,51.364,20.813,78.65c9.847,31.761,18.518,62.496,21.772,77.445
	C977.463,385.598,987.304,429.201,988.497,440.528z M871.191,353.896c0,0,3.932-44.583,29.265-83.916s22.407-46,22.87-59.333
	s6.599-6.781,4.902,6.667c-2.335,18.499-8.563,29.923-16.437,43.832c-10,17.667-23.167,28.86-33.167,76.977
	s-13.209,111.03-13.209,111.03l-4.353-0.395L871.191,353.896z M1061.292,409.526l-3.833,1.829c0,0-22.251-55.657-45.633-98.882
	c-23.382-43.226-39.207-50.172-53.854-64.228c-11.532-11.066-20.776-20.224-28.319-37.275c-5.483-12.396-1.485-20.433,2.783-7.793
	c4.269,12.641,3.377,19.866,38.929,50.279s52.107,71.994,52.107,71.994L1061.292,409.526z M1513.798,184.131
	c-0.417,8.722,0.079,49.107,0.079,49.107l1.658-0.122c0,0-0.201-50.263,0.767-61.362c0.693-7.955,5.87-34.904,3.228-39.589
	c-2.642-4.685-0.938,5.442-1.604,11.912c-0.808,7.859-2.29,17.695-3.035,22.393C1514.194,170.86,1514.036,179.166,1513.798,184.131z
	 M1535.243,231.457c0,0,3.131,4.649,1.875-1.682c-0.709-3.575-4.602-39.764-7.129-50.012c0,0-9.86-42.298-8.508-46.697
	c1.352-4.401-2.625-4.5-1.352,4.399c1.273,8.899,3.203,21.344,5.675,32.75c2.878,13.276,5.315,26.093,6.108,32.293
	C1532.705,208.708,1535.16,226.805,1535.243,231.457z M1490.58,192.028c0,0,3.185-18.005,14.894-33.113
	c11.708-15.108,10.754-17.925,11.417-23.335c0.663-5.41,2.927-2.525,1.758,2.888c-1.608,7.445-4.549,11.874-8.248,17.255
	c-4.698,6.834-10.455,10.922-16.235,30.15c-5.78,19.228-9.323,44.719-9.323,44.719l-1.758-0.314L1490.58,192.028z M1565.973,221.427
	l-1.625,0.608c0,0-7.078-23.444-15.058-41.867c-7.979-18.423-14.173-21.813-19.635-28.054c-4.3-4.914-7.737-8.971-10.201-16.178
	c-1.792-5.241,0.121-8.369,1.409-3.073c1.288,5.296,0.668,8.205,14.057,21.848c13.388,13.642,18.647,31.153,18.647,31.153
	L1565.973,221.427z M1898.397,198.048c-0.468,7.873-0.442,44.352-0.442,44.352l1.499-0.092c0,0,0.345-45.398,1.333-55.412
	c0.709-7.177,5.667-31.463,3.328-35.721c-2.336-4.259-0.903,4.905-1.571,10.741c-0.812,7.089-2.252,15.958-2.975,20.192
	C1898.894,186.066,1898.664,193.565,1898.397,198.048z M1917.271,241.014c0,0,2.779,4.232,1.711-1.499
	c-0.604-3.236-3.742-35.961-5.917-45.243c0,0-8.463-38.305-7.197-42.264c1.267-3.96-2.323-4.091-1.266,3.959
	c1.057,8.051,2.669,19.311,4.783,29.638c2.461,12.021,4.528,23.622,5.179,29.229
	C1915.217,220.442,1917.245,236.811,1917.271,241.014z M1877.346,204.937c0,0,3.063-16.228,13.797-29.75
	c10.732-13.522,9.9-16.077,10.555-20.956c0.655-4.88,2.67-2.25,1.558,2.626c-1.53,6.708-4.232,10.676-7.628,15.498
	c-4.315,6.124-9.557,9.756-14.979,27.061s-8.887,40.291-8.887,40.291l-1.584-0.303L1877.346,204.937z M1945.13,232.277l-1.474,0.532
	c0,0-6.148-21.247-13.163-37.97c-7.014-16.722-12.572-19.849-17.44-25.542c-3.833-4.483-6.894-8.183-9.044-14.718
	c-1.563-4.752,0.197-7.558,1.306-2.76c1.107,4.796,0.517,7.417,12.467,19.878c11.95,12.46,16.517,28.331,16.517,28.331
	L1945.13,232.277z M2284.943,229.512c-0.563,6.525-1.352,36.809-1.352,36.809l1.246-0.043c0,0,1.295-37.68,2.337-45.972
	c0.748-5.942,5.403-25.994,3.557-29.581c-1.845-3.587-0.859,4.052-1.543,8.882c-0.831,5.868-2.224,13.198-2.918,16.697
	C2285.622,219.577,2285.265,225.797,2284.943,229.512z M2299.658,265.6c0,0,2.214,3.575,1.453-1.207
	c-0.429-2.7-2.308-29.937-3.906-37.691c0,0-6.175-31.987-5.037-35.246c1.14-3.259-1.838-3.448-1.138,3.258
	c0.697,6.707,1.786,16.09,3.312,24.711c1.776,10.034,3.235,19.711,3.65,24.38C2298.409,248.477,2299.729,262.111,2299.658,265.6z
	 M2267.314,234.764c0,0,2.902-13.404,12.114-24.392c9.21-10.988,8.576-13.127,9.228-17.163c0.652-4.037,2.267-1.809,1.235,2.215
	c-1.42,5.534-3.752,8.769-6.677,12.696c-3.719,4.988-8.15,7.887-13.036,22.133c-4.886,14.246-8.272,33.25-8.272,33.25l-1.308-0.287
	L2267.314,234.764z M2322.979,258.965l-1.235,0.409c0,0-4.633-17.775-10.084-31.813c-5.451-14.038-9.996-16.757-13.911-21.591
	c-3.083-3.807-5.542-6.947-7.182-12.419c-1.192-3.979,0.332-6.27,1.146-2.262c0.813,4.006,0.264,6.169,9.908,16.779
	c9.644,10.61,13.082,23.887,13.082,23.887L2322.979,258.965z M2666.79,233.029c-0.464,5.387-1.115,30.386-1.115,30.386l1.028-0.036
	c0,0,1.069-31.105,1.93-37.95c0.617-4.905,4.46-21.458,2.936-24.419c-1.522-2.961-0.709,3.345-1.273,7.333
	c-0.687,4.844-1.836,10.895-2.409,13.784C2667.351,224.827,2667.056,229.962,2666.79,233.029z M2678.938,262.82
	c0,0,1.828,2.951,1.199-0.996c-0.354-2.229-1.904-24.713-3.225-31.114c0,0-5.097-26.406-4.158-29.095
	c0.941-2.69-1.517-2.847-0.938,2.689c0.575,5.537,1.475,13.283,2.733,20.399c1.467,8.283,2.671,16.271,3.014,20.126
	C2677.906,248.684,2678.996,259.939,2678.938,262.82z M2652.237,237.364c0,0,2.396-11.065,10.001-20.136
	c7.603-9.07,7.079-10.836,7.617-14.167c0.539-3.333,1.871-1.494,1.02,1.828c-1.172,4.568-3.097,7.239-5.512,10.48
	c-3.069,4.118-6.729,6.511-10.762,18.271c-4.033,11.76-6.828,27.448-6.828,27.448l-1.08-0.236L2652.237,237.364z M2698.189,257.343
	l-1.02,0.337c0,0-3.824-14.673-8.324-26.262s-8.252-13.833-11.484-17.824c-2.545-3.143-4.574-5.735-5.928-10.252
	c-0.984-3.285,0.273-5.176,0.945-1.868c0.671,3.307,0.218,5.093,8.18,13.851c7.96,8.759,10.799,19.719,10.799,19.719
	L2698.189,257.343z"/>
<path id="Hair_cells_-_nuclei" fill="#FFFFFF" stroke="#FFFFFF" stroke-width="3" stroke-miterlimit="10" d="M1042.274,573.116
	c6.393-1.248,9.521-7.074,8.107-14.994c-2.438-13.521-7.265-19.336-14.828-17.889c-7.438,1.418-14.891,13.395-13.374,21.533
	C1023.909,571.325,1030.978,575.3,1042.274,573.116z M957.113,573.769c-0.886-8.235-11.464-17.563-18.992-16.793
	c-7.67,0.792-10.616,7.748-9.067,21.396c0.922,7.996,5.59,12.672,12.07,12.042C952.568,589.263,958.195,583.421,957.113,573.769z
	 M835.901,581.663c6.492,0.526,11.081-4.239,11.86-12.247c1.308-13.676-1.768-20.577-9.44-21.229
	c-7.543-0.646-17.956,8.871-18.697,17.114C818.707,574.972,824.438,580.709,835.901,581.663z M1135.311,510.4
	c-3.908-7.305-17.209-11.988-23.902-8.452c-6.813,3.607-6.939,11.159-0.389,23.232c3.85,7.068,9.929,9.656,15.703,6.64
	C1136.902,526.47,1139.931,518.943,1135.311,510.4z M1552.417,287.332c2.646-0.281,4.125-2.541,3.833-5.814
	c-0.512-5.589-2.269-8.128-5.399-7.808c-3.078,0.313-6.536,4.922-6.208,8.288C1545.006,285.95,1547.742,287.819,1552.417,287.332z
	 M1517.734,284.57c-0.067-3.383-4.042-7.556-7.133-7.51c-3.149,0.05-4.596,2.776-4.45,8.386c0.091,3.287,1.824,5.356,4.484,5.33
	C1515.333,290.714,1517.832,288.536,1517.734,284.57z M1468.121,283.474c2.623,0.444,4.66-1.332,5.263-4.563
	c1.018-5.519,0.012-8.438-3.088-8.976c-3.047-0.531-7.624,2.973-8.218,6.301C1461.36,280.139,1463.489,282.679,1468.121,283.474z
	 M1592.512,265.114c-1.331-3.112-6.578-5.492-9.428-4.29c-2.901,1.226-3.221,4.295-0.983,9.442c1.315,3.013,3.697,4.283,6.154,3.26
	C1592.589,271.71,1594.089,268.755,1592.512,265.114z M1932.199,291.657c2.393-0.227,3.753-2.251,3.522-5.211
	c-0.404-5.053-1.965-7.364-4.796-7.108c-2.782,0.251-5.953,4.377-5.692,7.421C1925.521,290.332,1927.972,292.049,1932.199,291.657z
	 M1900.903,288.8c-0.026-3.057-3.571-6.866-6.363-6.857c-2.846,0.012-4.181,2.459-4.107,7.527c0.048,2.97,1.592,4.856,3.995,4.861
	C1898.673,294.324,1900.951,292.384,1900.903,288.8z M1856.107,287.293c2.364,0.428,4.223-1.155,4.799-4.067
	c0.978-4.974,0.101-7.62-2.694-8.139c-2.747-0.512-6.916,2.605-7.487,5.604C1850.036,284.21,1851.932,286.526,1856.107,287.293z
	 M1968.643,272.009c-1.169-2.824-5.882-5.028-8.469-3.973c-2.633,1.077-2.956,3.845-0.988,8.517
	c1.158,2.735,3.295,3.907,5.525,3.009C1968.644,277.968,1970.029,275.314,1968.643,272.009z M2310.926,307.974
	c1.991-0.135,3.165-1.786,3.04-4.248c-0.224-4.204-1.468-6.157-3.823-6.007c-2.315,0.146-5.04,3.501-4.891,6.034
	C2305.411,306.725,2307.408,308.206,2310.926,307.974z M2285.009,304.908c0.045-2.539-2.813-5.779-5.13-5.834
	c-2.363-0.053-3.526,1.949-3.577,6.158c-0.027,2.466,1.213,4.067,3.208,4.124C2283.034,309.444,2284.969,307.884,2285.009,304.908z
	 M2247.854,302.662c1.952,0.408,3.531-0.865,4.074-3.27c0.922-4.108,0.252-6.324-2.057-6.816c-2.27-0.486-5.799,2.009-6.34,4.486
	C2242.883,299.967,2244.405,301.932,2247.854,302.662z M2341.616,292.473c-0.907-2.371-4.771-4.305-6.942-3.486
	c-2.21,0.835-2.54,3.126-1.009,7.048c0.9,2.296,2.648,3.316,4.521,2.621C2341.485,297.419,2342.694,295.247,2341.616,292.473z
	 M2688.239,297.799c1.644-0.111,2.612-1.474,2.51-3.506c-0.185-3.471-1.212-5.083-3.156-4.959c-1.911,0.121-4.161,2.891-4.037,4.981
	C2683.687,296.769,2685.335,297.991,2688.239,297.799z M2666.845,295.269c0.037-2.096-2.322-4.771-4.235-4.816
	c-1.951-0.044-2.911,1.609-2.953,5.083c-0.022,2.036,1.002,3.357,2.648,3.404C2665.215,299.013,2666.812,297.726,2666.845,295.269z
	 M2636.174,293.415c1.611,0.336,2.914-0.714,3.363-2.699c0.761-3.391,0.207-5.22-1.698-5.627c-1.874-0.401-4.787,1.659-5.233,3.704
	C2632.069,291.19,2633.326,292.812,2636.174,293.415z M2713.574,285.003c-0.749-1.958-3.938-3.554-5.73-2.878
	c-1.824,0.689-2.098,2.581-0.833,5.818c0.743,1.896,2.187,2.738,3.731,2.164C2713.467,289.086,2714.465,287.293,2713.574,285.003z"
	/>
<path id="Mantle_cells_-_nuclei" fill="#FFFFFF" stroke="#FFFFFF" stroke-width="3" stroke-miterlimit="10" d="M783.964,543.288
	c1.478,9.172-4.761,17.806-13.933,19.284s-17.807-4.762-19.284-13.933c-1.479-9.173,4.759-17.807,13.933-19.284
	C773.852,527.877,782.487,534.114,783.964,543.288z M1219.467,509.216c-0.751,9.26-8.867,16.157-18.127,15.408
	c-9.26-0.75-16.159-8.868-15.409-18.126c0.75-9.262,8.866-16.16,18.126-15.409C1213.318,491.839,1220.217,499.953,1219.467,509.216z
	 M1448.347,266.009c0.275,3.786-2.571,7.079-6.356,7.354c-3.786,0.276-7.078-2.57-7.354-6.355c-0.275-3.786,2.57-7.078,6.356-7.353
	C1444.778,259.377,1448.072,262.223,1448.347,266.009z M1626.806,267.622c-0.635,3.742-4.184,6.262-7.925,5.627
	c-3.743-0.634-6.262-4.183-5.627-7.925c0.634-3.742,4.183-6.261,7.925-5.626C1624.92,260.333,1627.44,263.879,1626.806,267.622z
	 M1838.431,271.313c0.208,3.422-2.396,6.366-5.818,6.575c-3.422,0.21-6.366-2.395-6.574-5.816c-0.21-3.422,2.395-6.366,5.816-6.575
	C1835.276,265.286,1838.221,267.891,1838.431,271.313z M1999.591,274.633c-0.613,3.373-3.845,5.611-7.218,4.999
	c-3.374-0.611-5.611-3.843-4.999-7.217c0.612-3.372,3.843-5.611,7.217-4.999C1997.964,268.029,2000.201,271.259,1999.591,274.633z
	 M2233.534,289.002c0.097,2.845-2.131,5.231-4.977,5.329c-2.846,0.099-5.231-2.13-5.328-4.975c-0.099-2.846,2.129-5.231,4.975-5.329
	S2233.436,286.157,2233.534,289.002z M2367.25,295.338c-0.583,2.787-3.315,4.573-6.103,3.989c-2.787-0.583-4.572-3.315-3.99-6.102
	c0.584-2.786,3.315-4.572,6.103-3.989C2366.047,289.82,2367.832,292.551,2367.25,295.338z M2624.352,282.139
	c0.08,2.349-1.759,4.319-4.108,4.399c-2.349,0.082-4.318-1.758-4.397-4.106c-0.082-2.35,1.757-4.318,4.105-4.399
	C2622.301,277.951,2624.271,279.79,2624.352,282.139z M2734.735,287.369c-0.481,2.3-2.737,3.775-5.038,3.293
	c-2.301-0.48-3.774-2.736-3.294-5.037c0.482-2.299,2.737-3.774,5.038-3.293C2733.742,282.813,2735.216,285.068,2734.735,287.369z"/>
</svg>
