<svg xmlns="http://www.w3.org/2000/svg" viewBox="0 0 38.11 32.87"><g id="Layer_2" data-name="Layer 2"><g id="Layer_1-2" data-name="Layer 1"><g id="Layer_2-2" data-name="Layer 2"><g id="Layer_1-2-2" data-name="Layer 1-2"><path d="M17.29,14c-1.63-3.31-4.65-4-7.71-4.49,1.49-2.72,2.77-5.54,1.14-8.85A.57.57,0,0,0,9.64,1a.52.52,0,0,0,.06.13,5.66,5.66,0,0,1,.42,1.1L1.73,6.35a5.74,5.74,0,0,1-.62-1A.57.57,0,1,0,0,5.71a.61.61,0,0,0,.07.14c1.63,3.31,4.66,4,7.7,4.48C6.33,13.05,5,15.89,6.67,19.2s4.67,4,7.71,4.49c-1.47,2.71-2.76,5.54-1.13,8.86a.57.57,0,0,0,.75.26h0a.56.56,0,0,0,.26-.75,5.86,5.86,0,0,1-.56-1.7l8.15-4a6.22,6.22,0,0,1,1,1.48.57.57,0,0,0,1-.5c-1.64-3.32-4.66-4-7.72-4.5C17.64,20.1,18.93,17.28,17.29,14ZM7.1,15.14l6.71-3.31a5.6,5.6,0,0,1,1.42,1.09l-8.07,4A6.12,6.12,0,0,1,7.1,15.14Zm.36-1.44A20.25,20.25,0,0,1,9,10.52a20.75,20.75,0,0,1,3.48.75Zm8.48.14.3.6a7.5,7.5,0,0,1,.37.93L8.19,19.52a5.78,5.78,0,0,1-.52-.86l-.3-.6Zm.93,2.67a5.7,5.7,0,0,1-.06,1.65L10.3,21.37A6.22,6.22,0,0,1,9,20.43Zm-.45,3.12a20.23,20.23,0,0,1-1.45,3A21.31,21.31,0,0,1,11.7,22Zm-8-10.34a21.79,21.79,0,0,1-3.48-.75l5-2.47A21.55,21.55,0,0,1,8.39,9.29Zm1.94-5.92a6.19,6.19,0,0,1-.05,1.29L3.57,8a6.87,6.87,0,0,1-1-.72Zm5.25,20.51a19.75,19.75,0,0,1,2.59.49l-3.78,1.86C14.73,25.45,15.14,24.67,15.58,23.88Zm-1.89,5.21a7.85,7.85,0,0,1,.21-1.36l5.8-2.86a6.83,6.83,0,0,1,1.22.66Z"/><path d="M31.47,13.67c-1.63-3.31-4.66-4-7.72-4.5C25.24,6.46,26.53,3.63,24.9.32a.58.58,0,0,0-.77-.26.57.57,0,0,0-.26.76,6.12,6.12,0,0,1,.43,1.1L15.9,6.06a5.76,5.76,0,0,1-.59-1,.58.58,0,0,0-.77-.26.59.59,0,0,0-.26.77C15.92,8.86,19,9.56,22,10c-1.48,2.71-2.77,5.54-1.14,8.85s4.66,4,7.72,4.49c-1.48,2.72-2.77,5.55-1.14,8.87a.58.58,0,0,0,.77.26.56.56,0,0,0,.25-.76,5.74,5.74,0,0,1-.55-1.7l8.11-4a5.79,5.79,0,0,1,1,1.48.56.56,0,0,0,.76.25.56.56,0,0,0,.26-.76c-1.63-3.32-4.66-4-7.72-4.5C31.81,19.81,33.11,17,31.47,13.67ZM21.26,14.85,28,11.54a6.26,6.26,0,0,1,1.41,1.09l-8.07,4A6.1,6.1,0,0,1,21.26,14.85Zm.41-1.42a20.66,20.66,0,0,1,1.54-3.22,21,21,0,0,1,3.48.75Zm8.48.14.3.6a6.21,6.21,0,0,1,.37.93l-8.44,4.16a5.73,5.73,0,0,1-.51-.86l-.3-.6Zm.93,2.67A6.28,6.28,0,0,1,31,17.86l-6.52,3.22a6.57,6.57,0,0,1-1.33-.95Zm-.46,3.09a21.13,21.13,0,0,1-1.45,3,20.28,20.28,0,0,1-3.26-.67ZM22.57,9a21.58,21.58,0,0,1-3.46-.76l5-2.47A22.3,22.3,0,0,1,22.57,9ZM24.5,3.08a7.83,7.83,0,0,1,0,1.28L17.72,7.68a6.84,6.84,0,0,1-1-.73Zm5.26,20.5a21.55,21.55,0,0,1,2.59.49l-3.79,1.87A26.14,26.14,0,0,1,29.76,23.58Zm-1.94,5.24a7,7,0,0,1,.2-1.36l5.84-2.87a7,7,0,0,1,1.2.66Z"/></g></g></g></g></svg>