<?xml version="1.0" encoding="UTF-8" standalone="no"?>
<svg
   xmlns:dc="http://purl.org/dc/elements/1.1/"
   xmlns:cc="http://creativecommons.org/ns#"
   xmlns:rdf="http://www.w3.org/1999/02/22-rdf-syntax-ns#"
   xmlns:svg="http://www.w3.org/2000/svg"
   xmlns="http://www.w3.org/2000/svg"
   xmlns:sodipodi="http://sodipodi.sourceforge.net/DTD/sodipodi-0.dtd"
   xmlns:inkscape="http://www.inkscape.org/namespaces/inkscape"
   width="64"
   height="64"
   viewBox="0 0 64 64"
   version="1.1"
   id="svg10"
   sodipodi:docname="zebrafish-dark-64.svg"
   inkscape:version="0.92.3 (2405546, 2018-03-11)">
  <metadata
     id="metadata16">
    <rdf:RDF>
      <cc:Work
         rdf:about="">
        <dc:format>image/svg+xml</dc:format>
        <dc:type
           rdf:resource="http://purl.org/dc/dcmitype/StillImage" />
      </cc:Work>
    </rdf:RDF>
  </metadata>
  <defs
     id="defs14" />
  <sodipodi:namedview
     pagecolor="#ffffff"
     bordercolor="#666666"
     borderopacity="1"
     objecttolerance="10"
     gridtolerance="10"
     guidetolerance="10"
     inkscape:pageopacity="0"
     inkscape:pageshadow="2"
     inkscape:window-width="691"
     inkscape:window-height="480"
     id="namedview12"
     showgrid="false"
     inkscape:zoom="3.6875"
     inkscape:cx="32"
     inkscape:cy="32"
     inkscape:window-x="0"
     inkscape:window-y="27"
     inkscape:window-maximized="0"
     inkscape:current-layer="svg10" />
  <title
     id="title2">zebrafish-icon-64</title>
  <g
     id="g8"
     style="fill:#2f0f3e;fill-opacity:1">
    <path
       d="M62.791,24.611c.636-1.062-.294-1.37-1.252-1.223a12.1,12.1,0,0,0-2.744.906c-2.675,1.109-5.4,2.03-8.15,2.93a11.2,11.2,0,0,1-6.882.086,1.881,1.881,0,0,1-.745-.394.785.785,0,0,1-.239-.772,2.292,2.292,0,0,1,.195-.366.707.707,0,0,0,.07-.171,1,1,0,0,0-.415-.89,7.326,7.326,0,0,0-2.967-1.859,5.4,5.4,0,0,0-3.639.66A11.327,11.327,0,0,1,31.7,24.61c-7.168,0-14.3-.5-21.321,1.277A52.4,52.4,0,0,0,4.988,27.6C4.031,27.952,1,28.675,1,30.052c0,1.421,1.462,2.88,2.416,3.757,3.436,3.16,8.416,4.049,12.929,4.33,2.178.136,4.394-.334,6.553.092,1.731.342,3.06,1.781,4.55,2.616,1.3.73,3.313.573,3.864-1.08.187-.561.151-2.169.884-2.339,1.212-.28,1.657.823,2.082,1.723,1.222,2.585,4.361,2.216,6.75,1.782a8.629,8.629,0,0,0,3.886-3.5c1.166-2.332,1.554-3.108,3.109-3.108s2.332,1.554,4.275,2.72c2.017,1.21,3.881,3.118,6.46,2.876,1.463-.137,1.435-1.768,1.312-2.876-.423-3.8-2.331-5.829-1.166-7.384A51.125,51.125,0,0,0,62.791,24.611ZM5.858,32.966A1.943,1.943,0,1,1,7.8,31.023h0A1.946,1.946,0,0,1,5.858,32.966Zm6,.115a3.1,3.1,0,0,1-4.315,2.351A3.105,3.105,0,0,0,8.5,29.494a3.1,3.1,0,0,1,3.359,3.587Zm1.19-1.863c0-.215.254-.389.569-.389H56.393c.314,0,.569.174.569.389s-.254.388-.569.388H13.615C13.3,31.606,13.047,31.432,13.047,31.218Zm43.914,1.943H13.824a.389.389,0,0,1,0-.778H56.961a.389.389,0,0,1,0,.778Zm.389-3.109H11.881a.389.389,0,0,1,0-.778H57.35a.389.389,0,1,1,0,.778Z"
       id="path4"
       style="fill:#2f0f3e;fill-opacity:1" />
    <path
       d="M5.858,29.469a1.555,1.555,0,1,0,1.554,1.555h0A1.556,1.556,0,0,0,5.858,29.469Zm0,2.526a.972.972,0,1,1,.971-.972h0a.97.97,0,0,1-.97.972Z"
       id="path6"
       style="fill:#2f0f3e;fill-opacity:1" />
  </g>
</svg>
