<?xml version="1.0" encoding="UTF-8" standalone="no"?>
<svg xmlns:dc="http://purl.org/dc/elements/1.1/" xmlns:cc="http://creativecommons.org/ns#" xmlns:rdf="http://www.w3.org/1999/02/22-rdf-syntax-ns#" xmlns:svg="http://www.w3.org/2000/svg" xmlns="http://www.w3.org/2000/svg" xmlns:sodipodi="http://sodipodi.sourceforge.net/DTD/sodipodi-0.dtd" xmlns:inkscape="http://www.inkscape.org/namespaces/inkscape" width="64.000046" height="56.686905" viewBox="0 0 64.000045 56.686902" version="1.1" id="svg6" sodipodi:docname="org-7-dark-64.svg" inkscape:version="0.92.3 (2405546, 2018-03-11)">
    <metadata id="metadata12">
        <rdf:RDF>
            <cc:Work rdf:about="">
                <dc:format>image/svg+xml</dc:format>
                <dc:type rdf:resource="http://purl.org/dc/dcmitype/StillImage" />
                <dc:title>marmoset</dc:title>
            </cc:Work>
        </rdf:RDF>
    </metadata>
    <defs id="defs10" />
    <sodipodi:namedview pagecolor="#ffffff" bordercolor="#666666" borderopacity="1" objecttolerance="10" gridtolerance="10" guidetolerance="10" inkscape:pageopacity="0" inkscape:pageshadow="2" inkscape:window-width="1065" inkscape:window-height="874" id="namedview8" showgrid="false" inkscape:zoom="0.4228019" inkscape:cx="386.03823" inkscape:cy="279.0862" inkscape:window-x="100" inkscape:window-y="669" inkscape:window-maximized="0" inkscape:current-layer="svg6" fit-margin-top="0" fit-margin-left="0" fit-margin-right="0" fit-margin-bottom="0" />
    <title id="title2">marmoset</title>
    <path d="m 61.060897,20.113904 c 0,-1.9455 -2.192987,-3.85088 -5.526237,-3.85088 -3.279325,0 -6.454961,1.85511 -6.540166,3.75755 -0.630964,0.39861 -2.944496,1.5538 -3.047575,1.5079 -1.296151,-0.5746 -12.944044,-3.31457 -18.667096,-3.53464 -4.097556,-0.15761 -4.991852,0.27552 -8.073651,0.77182 -0.456187,0.0734 -2.402496,0.46502 -2.89707,0.69687 -0.373216,0.10207 -0.744909,0.19753 -1.120258,0.27552 a 14.054451,14.054451 0 0 1 -1.845667,0.28375 10.917202,10.917202 0 0 1 -1.862729,-0.0142 10.676211,10.676211 0 0 1 -1.8293164,-0.34031 11.173528,11.173528 0 0 1 -1.7521348,-0.64549 11.592038,11.592038 0 0 1 -1.6300652,-0.91917 10.141116,10.141116 0 0 1 -2.6657269,-2.54224 9.3364928,9.3364928 0 0 1 -1.5108392,-3.30969 9.0535596,9.0535596 0 0 1 -0.1026725,-3.6174004 7.9411221,7.9411221 0 0 1 1.3883634,-3.28318 8.6606419,8.6606419 0 0 1 1.2060716,-1.34053 8.7910389,8.7910389 0 0 1 1.458132,-1.06248 7.384294,7.384294 0 0 1 1.6291512,-0.71017 6.8371136,6.8371136 0 0 1 1.7329408,-0.28598 6.3430468,6.3430468 0 0 1 1.727355,0.17559 c 0.138928,0.0384 0.28009,0.0699 0.415565,0.11912 l 0.205142,0.0675 0.200368,0.0798 c 0.135475,0.0489 0.263537,0.11577 0.395152,0.17406 0.126741,0.069 0.258053,0.12908 0.380528,0.20636 a 6.4778108,6.4778108 0 0 1 2.399246,2.47115 c 0.07403,0.12522 0.132733,0.25815 0.198744,0.38743 l 0.08673,0.19936 0.04316,0.0996 0.03595,0.0997 a 4.0077811,4.0077811 0 0 1 0.134256,0.40125 c 0.01889,0.0677 0.04062,0.13496 0.05789,0.20311 l 0.04336,0.20575 c 0.03493,0.13618 0.0455,0.27592 0.06763,0.41394 0.01787,0.13862 0.02163,0.27836 0.0324,0.41749 a 5.1132113,5.1132113 0 0 1 -0.555,2.4402804 l -0.0978,0.1899 c -0.03351,0.0629 -0.07322,0.12278 -0.109274,0.18453 -0.03788,0.0609 -0.07109,0.1241 -0.112422,0.1828 l -0.122679,0.17732 c -0.07718,0.12115 -0.175183,0.229 -0.261606,0.34447 -0.04407,0.0609 -0.08988,0.10267 -0.134358,0.15447 a 1.8680095,1.8680095 0 0 1 -0.137811,0.14593 4.2385149,4.2385149 0 0 1 -2.939317,1.21867 c -0.06763,0.004 -0.134459,-0.004 -0.20179,-0.005 a 1.6720076,1.6720076 0 0 1 -0.200674,-0.0139 l -0.199353,-0.0222 -0.196306,-0.0371 a 3.7501351,3.7501351 0 0 1 -0.7543535,-0.23358 4.0926814,4.0926814 0 0 1 -0.7092627,-0.37575 c -0.1160778,-0.0702 -0.2194611,-0.15721 -0.3315783,-0.23571 -0.100946,-0.0901 -0.2106258,-0.17366 -0.3046661,-0.27237 a 3.8731187,3.8731187 0 0 1 -0.2809021,-0.3003 c -0.044481,-0.0524 -0.082564,-0.10897 -0.1250147,-0.1633 l -0.062558,-0.0819 -0.054738,-0.087 a 3.1661917,3.1661917 0 0 1 -0.3608263,-0.74135 l -0.062456,-0.1981404 -0.043973,-0.20311 a 2.5723975,2.5723975 0 0 1 -0.057785,-0.41302 3.3284772,3.3284772 0 0 1 0.049965,-0.84109 l 0.00223,-0.0113 a 0.6100431,0.6100431 0 0 0 -1.1821045,-0.2938 4.6058406,4.6058406 0 0 0 -0.200775,1.14758 3.9389265,3.9389265 0 0 0 0.012999,0.58861 l 0.029553,0.2945104 0.053824,0.29065 a 4.9877904,4.9877904 0 0 0 0.3705756,1.12442 l 0.061644,0.13578 0.070479,0.1305 c 0.04834,0.0864 0.093532,0.17559 0.145732,0.25978 a 5.656634,5.656634 0 0 0 0.7289644,0.94284 5.1800347,5.1800347 0 0 0 0.4445079,0.40165 5.3143924,5.3143924 0 0 0 0.4874657,0.35362 c 0.0849,0.0539 0.1740659,0.10155 0.2614036,0.15142 l 0.1320219,0.0739 0.1368967,0.0652 a 5.0755342,5.0755342 0 0 0 1.1515354,0.38916 l 0.297659,0.0557 0.29969,0.0355 c 0.09983,0.0135 0.199963,0.0179 0.300198,0.0216 0.100235,0.004 0.20047,0.012 0.300299,0.008 a 6.1745664,6.1745664 0 0 0 4.305948,-1.77722 c 0.07393,-0.0677 0.139841,-0.14421 0.207782,-0.21844 0.0654,-0.0745 0.139943,-0.15 0.195393,-0.22434 0.11628,-0.15111 0.241803,-0.29451 0.347116,-0.45456 l 0.163402,-0.23581 c 0.05454,-0.0786 0.101556,-0.16249 0.151724,-0.24445 0.04885,-0.0826 0.100845,-0.1632 0.146544,-0.24779 l 0.133444,-0.25623 a 7.0696754,7.0696754 0 0 0 0.769891,-3.3776304 c -0.01198,-0.19478 -0.0194,-0.39058 -0.04336,-0.58424 -0.02803,-0.19296 -0.04702,-0.38805 -0.09231,-0.57755 l -0.06093,-0.28588 c -0.02376,-0.0941 -0.0519,-0.18716 -0.0781,-0.2807 -0.04905,-0.18858 -0.116484,-0.36996 -0.183307,-0.55164 l -0.04997,-0.13629 -0.05586,-0.13121 -0.11364,-0.26141 c -0.08449,-0.1699 -0.1632,-0.34305 -0.258154,-0.50777 a 8.3368833,8.3368833 0 0 0 -3.13867,-3.21931 c -0.162489,-0.0997 -0.335133,-0.18148003 -0.503918,-0.27024003 -0.174066,-0.0784 -0.345288,-0.16391 -0.524737,-0.22992 l -0.26709,-0.10429 -0.272067,-0.0895 c -0.180566,-0.0631 -0.366412,-0.10653 -0.550735,-0.15537 a 8.2908788,8.2908788 0 0 0 -2.2599111,-0.22292 8.7795632,8.7795632 0 0 0 -2.2204066,0.37342 9.3307042,9.3307042 0 0 0 -2.044208,0.89785003 10.371748,10.371748 0 0 0 -3.2416474,2.96318 9.690718,9.690718 0 0 0 -1.0734402,1.94428 10.196667,10.196667 0 0 0 -0.60760577,2.1284 10.840223,10.840223 0 0 0 -0.13943552,2.1926804 10.696319,10.696319 0 0 0 0.30050234,2.17034 11.028913,11.028913 0 0 0 1.84495635,3.93771 c 0.2123523,0.29522 0.4468436,0.57348 0.6853972,0.84727 0.2452562,0.26791 0.4958948,0.53134 0.7651181,0.77548 a 12.912664,12.912664 0 0 0 1.7017633,1.319 13.312081,13.312081 0 0 0 1.879993,1.03059 12.876408,12.876408 0 0 0 2.0242016,0.71789 12.360304,12.360304 0 0 0 2.1225067,0.36804 12.56768,12.56768 0 0 0 2.003484,0.003 c -1.563952,1.63961 -2.783632,3.84255 -2.885086,6.10347 -0.158934,3.54114 3.249772,11.25437 3.944614,12.96863 a 0.60933221,0.60933221 0 0 1 -0.02813,0.51793 l -4.6356977,8.63515 a 0.61055088,0.61055088 0 0 0 0.0064,0.58902 l 1.4673737,2.59616 a 0.61055088,0.61055088 0 0 0 0.363873,0.28669 l 6.541182,1.86862 a 0.61126176,0.61126176 0 0 0 0.687936,-0.90729 1.1116251,1.1116251 0 0 0 -0.107548,-0.15173 c -0.714949,-0.80939 -3.818481,-3.08728 -4.911319,-3.67691 a 0.61024621,0.61024621 0 0 1 -0.241397,-0.83672 c 0,0 6.359905,-8.83369 6.432517,-9.38371 0.06479,-0.49163 0.647619,-1.22253 0.99372,-0.86729 0.237741,0.24374 0.590646,0.83723 0.823309,1.08614 a 0.72104312,0.72104312 0 0 1 0.228195,0.44136 c 0.09993,1.74279 0.66011,11.35907 0.963557,13.48493 0.06926,0.48503 6.20808,0.67686 9.036803,0.73952 a 0.61034777,0.61034777 0 0 0 0.459132,-1.02764 c -0.43222,-0.45933 -0.915725,-0.93268 -1.22161,-1.10776 -0.909225,-0.52027 -3.563374,-1.05059 -4.687795,-1.25929 a 0.61014466,0.61014466 0 0 1 -0.498637,-0.61705 l 0.441062,-15.41766 a 1.9894697,1.9894697 0 0 0 -0.338891,-1.16606 l -2.782617,-3.01162 c -0.330359,-0.49031 0.206158,-1.41771 1.458031,-1.06786 2.178667,0.60934 5.752197,2.07773 8.131233,2.85209 2.515527,0.81873 7.666314,2.08127 7.666314,2.08127 0.802287,0.17996 -0.203111,1.15083 -0.180058,1.54466 l 1.434063,18.51182 a 0.61085554,0.61085554 0 0 0 0.560891,0.5617 l 8.094978,0.63898 a 0.61065243,0.61065243 0 0 0 0.479849,-1.04063 l -0.398503,-0.39861 a 0.61065243,0.61065243 0 0 0 -0.282019,-0.16025 l -4.678859,-1.18444 a 0.61085554,0.61085554 0 0 1 -0.459437,-0.6335 l 0.707029,-10.41278 c 9.14e-4,-0.0138 0.0023,-0.0276 0.0043,-0.0413 l 0.444508,-3.25282 a 0.61034777,0.61034777 0 0 1 0.151521,-0.3264 l 2.389394,-2.64958 c 0.374638,-0.41557 0.715356,-0.32021 1.064301,0.40896 l 5.995321,15.59586 a 0.61065243,0.61065243 0 0 0 0.361943,0.34874 l 4.570804,1.6322 a 0.61075399,0.61075399 0 0 0 0.792944,-0.74207 l -0.316243,-1.11314 a 0.6109571,0.6109571 0 0 0 -0.190721,-0.29746 l -3.153802,-2.69457 a 0.61166799,0.61166799 0 0 1 -0.200775,-0.33787 l -2.098337,-9.91648 c -0.0133,-0.0628 -0.594099,-4.01712 -0.594099,-4.03865 0,0 1.161083,-5.72123 1.16941,-5.80999 0.239366,-0.10003 2.811764,-1.33149 4.179105,-2.61819 a 16.306644,16.306644 0 0 0 1.70217,-1.89645 c 0.007,-0.12938 -0.64315,-0.79071 -0.64315,-0.79071 a 4.1875341,4.1875341 0 0 0 1.089181,-0.36306 c 0.775883,-0.37504 1.36206,-1.47469 1.36206,-1.47469 0,0 -0.720535,-0.99077 -2.939113,-2.36319 z" id="path4" style="fill:#2f0f3e;fill-opacity:1;stroke-width:0.10155537" inkscape:connector-curvature="0" />
</svg>
