<?xml version="1.0" encoding="UTF-8" standalone="no"?>
<!DOCTYPE svg PUBLIC "-//W3C//DTD SVG 1.1//EN" "http://www.w3.org/Graphics/SVG/1.1/DTD/svg11.dtd">
<svg width="100%" height="100%" viewBox="0 0 64 64" version="1.1" xmlns="http://www.w3.org/2000/svg" xmlns:xlink="http://www.w3.org/1999/xlink" xml:space="preserve" xmlns:serif="http://www.serif.com/" style="fill-rule:evenodd;clip-rule:evenodd;">
    <g id="g8" transform="matrix(1,0,0,1,-16,0)">
        <circle id="circle4" cx="31.978" cy="6.194" r="4.141" style="fill:none;stroke:rgb(160,137,165);stroke-width:1px;"/>
        <path id="path6" d="M46.8,31.161L38.041,13.029C37.646,12.219 36.799,11.723 35.9,11.776C35.837,11.766 35.774,11.76 35.71,11.757L27.77,11.757C27.17,11.759 26.61,12.067 26.287,12.573C26.169,12.711 26.068,12.864 25.987,13.027L17.2,31.214C17.045,31.523 16.965,31.865 16.965,32.211C16.965,33.434 17.972,34.441 19.195,34.441C20.039,34.441 20.813,33.962 21.19,33.207L25.519,23.107C25.559,23.013 25.651,22.952 25.753,22.952C25.892,22.952 26.007,23.066 26.007,23.206C26.007,23.206 26.007,23.207 26.007,23.207L26.007,32.15C26.007,32.179 26.014,32.207 26.016,32.236C26.018,32.265 26.007,32.293 26.007,32.322L26.007,59.656C26.006,59.678 26.006,59.7 26.006,59.722C26.006,60.945 27.012,61.95 28.234,61.95C29.19,61.95 30.044,61.335 30.347,60.429C30.426,60.199 30.466,59.958 30.467,59.715L30.467,35.185C30.467,35.185 30.467,35.184 30.467,35.184C30.467,34.485 31.042,33.91 31.741,33.91C32.44,33.91 33.015,34.485 33.015,35.184C33.015,35.184 33.015,35.185 33.015,35.185L33.015,59.764C33.019,60.959 34.001,61.941 35.196,61.945L35.296,61.945C36.491,61.941 37.473,60.959 37.476,59.764L37.476,23.216C37.476,23.216 37.476,23.215 37.476,23.215C37.476,23.076 37.591,22.961 37.73,22.961C37.828,22.961 37.917,23.017 37.959,23.105L42.815,33.154C43.192,33.909 43.966,34.388 44.81,34.388C46.033,34.388 47.04,33.381 47.04,32.158C47.04,31.812 46.96,31.47 46.805,31.161L46.8,31.161Z" style="fill:none;fill-rule:nonzero;stroke:rgb(160,137,165);stroke-width:1px;"/>
        <g transform="matrix(55.3761,0,0,55.3761,48.5665,50.3153)">
            <path d="M0.23,-0.176C0.23,-0.188 0.23,-0.197 0.23,-0.203C0.23,-0.237 0.235,-0.267 0.245,-0.292C0.252,-0.311 0.263,-0.33 0.279,-0.349C0.291,-0.363 0.312,-0.384 0.343,-0.41C0.373,-0.437 0.393,-0.459 0.402,-0.475C0.411,-0.491 0.416,-0.508 0.416,-0.527C0.416,-0.561 0.402,-0.591 0.375,-0.617C0.349,-0.643 0.316,-0.656 0.277,-0.656C0.24,-0.656 0.209,-0.644 0.184,-0.621C0.159,-0.597 0.142,-0.561 0.134,-0.511L0.044,-0.521C0.052,-0.588 0.076,-0.639 0.116,-0.675C0.157,-0.71 0.21,-0.728 0.276,-0.728C0.346,-0.728 0.402,-0.709 0.443,-0.671C0.485,-0.633 0.506,-0.587 0.506,-0.533C0.506,-0.501 0.499,-0.473 0.484,-0.446C0.469,-0.42 0.441,-0.388 0.398,-0.35C0.369,-0.325 0.351,-0.306 0.342,-0.294C0.333,-0.282 0.326,-0.268 0.322,-0.252C0.318,-0.237 0.316,-0.211 0.315,-0.176L0.23,-0.176ZM0.225,0L0.225,-0.1L0.325,-0.1L0.325,0L0.225,0Z" style="fill:none;fill-rule:nonzero;stroke:rgb(160,137,165);stroke-width:0.02px;stroke-linejoin:round;stroke-miterlimit:2;"/>
        </g>
    </g>
</svg>
