<?xml version="1.0" encoding="UTF-8" standalone="no"?>
<!-- Generator: Adobe Illustrator 23.0.4, SVG Export Plug-In . SVG Version: 6.00 Build 0)  -->

<svg
   xmlns:dc="http://purl.org/dc/elements/1.1/"
   xmlns:cc="http://creativecommons.org/ns#"
   xmlns:rdf="http://www.w3.org/1999/02/22-rdf-syntax-ns#"
   xmlns:svg="http://www.w3.org/2000/svg"
   xmlns="http://www.w3.org/2000/svg"
   xmlns:sodipodi="http://sodipodi.sourceforge.net/DTD/sodipodi-0.dtd"
   xmlns:inkscape="http://www.inkscape.org/namespaces/inkscape"
   version="1.1"
   id="svg6"
   x="0px"
   y="0px"
   viewBox="0 0 64 49.6"
   style="enable-background:new 0 0 64 49.6;"
   xml:space="preserve"
   sodipodi:docname="org-6-dark-64.svg"
   inkscape:version="0.92.3 (2405546, 2018-03-11)"><metadata
   id="metadata11"><rdf:RDF><cc:Work
       rdf:about=""><dc:format>image/svg+xml</dc:format><dc:type
         rdf:resource="http://purl.org/dc/dcmitype/StillImage" /></cc:Work></rdf:RDF></metadata><defs
   id="defs9" />
<style
   type="text/css"
   id="style2">
	.st0{fill:#A089A5;}
</style>
<sodipodi:namedview
   bordercolor="#666666"
   borderopacity="1"
   gridtolerance="10"
   guidetolerance="10"
   id="namedview8"
   inkscape:current-layer="svg6"
   inkscape:cx="-11.118644"
   inkscape:cy="32"
   inkscape:pageopacity="0"
   inkscape:pageshadow="2"
   inkscape:window-height="480"
   inkscape:window-maximized="0"
   inkscape:window-width="723"
   inkscape:window-x="0"
   inkscape:window-y="27"
   inkscape:zoom="3.6875"
   objecttolerance="10"
   pagecolor="#ffffff"
   showgrid="false">
	</sodipodi:namedview>
<title
   id="title2">mouse-icon-64</title>
<path
   class="st0"
   d="M62.9,18.8c-0.1,0-0.1-0.1-0.1-0.2c-0.1-0.2-0.3-0.4-0.3-0.6c-0.2-0.4-0.5-0.8-0.7-1.2  c-0.2-0.4-0.5-0.8-0.8-1.2c-0.3-0.4-0.5-0.8-0.8-1.1c-0.2-0.2-0.4-0.4-0.6-0.6c-0.5-0.5-1-0.9-1.5-1.3c-0.2-0.2-0.5-0.4-0.7-0.6  c-0.4-0.3-0.8-0.7-1.2-0.9C56,11,56,10.8,55.9,10.7c0,0-0.1,0.1-0.1,0.1c-0.2-0.2-0.4-0.4-0.6-0.5c-0.1,0-0.1,0.1-0.2,0.1  c-0.4-0.3-0.9-0.4-1.2-0.7c0,0-0.1,0.1-0.2,0.1c-0.1-0.1-0.2-0.2-0.4-0.4c0,0.1-0.1,0.1-0.1,0.2c0,0,0,0,0,0  c-0.1-0.1-0.2-0.2-0.4-0.3c0,0.1,0,0.1-0.1,0.2c-0.2-0.2-0.3-0.4-0.5-0.7c-0.6-0.8-1-1.6-1.6-2.4c-0.2-0.2-0.4-0.4-0.5-0.7  c-0.2-0.3-0.5-0.6-0.8-0.9c-0.5-0.5-1-0.8-1.7-1c-0.2-0.1-0.3,0-0.4-0.1c-0.5,0.3-0.8,0.6-1,1.1c-0.2,0-0.5,0-0.7-0.1  C45.2,4.7,45,5,44.8,4.9c-0.4,0.4-0.7,0.9-0.8,1.5c-0.1,0-0.1,0-0.2,0c-0.2-0.2-0.4-0.3-0.6-0.5c0,0.1,0,0.2,0,0.3  c-0.3-0.1-0.5-0.2-0.9-0.4c0.1,0,0.1,0.2,0.1,0.3c-0.3,0-0.4-0.2-0.6-0.4c-0.4-0.2-0.9-0.2-1.3-0.3c-1.3-0.5-2.6-1.1-3.7-2  c0,0.1,0,0.2,0,0.3c-0.6-0.3-1.2-0.7-1.7-1.2c-0.7,0-1.3-0.4-1.9-0.6c-0.4-0.2-0.9-0.2-1.3-0.4c0,0,0,0,0,0c-0.6,0-1.2-0.2-1.8-0.1  c-0.4,0.1-0.8,0.1-1.3,0.1c-0.2,0-0.3,0.1-0.5,0.1c-0.1,0-0.3,0-0.4,0c-0.1,0.1-0.3,0-0.5,0c-0.5,0.1-0.9,0.2-1.4,0.3  c-0.1,0-0.3,0-0.4,0.1c-0.1,0.1-0.3,0-0.4,0.1c-0.3,0.1-0.5,0-0.8,0.1c-0.3,0.1-0.5,0-0.8,0.1c0,0,0,0.1,0,0.1  c0.1,0,0.1,0.1,0.2,0.1c-0.3,0.1-0.6,0.1-1,0.2c0.1,0,0.1,0.1,0.2,0.1c-0.3,0.2-0.7,0.1-1.1,0.2c0.1,0.1,0.2,0.2,0.3,0.2  c0,0-0.1,0.1-0.1,0.1c-0.3,0-0.6,0-1.1,0c0.1,0.1,0.2,0.1,0.3,0.2c-0.4,0.1-0.7,0.1-1.1,0.2c0.1,0.1,0.2,0.1,0.4,0.2  c-0.3,0.1-0.6,0.1-0.9,0.2c0.1,0.1,0.1,0.1,0.2,0.2c-0.3,0-0.5,0.1-0.8,0.1c-0.3,0-0.5,0-0.8,0c0.2,0.2,0.4,0.2,0.5,0.5  c-0.1,0.1-0.2,0.2-0.4,0.3c-0.3,0-0.6,0-0.9,0c0.1,0.2,0.1,0.2,0.3,0.3c-0.1,0-0.2,0.1-0.3,0.1c-0.3,0-0.7,0.1-1-0.1  c0,0.3,0.2,0.4,0.5,0.5c-0.4,0.1-0.8,0.2-1.1,0.3c0.1,0.1,0.2,0.2,0.3,0.2c-0.3,0.1-0.6,0.2-0.9,0.3c0.1,0.1,0.2,0.2,0.3,0.3  c-0.4,0-0.8,0.2-1,0.6c-0.2,0-0.4,0-0.6,0.1c0,0.1,0.1,0.3,0.2,0.3c-0.3,0.3-0.7,0.6-1.1,0.7c0.1,0.1,0.1,0.1,0.2,0.2  c-0.3,0-0.5,0.2-0.7,0.4c0.1,0,0.2,0.1,0.4,0.1c-0.2,0.1-0.4,0.3-0.6,0.4c0.1,0.1,0.2,0.2,0.2,0.2c-0.2,0.1-0.4,0.3-0.7,0.4  c0.2,0.1,0.3,0.1,0.5,0.2c-0.1,0.2-0.3,0.4-0.6,0.5c0.2,0.2,0,0.6-0.3,0.7c0.1,0.1,0.2,0.1,0.3,0.2c-0.1,0.2-0.3,0.4-0.4,0.6  c0.1,0,0.1,0.1,0.2,0.1c-0.1,0.3-0.3,0.6-0.6,0.7c0.1,0,0.2,0.1,0.3,0.1c-0.1,0.3-0.2,0.7-0.3,1c0.1,0.4,0,0.8-0.1,1.2  c0.1-0.1,0.2-0.1,0.3-0.2c-0.1,0.3-0.3,0.6-0.4,0.9c-0.1,0.3,0,0.5,0,0.8c0.1,0.6,0,1.2-0.3,1.8c0.2,0.7,0.2,1.4,0,2.1  c0-0.1,0.4,0.5,0.5,0.6c0.1,0.2,0.1,0.6,0,0.8c-0.1,0.5-0.7,0.8-1.1,1c-1.7,1-3.5,1.7-5.2,2.7C2,28.2-1,32,1.5,35.2  c1.3,1.7,3.8,2,5.9,2.1c5.9,0.4,11.9,0.9,17.6,2.6c1.9,0.6,3.8,1.3,5.1,2.8c1.3,1.4,1.9,3.7,0.9,5.4c1.2-1,1.4-2.8,0.9-4.2  c-0.6-1.4-1.7-2.5-3-3.4c-3.4-2.3-7.6-3-11.7-3.5s-8.3-0.6-12.2-1.8c-1.2-0.4-2.5-0.9-2.8-2.1c-0.4-1.2,0.5-2.4,1.4-3.3  c2.7-2.7,6.4-4.3,10.2-4.5c-0.1,0.2-0.2,0.3-0.3,0.5c0.4-0.2,0.9-0.5,1.3-0.7c-0.2,0.3-0.5,0.6-0.7,0.9c0.8-0.1,1.6-0.4,2.3-0.9  c-0.2,0.3-0.4,0.6-0.5,0.9c0.6-0.3,1.2-0.6,1.7-0.9c-0.2,0.4-0.4,0.8-0.6,1.2c0.5-0.1,0.9-0.3,1.4-0.4c-0.1,0.2-0.2,0.4-0.3,0.6  c0.7,0,1.4,0,2.2,0c-0.2,0.1-0.3,0.3-0.5,0.4c0.1-0.1,0.6,0,0.7,0c0.3,0,0.5-0.1,0.8-0.2c0.5-0.2,0.9-0.5,1.3-0.7  c0.1,0.3-0.1,0.5-0.2,0.8c0.5-0.3,0.9-0.5,1.3-0.7c0,0.1,0.1,0.1,0.1,0.2c0.1-0.1,0.2-0.1,0.3-0.2c0.3,0,0.7,0,1.1,0  c0.2,0,0.5,0.1,0.7,0.1c0.2,0.1,0.5,0.1,0.8,0c0.2-0.1,0.4,0,0.6,0c0.3,0.2,0.5,0.4,0.8,0.6c0.3,0,0.6,0,0.9,0  c0.2,0,0.3-0.1,0.5-0.1c0.1,0,0.2,0,0.3,0.1c0.2,0.2,0.5,0.3,0.8,0.5c-0.1-0.2-0.1-0.3-0.2-0.5c0.5,0,0.9,0.1,1.4,0.3  c0-0.2-0.1-0.3-0.1-0.5c0.2,0,0.4,0.2,0.5,0.1c-0.2-0.2-0.4-0.4-0.6-0.6c-0.1,0-0.2,0-0.3,0c-0.1-0.3-0.4-0.4-0.7-0.6  c0.4-0.1,0.6,0.2,0.9,0.3c0.1,0,0.1-0.1,0.2-0.1c0.1,0.1,0.1,0.1,0.2,0.2c0-0.5-0.2-0.7-0.6-0.9c-0.3-0.2-0.7-0.4-1.1-0.6  c-0.1,0-0.3,0-0.5,0c-0.4-0.1-0.8,0-1.1-0.3c-0.1-0.1-0.2-0.1-0.3-0.1c-0.2-0.1-0.4-0.1-0.6-0.1c-0.1,0-0.3,0-0.4,0  c0.4-0.3,0.8-0.5,1.2-0.8c0,0,0,0,0.1-0.1c0.3-0.1,0.6-0.3,0.9-0.5c0.6-0.4,1.3-0.6,2-0.7c0.2,0,0.4-0.1,0.6-0.1  c0.2,0,0.3-0.1,0.5-0.1c0.2,0,0.4,0,0.6,0c0.4,0,0.8,0,1.2,0c0.9,0,1.8,0.3,2.6,0.7c0.4,0.2,0.7,0.5,0.9,0.9  c0.2,0.4,0.4,0.8,0.5,1.2c0.1,0.3,0.3,0.6,0.4,0.9c0.1,0.2,0.2,0.4,0.4,0.5c0.1,0.1,0.3,0.2,0.5,0.3c0.1,0,0.2,0,0.3,0  c1-0.1,2,0.1,2.8,0.7c0-0.2-0.1-0.4-0.1-0.5c0.5-0.1,1,0.3,1,0.7c0.1-0.2,0.2-0.5,0.2-0.7c0,0.3,0.1,0.5,0.3,0.7  c0.1-0.4,0-0.9-0.2-1.3c0.2,0,0.3,0.2,0.3,0.3c0.1-0.2,0.2-0.4,0.3-0.7c0.2,0.2,0.2,0.4,0.2,0.7c0.2-0.4,0.2-0.9-0.1-1.3  c-0.3-0.4-0.8-0.6-1.3-0.7c-0.5-0.1-1-0.2-1.4-0.5c-0.6-0.5-0.6-1.4,0.3-1.4c0.4,0,1.1-0.2,1.5-0.4c0.9-0.5,1.7-1,2.5-1.5  c0.5-0.4,1.2-0.3,1.8-0.3c0.3,0,0.6,0,0.8,0.1c0.2,0.1,0.3,0.3,0.5,0.3c0.3,0,0.5-0.3,0.8-0.4c0.5-0.1,0.9,0.6,1.4,0.7  c0.4,0.1,0.7-0.2,1.1-0.2c0.3,0,0.5,0.2,0.7,0.3c0.4,0.3,0.9,0.1,1.4,0.2c0.6,0,1.2,0,1.8,0c0.2,0,0.3,0,0.5-0.1  c-0.2,0.5-0.5,0.8-0.7,1.2c-0.2,0.4-0.5,0.8-0.7,1.2c-0.2,0.4-0.5,0.8-0.6,1.3c0.7-1.2,1.3-2.5,2.2-3.6c0.2,0,0.4,0.1,0.6,0.1  c-0.3,0.7-0.6,1.3-0.8,2c-0.1,0.2-0.1,0.5-0.1,0.7c0,0.2-0.2,0.4,0,0.7c0.1-0.4,0.2-0.7,0.3-1c0.2-0.8,0.5-1.6,0.9-2.3  c0,0,0,0,0.1-0.1c0,0,0.1,0.1,0.1,0.1c0.1,0,0.1,0,0.2,0.1c-0.2,0.4-0.3,0.8-0.5,1.2c-0.1,0.4-0.3,0.8-0.3,1.2  c0.1-0.3,0.3-0.6,0.4-0.9c0.1-0.3,0.3-0.6,0.4-1c0-0.2,0.2-0.4,0.3-0.6c0.4-0.1,0.7-0.2,1.1-0.3c0.2-0.1,0.5-0.1,0.7-0.2  c0.4-0.1,0.7-0.2,1-0.6c0.3,0,0.6,0.1,0.9,0.1c0.4-0.2,0.7-0.3,0.8-0.7C63.3,19.2,63.2,18.9,62.9,18.8z M58,14.1  c-0.1,0.3-0.8,0.4-1.3,0.2c-0.5-0.2-0.9-0.7-0.8-1c0.1-0.3,0.7-0.4,1.2-0.3C57.6,13.2,58.1,13.7,58,14.1z"
   id="path6"
   style="fill:#2f0f3e;fill-opacity:1" />
</svg>