<?xml version="1.0" encoding="UTF-8" standalone="no"?>
<svg
   xmlns:dc="http://purl.org/dc/elements/1.1/"
   xmlns:cc="http://creativecommons.org/ns#"
   xmlns:rdf="http://www.w3.org/1999/02/22-rdf-syntax-ns#"
   xmlns:svg="http://www.w3.org/2000/svg"
   xmlns="http://www.w3.org/2000/svg"
   xmlns:sodipodi="http://sodipodi.sourceforge.net/DTD/sodipodi-0.dtd"
   xmlns:inkscape="http://www.inkscape.org/namespaces/inkscape"
   width="64"
   height="64"
   viewBox="0 0 64 64"
   version="1.1"
   id="svg10"
   sodipodi:docname="human-light-64.svg"
   inkscape:version="0.92.3 (2405546, 2018-03-11)">
  <metadata
     id="metadata16">
    <rdf:RDF>
      <cc:Work
         rdf:about="">
        <dc:format>image/svg+xml</dc:format>
        <dc:type
           rdf:resource="http://purl.org/dc/dcmitype/StillImage" />
      </cc:Work>
    </rdf:RDF>
  </metadata>
  <defs
     id="defs14" />
  <sodipodi:namedview
     pagecolor="#ffffff"
     bordercolor="#666666"
     borderopacity="1"
     objecttolerance="10"
     gridtolerance="10"
     guidetolerance="10"
     inkscape:pageopacity="0"
     inkscape:pageshadow="2"
     inkscape:window-width="761"
     inkscape:window-height="649"
     id="namedview12"
     showgrid="false"
     inkscape:zoom="3.6875"
     inkscape:cx="32"
     inkscape:cy="32"
     inkscape:window-x="0"
     inkscape:window-y="27"
     inkscape:window-maximized="0"
     inkscape:current-layer="svg10" />
  <title
     id="title2">human-icon-64</title>
  <g
     id="g8"
     style="fill:#a089a5;fill-opacity:1">
    <circle
       cx="31.978"
       cy="6.194"
       r="4.141"
       id="circle4"
       style="fill:#a089a5;fill-opacity:1" />
    <path
       d="M46.8,31.161,38.041,13.029A2.236,2.236,0,0,0,35.9,11.776a1.722,1.722,0,0,0-.19-.019H27.77a1.765,1.765,0,0,0-1.483.816,2.2,2.2,0,0,0-.3.454L17.2,31.214a2.23,2.23,0,1,0,3.99,1.993l4.329-10.1a.254.254,0,0,1,.488.1v8.943c0,.029.007.057.009.086s-.009.057-.009.086V59.656a2.228,2.228,0,0,0,4.34.773,2.225,2.225,0,0,0,.12-.714V35.185a1.274,1.274,0,0,1,1.274-1.275h0a1.274,1.274,0,0,1,1.274,1.275h0V59.764a2.188,2.188,0,0,0,2.181,2.181h.1a2.187,2.187,0,0,0,2.18-2.181V23.216a.254.254,0,0,1,.483-.111l4.856,10.049a2.23,2.23,0,1,0,3.99-1.993Z"
       id="path6"
       style="fill:#a089a5;fill-opacity:1" />
  </g>
</svg>
