<?xml version="1.0" encoding="UTF-8" standalone="no"?>
<svg
   width="63.999619"
   height="56.739807"
   viewBox="0 0 63.999618 56.739804"
   version="1.1"
   id="svg6"
   sodipodi:docname="org-7-outline-64.svg"
   inkscape:version="1.1.2 (0a00cf5339, 2022-02-04)"
   xmlns:inkscape="http://www.inkscape.org/namespaces/inkscape"
   xmlns:sodipodi="http://sodipodi.sourceforge.net/DTD/sodipodi-0.dtd"
   xmlns="http://www.w3.org/2000/svg"
   xmlns:svg="http://www.w3.org/2000/svg"
   xmlns:rdf="http://www.w3.org/1999/02/22-rdf-syntax-ns#"
   xmlns:cc="http://creativecommons.org/ns#"
   xmlns:dc="http://purl.org/dc/elements/1.1/">
  <metadata
     id="metadata12">
    <rdf:RDF>
      <cc:Work
         rdf:about="">
        <dc:format>image/svg+xml</dc:format>
        <dc:type
           rdf:resource="http://purl.org/dc/dcmitype/StillImage" />
        <dc:title>marmoset</dc:title>
      </cc:Work>
    </rdf:RDF>
  </metadata>
  <defs
     id="defs10" />
  <sodipodi:namedview
     pagecolor="#ffffff"
     bordercolor="#666666"
     borderopacity="1"
     objecttolerance="10"
     gridtolerance="10"
     guidetolerance="10"
     inkscape:pageopacity="0"
     inkscape:pageshadow="2"
     inkscape:window-width="1554"
     inkscape:window-height="898"
     id="namedview8"
     showgrid="false"
     inkscape:zoom="4.7834574"
     inkscape:cx="-18.501262"
     inkscape:cy="27.908684"
     inkscape:window-x="356"
     inkscape:window-y="125"
     inkscape:window-maximized="0"
     inkscape:current-layer="svg6"
     fit-margin-top="0"
     fit-margin-left="0"
     fit-margin-right="0"
     fit-margin-bottom="0"
     inkscape:pagecheckerboard="0" />
  <title
     id="title2">marmoset</title>
  <path
     d="m 60.261572,20.348245 c 0,-1.89637 -2.13761,-3.75363 -5.38668,-3.75363 -3.19652,0 -6.29196,1.80826 -6.37501,3.66266 -0.61503,0.38854 -2.87014,1.51456 -2.97062,1.46981 -1.26342,-0.56009 -12.61716,-3.23086 -18.19569,-3.44537 -3.99408,-0.15364 -4.8658,0.26856 -7.86977,0.75233 -0.44467,0.0716 -2.34183,0.45328 -2.82391,0.67927 -0.36379,0.0995 -0.7261,0.19254 -1.09197,0.26857 a 13.699534,13.699534 0 0 1 -1.79906,0.27658 10.641511,10.641511 0 0 1 -1.81569,-0.0139 10.406605,10.406605 0 0 1 -1.78312,-0.33172 10.891363,10.891363 0 0 1 -1.7078903,-0.62919 11.299304,11.299304 0 0 1 -1.5889,-0.89596 9.885023,9.885023 0 0 1 -2.59841,-2.47804 9.1007189,9.1007189 0 0 1 -1.47268,-3.22611 8.8249305,8.8249305 0 0 1 -0.10008,-3.5260501 7.7405853,7.7405853 0 0 1 1.3533,-3.20027 8.4419351,8.4419351 0 0 1 1.17562,-1.30668 8.5690393,8.5690393 0 0 1 1.42131,-1.03564 7.1978188,7.1978188 0 0 1 1.58801,-0.69225 6.6644564,6.6644564 0 0 1 1.68917,-0.27876 6.1828662,6.1828662 0 0 1 1.6837403,0.17116 c 0.13542,0.0374 0.27302,0.0681 0.40507,0.11612 l 0.19996,0.0658 0.19531,0.0778 c 0.13205,0.0476 0.25688,0.11285 0.38517,0.16967 0.12354,0.0672 0.25154,0.12582 0.37092,0.20115 a 6.3142269,6.3142269 0 0 1 2.33866,2.40874 c 0.0722,0.12206 0.12938,0.25164 0.19372,0.37765 l 0.0845,0.19432 0.0421,0.0971 0.0351,0.0972 a 3.9065728,3.9065728 0 0 1 0.13086,0.39111 c 0.0184,0.066 0.0396,0.13156 0.0564,0.19799 l 0.0423,0.20055 c 0.034,0.13275 0.0443,0.26896 0.0659,0.40349 0.0174,0.13512 0.0211,0.27133 0.0316,0.40695 a 4.9840876,4.9840876 0 0 1 -0.54098,2.3786501 l -0.0953,0.18511 c -0.0327,0.0613 -0.0714,0.11968 -0.10652,0.17987 -0.0369,0.0594 -0.0693,0.12096 -0.10958,0.17818 l -0.11958,0.17284 c -0.0752,0.1181 -0.17076,0.22322 -0.255,0.33578 -0.043,0.0594 -0.0876,0.10008 -0.13096,0.15056 a 1.8208367,1.8208367 0 0 1 -0.13433,0.14225 4.1314799,4.1314799 0 0 1 -2.8651,1.18789 c -0.0659,0.004 -0.13106,-0.004 -0.19669,-0.005 a 1.6297845,1.6297845 0 0 1 -0.19561,-0.0136 l -0.19431,-0.0217 -0.19135,-0.0361 a 3.6554331,3.6554331 0 0 1 -0.73531,-0.22768 3.9893291,3.9893291 0 0 1 -0.6913503,-0.36626 c -0.11315,-0.0684 -0.21392,-0.15324 -0.3232,-0.22976 -0.0984,-0.0878 -0.20531,-0.16927 -0.29698,-0.26549 a 3.775311,3.775311 0 0 1 -0.27381,-0.29272 c -0.0433,-0.0511 -0.0805,-0.10622 -0.12185,-0.15918 l -0.061,-0.0798 -0.0534,-0.0848 a 3.0862361,3.0862361 0 0 1 -0.35171,-0.72263 l -0.0609,-0.19313 -0.0429,-0.19798 a 2.5074369,2.5074369 0 0 1 -0.0563,-0.4026001 3.2444234,3.2444234 0 0 1 0.0487,-0.81984 l 0.002,-0.011 a 0.59463771,0.59463771 0 0 0 -1.15225,-0.28638 4.4895296,4.4895296 0 0 0 -0.19571,1.1186 3.839457,3.839457 0 0 0 0.0127,0.5737501 l 0.0288,0.28707 0.0525,0.28331 a 4.861834,4.861834 0 0 0 0.36121,1.09603 l 0.0601,0.13235 0.0687,0.1272 c 0.0471,0.0842 0.0912,0.17116 0.14205,0.25322 a 5.5137874,5.5137874 0 0 0 0.71056,0.91903 5.0492236,5.0492236 0 0 0 0.43328,0.39151 5.1801884,5.1801884 0 0 0 0.47516,0.34469 c 0.0827,0.0526 0.16967,0.099 0.2548,0.14759 l 0.12869,0.0721 0.13344,0.0636 a 4.947362,4.947362 0 0 0 1.1224503,0.37933 l 0.29015,0.0543 0.29212,0.0345 c 0.0973,0.0132 0.19491,0.0174 0.29261,0.0211 0.0977,0.004 0.19541,0.0117 0.29272,0.008 a 6.0186404,6.0186404 0 0 0 4.19721,-1.73234 c 0.0721,-0.066 0.13631,-0.14057 0.20254,-0.21293 0.0637,-0.0727 0.1364,-0.14621 0.19045,-0.21867 0.11335,-0.1473 0.2357,-0.28707 0.33835,-0.44308 l 0.15928,-0.22986 c 0.0532,-0.0766 0.099,-0.15838 0.14789,-0.23827 0.0476,-0.0805 0.0983,-0.15908 0.14285,-0.24154 l 0.13007,-0.24975 a 6.8911453,6.8911453 0 0 0 0.75045,-3.2923401 c -0.0117,-0.18986 -0.0189,-0.38071 -0.0423,-0.56949 -0.0273,-0.18808 -0.0458,-0.37824 -0.09,-0.56296 l -0.0594,-0.27866 c -0.0232,-0.0918 -0.0506,-0.18244 -0.0761,-0.27361 -0.0478,-0.18383 -0.11354,-0.36062 -0.17868,-0.53772 l -0.0487,-0.13284 -0.0545,-0.1279 -0.11077,-0.2548 c -0.0824,-0.16561 -0.15908,-0.33439 -0.25163,-0.49496 a 8.1263525,8.1263525 0 0 0 -3.05941,-3.138 c -0.15839,-0.0972 -0.32667,-0.1769 -0.49119,-0.26342 -0.16968,-0.0764 -0.33657,-0.15977 -0.51149,-0.22411 l -0.26035,-0.10167 -0.26519,-0.0872 c -0.17601,-0.0615 -0.35716,-0.10384 -0.53683,-0.15145 a 8.0815096,8.0815096 0 0 0 -2.2028403,-0.21729 8.5578534,8.5578534 0 0 0 -2.16434,0.36399 9.0950764,9.0950764 0 0 0 -1.99258,0.87518 10.109831,10.109831 0 0 0 -3.15979,2.88835 9.4459988,9.4459988 0 0 0 -1.04633,1.89518 9.9391709,9.9391709 0 0 0 -0.59226004,2.07465 10.566476,10.566476 0 0 0 -0.13592,2.1373101 10.426206,10.426206 0 0 0 0.29292004,2.11553 10.750401,10.750401 0 0 0 1.79836,3.83827 c 0.20699,0.28777 0.43556,0.559 0.66809,0.82588 0.23906,0.26114 0.48337,0.51792 0.7458,0.75589 a 12.586581,12.586581 0 0 0 1.65879,1.2857 12.975912,12.975912 0 0 0 1.83251,1.00456 12.551241,12.551241 0 0 0 1.97309,0.69976 12.04817,12.04817 0 0 0 2.0689103,0.35874 12.250309,12.250309 0 0 0 1.95289,0.002 c -1.52446,1.59821 -2.71334,3.74551 -2.81223,5.94935 -0.15492,3.45171 3.1677,10.97016 3.845,12.64112 a 0.59394478,0.59394478 0 0 1 -0.0274,0.50485 l -4.51864,8.41709 a 0.59513267,0.59513267 0 0 0 0.006,0.57415 l 1.43032,2.5306 a 0.59513267,0.59513267 0 0 0 0.35468,0.27945 l 6.376,1.82143 a 0.5958256,0.5958256 0 0 0 0.67056,-0.88438 1.0835533,1.0835533 0 0 0 -0.10483,-0.1479 c -0.69689,-0.78895 -3.72205,-3.00932 -4.78729,-3.58406 a 0.5948357,0.5948357 0 0 1 -0.2353,-0.81558 c 0,0 6.1993,-8.61062 6.27007,-9.14675 0.0632,-0.47922 0.63127,-1.19165 0.96863,-0.84538 0.23174,0.23758 0.57573,0.81608 0.80252,1.0587 a 0.70283466,0.70283466 0 0 1 0.22243,0.43022 c 0.0974,1.69878 0.64344,11.07222 0.93922,13.14439 0.0675,0.47278 6.05131,0.65978 8.8086,0.72085 a 0.59493469,0.59493469 0 0 0 0.44754,-1.00168 c -0.42131,-0.44774 -0.8926,-0.90914 -1.19076,-1.0798 -0.88627,-0.50713 -3.47339,-1.02406 -4.56942,-1.22748 a 0.59473671,0.59473671 0 0 1 -0.48604,-0.60147 l 0.42992,-15.02769 a 1.9392297,1.9392297 0 0 0 -0.33034,-1.13662 l -2.71234,-2.93557 c -0.32202,-0.47793 0.20095,-1.38191 1.42121,-1.04089 2.12365,0.59395 5.60693,2.02526 7.92589,2.78006 2.452,0.79806 7.47272,2.02872 7.47272,2.02872 0.78203,0.17541 -0.19798,1.12176 -0.17551,1.50565 l 1.39785,18.04434 a 0.59542964,0.59542964 0 0 0 0.54672,0.54752 l 7.89056,0.62285 a 0.59523166,0.59523166 0 0 0 0.46773,-1.01436 l -0.38844,-0.38854 a 0.59523166,0.59523166 0 0 0 -0.2749,-0.15621 l -4.5607,-1.15453 a 0.59542964,0.59542964 0 0 1 -0.44783,-0.6175 l 0.68917,-10.14983 c 8.9e-4,-0.0135 0.002,-0.0269 0.004,-0.0403 l 0.43328,-3.17067 a 0.59493469,0.59493469 0 0 1 0.14769,-0.31816 l 2.32906,-2.58267 c 0.36518,-0.40507 0.69729,-0.31212 1.03742,0.39864 l 5.84392,15.20202 a 0.59523166,0.59523166 0 0 0 0.35281,0.33993 l 4.45538,1.59098 a 0.59533065,0.59533065 0 0 0 0.77292,-0.72333 l -0.30826,-1.08503 a 0.59552863,0.59552863 0 0 0 -0.18591,-0.28995 l -3.07416,-2.62652 a 0.59622157,0.59622157 0 0 1 -0.1957,-0.32934 l -2.04535,-9.66606 c -0.013,-0.0612 -0.57909,-3.91568 -0.57909,-3.93666 0,0 1.13176,-5.57675 1.13987,-5.66327 0.23333,-0.0975 2.74076,-1.29787 4.07358,-2.55208 a 15.894853,15.894853 0 0 0 1.65918,-1.84855 c 0.007,-0.12612 -0.62691,-0.77075 -0.62691,-0.77075 a 4.0817865,4.0817865 0 0 0 1.06168,-0.35389 c 0.75629,-0.36557 1.32766,-1.43744 1.32766,-1.43744 0,0 -0.70234,-0.96576 -2.86489,-2.30352 z"
     id="path4"
     style="fill:none;fill-opacity:1;stroke:#a089a5;stroke-width:1.48486197;stroke-miterlimit:4;stroke-dasharray:none;stroke-opacity:1"
     inkscape:connector-curvature="0" />
</svg>
