<?xml version="1.0" encoding="UTF-8" standalone="no"?>
<svg
   xmlns:dc="http://purl.org/dc/elements/1.1/"
   xmlns:cc="http://creativecommons.org/ns#"
   xmlns:rdf="http://www.w3.org/1999/02/22-rdf-syntax-ns#"
   xmlns:svg="http://www.w3.org/2000/svg"
   xmlns="http://www.w3.org/2000/svg"
   xmlns:sodipodi="http://sodipodi.sourceforge.net/DTD/sodipodi-0.dtd"
   xmlns:inkscape="http://www.inkscape.org/namespaces/inkscape"
   width="64"
   height="64"
   viewBox="0 0 64 64"
   version="1.1"
   id="svg10"
   sodipodi:docname="chicken-icon-64.svg"
   inkscape:version="0.92.3 (2405546, 2018-03-11)">
  <metadata
     id="metadata16">
    <rdf:RDF>
      <cc:Work
         rdf:about="">
        <dc:format>image/svg+xml</dc:format>
        <dc:type
           rdf:resource="http://purl.org/dc/dcmitype/StillImage" />
      </cc:Work>
    </rdf:RDF>
  </metadata>
  <defs
     id="defs14" />
  <sodipodi:namedview
     pagecolor="#ffffff"
     bordercolor="#666666"
     borderopacity="1"
     objecttolerance="10"
     gridtolerance="10"
     guidetolerance="10"
     inkscape:pageopacity="0"
     inkscape:pageshadow="2"
     inkscape:window-width="1026"
     inkscape:window-height="1106"
     id="namedview12"
     showgrid="false"
     inkscape:zoom="3.6875"
     inkscape:cx="-11.932203"
     inkscape:cy="32"
     inkscape:window-x="79"
     inkscape:window-y="295"
     inkscape:window-maximized="0"
     inkscape:current-layer="svg10" />
  <title
     id="title2">chicken-icon-64</title>
  <g
     id="g8"
     style="fill:#2f0f3e;fill-opacity:1">
    <path
       d="M58.718,8.558a1.45,1.45,0,0,0-.145-.186,3.113,3.113,0,0,0-.982-.784c-.51-.2-.614-.987-.787-1.432a10.42,10.42,0,0,0-3.705-4.6c-.8-.5-4.378-1.2-3.462,1.631A6.845,6.845,0,0,0,50.43,4.5l0,0c-.747.793-1.732.448-2.569.963A5.78,5.78,0,0,0,45.231,7.76c-1.317,1.832-1.544,5.265-2.633,7.955s-2.575,4.922-4.923,5.494c-1.972.481-4.264-.085-6.218-.408-1.513-.252-3.012-.6-4.54-.776a15.741,15.741,0,0,0-2.287-.088c-.581.019-1.373.339-1.917.074a1.59,1.59,0,0,1-.5-.452c-2.593-3.164-3.671-7.241-6.906-9.865a1.854,1.854,0,0,0-.85-.452,2.05,2.05,0,0,0-1.083.239,2.15,2.15,0,0,0-.929.6,1.358,1.358,0,0,1-.28.342.83.83,0,0,1-.306.1c-.454.09-1.346.058-1.422.666-.058.457-.343-.115-.458.972s.63,1.317-.114,1.088c-.473-.146-.627-.764-1.136-.548a2.921,2.921,0,0,0-1.3,1.815,1.326,1.326,0,0,1-.093.393.918.918,0,0,1-.2.239c-.656.613-2.576,1.7-1.965,2.8a15.682,15.682,0,0,1,2.119-.482c.052-.031.122.1.06,1.049-.114,1.774-.572,2.175-.286,2.8s1.374.229,1.2.916-.858.858-.343,1.488c.576.7,1.64.206,1.683,1.369a3.964,3.964,0,0,0,.506,1.793c.253.448.593.846.81,1.313a9.17,9.17,0,0,1,.485,2.008c.428,2.03,2.576,3.175,3.779,4.734.884,1.145-.182,2.673.639,3.805.21.289.529.483.741.771a4.772,4.772,0,0,1,.5,1.739c.388,1.521,1.982,2.294,3.137,3.184a25.291,25.291,0,0,0,4.281,2.864,2.878,2.878,0,0,1,.772.473c.61.59.168,2.227.076,2.991a7.2,7.2,0,0,1-.583,2.715A3.056,3.056,0,0,1,23.37,55c-.5.346-3.005,2.06-1.459,1.544a3.043,3.043,0,0,0,1.173-.4c1.86-.83.686-.029,2.4.429a18.682,18.682,0,0,1,3.549,1.259c.515.287,1.459.63.686-.058a9.854,9.854,0,0,0-2.689-1.746c-1.031-.457-.516-.8-.859-1.688-.557-1.438.077-3.148.534-4.622a2.207,2.207,0,0,1,.378-.787c.41-.485,1.113-.376,1.663-.256.73.158,1.449-.048,2.067.418a17.586,17.586,0,0,1,3.334,3.1c1.115,1.894,1.652,2.653,1.91,4.829.15,1.266.7,2.039.587,2.611-.029.143-.633.645-.687.744a4.577,4.577,0,0,1-.658.772,6.351,6.351,0,0,1,2.26-.5c1.145,0,1.595.815,2.411,1.617.437.429,1.534,1.132.823.136a4.516,4.516,0,0,0-1-1.216c-.572-.515-.55-.751-.55-.751s.32-.029,1.352-.029a8.25,8.25,0,0,1,1.745.172s.315-.172-1.288-.744-1.96.093-2.589-1.739-.7-.192-1.653-2.767a20.53,20.53,0,0,1-.965-3.756c-.157-.849.71-1.269,1.226-2.049.616-.93,1.949-.678,2.638-1.5a11.114,11.114,0,0,0,.654-.993,6.442,6.442,0,0,1,2.508-2.094c1.844-.929,3.9-1.292,5.715-2.3a16.241,16.241,0,0,0,3.069-2.416,9.889,9.889,0,0,0,3.306-4.872c.556-2.444.17-5.185.17-7.672a42.9,42.9,0,0,0-.77-6.869q-.3-1.864-.673-3.719a14.1,14.1,0,0,1-.621-4.2,1.014,1.014,0,0,1,.134-.455c.164-.251,1-.436,1.3-.534a1.936,1.936,0,0,0,1.37-1.387c.225-.674.249-1.333,1.157-1.237a15,15,0,0,1,1.919.319A2.059,2.059,0,0,0,58.718,8.558Zm-6-.5A1.073,1.073,0,1,1,53.79,6.986a1.074,1.074,0,0,1-1.073,1.073Z"
       id="path4"
       style="fill:#2f0f3e;fill-opacity:1" />
    <path
       d="M7.288,17.49a.013.013,0,0,0,0-.017C7.24,17.5,7.208,17.648,7.288,17.49Z"
       id="path6"
       style="fill:#2f0f3e;fill-opacity:1" />
  </g>
</svg>
