<?xml version="1.0" encoding="utf-8"?>
<!-- Generator: Adobe Illustrator 24.2.3, SVG Export Plug-In . SVG Version: 6.00 Build 0)  -->
<svg version="1.1" xmlns="http://www.w3.org/2000/svg" xmlns:xlink="http://www.w3.org/1999/xlink" x="0px" y="0px"
	 viewBox="0 0 64 64" style="enable-background:new 0 0 64 64;" xml:space="preserve">
<style type="text/css">
	.st0{fill:#2F0F3E;}
</style>
<g id="svg6" xmlns:cc="http://creativecommons.org/ns#" xmlns:dc="http://purl.org/dc/elements/1.1/" xmlns:inkscape="http://www.inkscape.org/namespaces/inkscape" xmlns:rdf="http://www.w3.org/1999/02/22-rdf-syntax-ns#" xmlns:sodipodi="http://sodipodi.sourceforge.net/DTD/sodipodi-0.dtd" xmlns:svg="http://www.w3.org/2000/svg">
	
		<sodipodi:namedview  bordercolor="#666666" borderopacity="1" gridtolerance="10" guidetolerance="10" id="namedview8" inkscape:current-layer="svg6" inkscape:cx="32" inkscape:cy="32" inkscape:pageopacity="0" inkscape:pageshadow="2" inkscape:window-height="480" inkscape:window-maximized="0" inkscape:window-width="699" inkscape:window-x="0" inkscape:window-y="27" inkscape:zoom="3.6875" objecttolerance="10" pagecolor="#ffffff" showgrid="false">
		</sodipodi:namedview>
</g>
<g id="Layer_1">
	<path class="st0" d="M19.7,16.3c2.4-5.1,7.5-8.9,13-9.6c2.3-0.3,4.7-0.1,6.6,1.2c2.4,1.7,3.3,4.7,4.4,7.4
		C46,21.2,50,26.4,55.1,30.1c2.1,1.5,4.4,2.9,5.7,5.1c1.1,1.7,1.4,3.8,1.5,5.8c0.1,2.1-0.1,4.3-1,6.3c-1,2.1-2.8,3.8-4.6,5.3
		c-1.5,1.3-3.1,2.6-4.9,3.2c-4,1.3-8.3-0.6-12.5-0.9c-4.9-0.3-9.6,1.8-14.5,2.4C20,57.9,14.4,57,10.3,54.4C6.4,52,3.4,47,1.8,42.8
		c-0.2-0.6-0.3-1.6,0.4-1.7c0.3,0,0.6,0.2,0.8,0.4c1.4,1.3,2.3,3,3.6,4.3c2.9,3,7.4,3.9,11.6,3.6c4.2-0.2,8.2-1.4,12.4-1.8
		c6.6-0.6,13.6,0.7,19.8-1.7c1-0.4,2-1,2.1-2c0.4-3-4-5.9-6-7.6c-3-2.5-6.4-4.9-8-8.7c-1.3-3.1-1-6.7-1.6-10.1
		c-0.2-1.3-0.7-2.7-1.7-3.5c-1-0.7-2.3-0.8-3.5-0.6c-3.2,0.4-6.2,1.9-8.3,4.3c-0.5,0.5-0.9,1.1-1.5,1.5s-1.4,0.5-2,0.1
		C18.9,18.8,19.2,17.4,19.7,16.3C19.7,16.3,19.7,16.3,19.7,16.3z"/>
</g>
</svg>
