<?xml version="1.0" encoding="UTF-8" standalone="no"?>
<svg
   xmlns:dc="http://purl.org/dc/elements/1.1/"
   xmlns:cc="http://creativecommons.org/ns#"
   xmlns:rdf="http://www.w3.org/1999/02/22-rdf-syntax-ns#"
   xmlns:svg="http://www.w3.org/2000/svg"
   xmlns="http://www.w3.org/2000/svg"
   xmlns:sodipodi="http://sodipodi.sourceforge.net/DTD/sodipodi-0.dtd"
   xmlns:inkscape="http://www.inkscape.org/namespaces/inkscape"
   width="64"
   height="64"
   viewBox="0 0 64 64"
   version="1.1"
   id="svg6"
   sodipodi:docname="org-1-outline-64.svg"
   inkscape:version="0.92.3 (2405546, 2018-03-11)">
  <metadata
     id="metadata12">
    <rdf:RDF>
      <cc:Work
         rdf:about="">
        <dc:format>image/svg+xml</dc:format>
        <dc:type
           rdf:resource="http://purl.org/dc/dcmitype/StillImage" />
      </cc:Work>
    </rdf:RDF>
  </metadata>
  <defs
     id="defs10" />
  <sodipodi:namedview
     pagecolor="#ffffff"
     bordercolor="#666666"
     borderopacity="1"
     objecttolerance="10"
     gridtolerance="10"
     guidetolerance="10"
     inkscape:pageopacity="0"
     inkscape:pageshadow="2"
     inkscape:window-width="1131"
     inkscape:window-height="1245"
     id="namedview8"
     showgrid="false"
     inkscape:zoom="3.6875"
     inkscape:cx="-4.3310403"
     inkscape:cy="32"
     inkscape:window-x="0"
     inkscape:window-y="27"
     inkscape:window-maximized="0"
     inkscape:current-layer="svg6" />
  <title
     id="title2">mouse-icon-64</title>
  <path
     d="M62.2,38.968a11.976,11.976,0,0,0-4.61-5.566c-1.252-.8-2.719-1.43-3.492-2.7a17.368,17.368,0,0,1-.8-1.872,4.439,4.439,0,0,0-1.106-1.6,2.906,2.906,0,0,0-1.827-.729,2.138,2.138,0,0,0-2.2,1.884,4.679,4.679,0,0,0,.626,2.545c-.086-1.307.415-2.414,1.313-2.683,1.136-.339,2.477.787,3,2.518a5.092,5.092,0,0,1,.125.519c-.639-1.239-1.719-1.963-2.659-1.681-1.022.306-1.529,1.695-1.243,3.23A4.872,4.872,0,0,1,48.978,32c-.035-.117-.065-.234-.091-.351A75.477,75.477,0,0,1,40.842,31C38.67,30.7,37.6,30.124,35.4,29.973a26.283,26.283,0,0,0-6.492.664,15.822,15.822,0,0,0-8.4,5.086q-.36.428-.69.881a2.67,2.67,0,0,1-.736.787,2.2,2.2,0,0,1-1.948-.111c-3.819-1.634-6.062-5.552-7.967-9.245a39.7,39.7,0,0,0-3.421-5.8A14.6,14.6,0,0,0,3.5,19.827q-.313-.264-.646-.505a7.327,7.327,0,0,0-1.266-.747c-.067-.009.339.292.443.366.145.1.271.205.335.247a5.734,5.734,0,0,1,.681.511A10.656,10.656,0,0,1,5.24,22.572c1.536,2.727,2.621,5.687,4.113,8.439a15.754,15.754,0,0,0,6.274,6.794c1.251.64,2.949.64,3.842,1.725,1.671,2.032,3.307,2.5,4.161,3.723.955,1.363,2.43,1.4,3.62,1.823,1.3.46,1.854.07,2.641.239,1.031.221-1.265-1.149-2.2-1.21s-2.145-.379-2.189-1.315q8.816.612,17.663.354c2.137-.064,4.456-.306,5.68,1.447a4.449,4.449,0,0,0,.509.688,1.074,1.074,0,0,0,.7.135c.453-.031.691-.333.913-.338.6-.011.952.556,1.277.077.167-.246-1.319-.594-2-.783s-1.567-.61-1.25-1.236a1.989,1.989,0,0,1,1.444-1.252,20.449,20.449,0,0,1,4.411-.59,2.811,2.811,0,0,1,1.582.079,3.649,3.649,0,0,0,2.376.488c.222,0,.333-.369.443-.369.095,0,.018.379.111.375a4.321,4.321,0,0,0,2.185-.63,1.783,1.783,0,0,0,.859-1.151A2.183,2.183,0,0,0,62.2,38.968Zm-4.51-.826a1.409,1.409,0,0,1-1.21-1.056,1.359,1.359,0,0,1,1.21-1.159A1.242,1.242,0,0,1,58.9,37.086,1.334,1.334,0,0,1,57.687,38.142Z"
     id="path4"
     style="fill:none;fill-opacity:1;stroke:#a089a5;stroke-opacity:1" />
</svg>
